<svg xmlns="http://www.w3.org/2000/svg" viewBox="0 0 6688.27 4134.82"><defs><style>.cls-1{fill:#188C8C;}.cls-2{fill:#594F56;}.cls-3{fill:#eceded;}.cls-4{fill:#d9dadb;}</style></defs><g id="Calque_2" data-name="Calque 2"><g id="Ebene_2" data-name="Ebene 2"><path class="cls-1" d="M3561.18,1412.37c38.49-31,77.3-61.78,117.4-90.71l-22.44-21.81c-33.87,60-67.13,120.29-100.6,180.49-10.24,18.41,14.3,36.62,29.25,21.77,46.07-45.74,91.79-91.86,137.66-137.81l-29.35-21.85-125.74,197.07c-9.67,15.16,10.43,35.73,25.5,24.79a1255.65,1255.65,0,0,0,216.5-199.08L3780,1343.38q-97.23,125.17-194.47,250.33c-13.55,17.44,14.75,35.21,29.35,21.85l323.5-296L3909,1297.75q-170,221.18-339.81,442.46c-12.89,16.79,15.18,36.52,29.09,21.65l335.25-358.21-30.48-17.1c-39,162.68-216.75,241.92-275.28,396.29-6.92,18.26,18.94,29.35,31.14,17.47,95.36-92.86,191.52-185.1,285.39-279.48L3916.28,1500c-46.6,89.46-94.53,178.21-142.13,267.14-8.32,15.54,12.32,31.78,24.93,18.57q76.08-79.76,152.66-159l-26.24-14.73c-8.72,51.84-24.34,100.39-45.81,148.34-8.19,18.28,16,32.08,27.18,15.25a162.09,162.09,0,0,1,15.34-20.78q16.8-22.44,40.45,2.26c.71,16,24.49,15.92,25.24,0,1.16-24.28-17.7-42.43-42-43.68-30.1-1.56-50.49,25.05-66.17,46.93l27.18,15.25c24.24-49.35,39.93-101.45,48.9-155.64,2.39-14.47-14.66-26.81-26.24-14.73q-76.29,79.54-152.9,158.78l24.93,18.56c48.3-88.53,96.28-177.24,145.57-265.22,10-17.87-13.54-34.62-28.06-20.89-96.68,91.52-191.27,185.37-286.48,278.42l31.14,17.47c58.28-154.58,234.66-231.18,274.52-396.49,4.13-17.13-17.8-30.62-30.48-17.1L3572.13,1736.5l29.09,21.66q170.1-221.11,340.09-442.3c13.46-17.52-14.75-35.21-29.35-21.85l-323.5,296,29.35,21.85q97.23-125.16,194.47-250.33c13-16.68-15.82-37.62-29.35-21.85a1215.81,1215.81,0,0,1-208.8,193.2l25.5,24.79,125.74-197.07c11.56-18.12-14.78-36.45-29.35-21.85-45.87,46-91.91,91.75-137.57,137.9l29.25,21.78c32.34-60.84,64.9-121.56,96.84-182.61,9.19-17.58-11.8-30-25.83-19.22-40.2,31-78.88,63.23-115.37,98.53-12,11.58,5.67,27.09,17.84,17.28Z"/><path class="cls-2" d="M3575.05,13.76c-122.13-20.41-221,77.47-281.44,172.67-72.36,114-80.49,251.55-84.08,382.78-5.77,210.73-32.58,476,132.24,639.37,91.42,90.6,227.57,116.63,352,114.14,114.37-2.29,231.73-32,328.37-94.45C4239.9,1087.53,4290.25,767,4193.46,538.49c-28.19-66.56-69.81-126-114.54-182.39-39.55-49.89-85.58-97.39-146.15-120.76-128.3-49.49-293.62,14.9-378.43,115.79-16.37,19.48,9.74,45.27,28.25,27.35,80.26-77.73,209.54-141.69,323.35-105.38,50.29,16,89.64,54.4,122.79,94,37.33,44.56,72.48,93.69,99.82,145,57,107.06,72.71,229.23,54.4,348.49-17.9,116.62-52.5,226-145.87,303.57-80.52,66.89-186.59,102.43-289.73,113-112.54,11.51-241.85.56-337-66C3248.4,1098,3240.47,863.68,3248.38,685.88c5.82-130.85-2.8-270.63,39.15-396.45,39.07-117.2,148-256.54,283.94-251.37,13.82.52,17.94-21.9,3.58-24.3Z"/><path class="cls-2" d="M3548.1,1316.9c1,76.88,9.2,153.54,11.5,230.41s-1,154,.72,230.9c.54,23.94,35.64,23.33,37.4,0,5.93-78.85,2.19-159.19-.89-238.11-3-75.8-5.4-152.36-18.61-227.2-3-16.86-30.34-12.67-30.12,4Z"/><path class="cls-2" d="M4007.56,1701.53c12.27-74.72-4.81-155.9-10.17-231.19-5.56-78.22-5.14-157.68-15.46-235.38-2.89-21.74-35.16-14.3-36.79,4.82-6.89,80.65,2.5,164.47,10,244.9,6.7,71.85,8.75,152.7,39.59,218.59,2.42,5.16,11.89,4,12.83-1.74Z"/><path class="cls-2" d="M3430.29,345.86c83.44-113.52,183.58-218.39,327.86-242.84,26.19-4.43,21.12-49.54-5.75-46.07-160.47,20.73-249.14,161-335,281.67-5.62,7.88,7.4,14.73,12.9,7.24Z"/><path class="cls-2" d="M3243.45,883c-32.62-36.12-96.4-23.29-115.46,20.84-25.84,59.8,37.59,110.74,86.16,130.56,21,8.58,40.9-20.41,18.9-31.82-27.09-14.05-71-35.39-72.65-71-1.49-31.23,40.82-47.38,64.19-29.93,13.08,9.75,30.64-5.62,18.86-18.66Z"/><path class="cls-2" d="M3693.47,588l4.68,55.68c2.88,34.3,53.89,27.72,47.59-6.25q-5.1-27.48-10.19-55c-4.28-23.08-44.06-18-42.08,5.52Z"/><path class="cls-2" d="M3927.18,556.61c-2.58,22.7-4.48,45.48-6.56,68.24-2.77,30.46,48.25,30.91,48.63,0,.27-22.74.72-45.49.48-68.24-.3-27.58-39.58-26.08-42.55,0Z"/><path class="cls-2" d="M4054.78,817.14c-48.55,36-87,85.33-133.7,124.05-52.24,43.36-114.92,80-183.66,86.88-74.85,7.49-138.49-42.38-186.45-95.23-21.45-23.65-39.92-50.38-53.38-79.39-13.76-29.68-13.51-66.19-29.91-93.67-7.86-13.17-25.2-8.2-30.34,4.12-25,59.94,37,149.57,73.72,192.38,46.63,54.41,115.16,111.3,189.51,116.37,75,5.12,149.93-28.73,208.85-72.4,59.4-44,123.87-103.58,159.55-169.32,4.56-8.42-5.46-20.27-14.19-13.79Z"/><path class="cls-2" d="M1901.75,1856.61c-127.13,106-263.38,200.11-392.63,303.38-127.22,101.66-256.06,217.21-331.21,364.36-11,21.61,20.84,39.3,32.73,18.37,82.91-146,204.76-259.31,335.06-362.89,126-100.12,263.43-188.52,379-300.95,15.3-14.87-7.41-35.27-23-22.27Z"/><path class="cls-2" d="M1189.05,2533.94c723-97.05,1436.6-248.51,2149.88-399.27,695.21-146.94,1391.69-292.41,2096.91-383.11q613.71-78.93,1232.55-97c25.95-.73,26.87-40.44.54-39.88-724.31,15.14-1444.6,111.92-2156.38,242.47-702.73,128.9-1399,290-2099.71,429.1-409,81.21-819.67,155.4-1232.2,216.35-21.23,3.13-12.38,34.17,8.41,31.38Z"/><path class="cls-2" d="M1946,1897.59c531.78-21.42,1061.94-54.28,1591.88-104,444-41.7,887.42-89.33,1332.13-123.23,320.32-24.41,641-40.69,961.73-57.39,24.94-1.3,26-39.39.52-38.51-523.41,18-1046.29,58.89-1567.54,108.79-446.21,42.72-891.91,90.18-1339,123.62-326,24.39-652.73,45.15-979.33,58.78-20.79.87-21.53,32.84-.43,32Z"/><path class="cls-2" d="M2182.53,1624c-11.41,56.18-14.27,117.9,0,173.86,4.89,19.21,38,15.86,36.15-4.75-4.92-56.16-7.83-108.26-.54-164.51,2.61-20.12-31.65-24.14-35.61-4.6Z"/><path class="cls-2" d="M2193.1,1608.25c97.64-59.1,181-135.37,266.58-210.08,86.34-75.41,179.09-135.55,285.08-180,23.29-9.76,3.15-42.61-19.68-33-102.81,43.14-194.32,101.1-278.6,173.77-88.61,76.41-175,152.75-269.95,221.52-16.91,12.24-1.88,39,16.57,27.82Z"/><path class="cls-2" d="M3985.16,1333.68c749,60.54,1496.37,141.33,2241.68,236.73q210.34,26.92,420.33,56.26c24.22,3.35,35.7-33.35,10.58-37.09-652.87-97.37-1310.36-169.12-1967.22-233q-352.15-34.26-704.83-62.75c-26-2.09-26.57,37.77-.54,39.88Z"/><path class="cls-2" d="M3985.17,1333.39c25.65,0,26.45-39.31.53-39.31-25.66,0-26.45,39.31-.53,39.31Z"/><path class="cls-2" d="M2815.22,1229.13c196.13,33.1,398.25,41.18,596.17,57.79,25.65,2.15,26.28-37.33.53-39.42-195.25-15.85-393.13-25-587.42-50.88-21.05-2.8-31.45,28.76-9.28,32.51Z"/><path class="cls-2" d="M2217,2433.41c-9.27,60.24,2.78,127.14,12.21,187.3,9,57.59,6.61,116.26,6.79,174.35.08,25.9,40.21,25.63,40.73,0,1.21-59.2,2.27-119.24-6.71-177.95-9.21-60.15-6-125.49-21.1-183.85-3.8-14.67-29.39-16.3-31.92.11Z"/><path class="cls-2" d="M2211.29,2790.92c590.73-135.39,1180.8-273.4,1771.91-407.22,560.49-126.88,1119.91-258.77,1673.7-412.64,340.56-94.63,679.3-196.45,1014.63-308.27,24.6-8.2,14.66-46.44-10.27-38.34q-868,282.29-1754,501c-557.49,137.69-1118.64,259.77-1678.51,387.23-342.85,78.06-686.44,155.13-1026.39,245.13-21.88,5.79-13.07,38.18,8.89,33.15Z"/><path class="cls-2" d="M4020.32,1613.87c439.91-10,879.58-16.16,1319.6-10,163.95,2.3,327.87,5.93,491.8,9,25.09.47,25.79-37.72.52-38.39-474.21-12.65-948.6-16.4-1422.92-7.77q-194.25,3.54-388.47,8.26c-25.35.58-26.2,39.49-.53,38.91Z"/><path class="cls-2" d="M2214.13,1578.48c444.88,54.71,894.36,51.65,1341.83,44.76,25.36-.39,26.19-39.31.52-38.91-446.45,7-897.44,12.25-1341.92-37.32-20.5-2.28-20.69,29-.43,31.47Z"/><path class="cls-3" d="M919.39,238.1c-99.83,67-221.38,136.23-284.13,242.34C622.63,501.79,654.4,518,668,498.8c38.39-54.26,85.27-96.81,138.91-135.74,44.47-32.28,93.44-60.77,132.16-100.14,12.61-12.81-4.11-35.25-19.66-24.82Z"/><path class="cls-3" d="M649.66,498.93c296.52,4.81,591.22-32.52,886.2-57.39,295.52-24.91,589.82-33.19,884.32,7.8,25.07,3.49,37.17-34.28,11-38.52C1973.83,336.68,1512,409,1054.79,444.71c-134.61,10.52-269.7,18.22-404.69,21.67-21.2.54-21.94,32.21-.44,32.55Z"/><path class="cls-3" d="M932.3,275c176.37,27.52,353.54,42.26,531.86,48.43,176.8,6.11,351,24.22,527,41.71,21.68,2.16,27.71-34.45,5.57-37.85-173.57-26.63-349.57-37.26-524.92-43.05-179.11-5.9-356.64-22.34-534.86-40.68-18-1.86-23,28.57-4.63,31.44Z"/><path class="cls-3" d="M1018.06,163.42c-9.68,23.54-16.47,53.06-13.11,78.45,2.44,18.44,31.36,16,35.48-.12,2.89-11.31,3-23.21,5.07-34.72s4.9-23,7.5-34.44c5.27-23.2-26.46-29.82-34.94-9.17Z"/><path class="cls-3" d="M1041.77,166.66C1113.64,131,1163.55,65.82,1240.42,38.33c23.58-8.43,13.88-45.6-9.93-37.07-79.14,28.36-139.29,87.56-205.29,137.57-16.73,12.68-2.78,37.43,16.57,27.83Z"/><path class="cls-3" d="M1440.43,106.79c328.61,99.4,655.78,208.46,977,329.79,20.22,7.63,35.86-26.76,15.2-35.23-138.29-56.66-280.88-103.82-422.26-152C1825,186.19,1638.94,124.77,1451.42,68.26c-24.79-7.47-36.12,30.93-11,38.53Z"/><path class="cls-3" d="M1252.33,44.06c58.17,26.84,122.15,42.75,183.15,61.61,24.43,7.55,35.75-30.62,10.87-38.08-60.15-18-121.13-34.57-180.71-54.4-17.9-6-31.19,22.61-13.31,30.87Z"/><path class="cls-3" d="M968.09,501.65c-12,24.78-12.82,54.35-15,81.6-2,24.57-6.86,48.46-11.05,72.75-4.36,25.29,33.84,35.6,39.22,10.29,5.52-26,10.49-52.24,12.55-78.73,2.11-27,8.82-55.54,4.56-82.19-2.2-13.8-24.42-15.83-30.26-3.72Z"/><path class="cls-3" d="M947.62,666.76c131.1-11,261.85-30.54,392.62-45.15,117-13.08,234-25.6,350.8-39.85,247.9-30.25,495.84-68.38,738.36-128.84,25.41-6.34,15.12-44.05-10.27-38.34a7455.78,7455.78,0,0,1-746.11,129C1430.64,572.8,1183.33,586.94,943.41,633c-19.13,3.67-15.63,35.43,4.21,33.77Z"/><path class="cls-3" d="M1454.16,255.16c179.13,27.78,356,61.07,533.63,97.37,24.19,5,35.39-31.32,10.58-37.08-176.42-41-354.62-70.26-533.49-97.87-24.64-3.81-36.07,33.65-10.72,37.58Z"/><path class="cls-3" d="M1040.81,156.4c133.64,49.7,273,75.46,413.35,98.76,24.65,4.1,36-33.4,10.72-37.58-139.2-23-281.12-47.06-415.39-91.59-19.58-6.49-27.83,23.28-8.68,30.41Z"/><path class="cls-4" d="M1508.19,3569.35c-114,122.57-260.76,238.81-318.45,401.3-8.32,23.42,27.4,30.72,36.52,9.58,35.85-83.18,89.22-152.83,150.66-218.77,53-56.93,111.36-109.62,156.81-173.09,10.82-15.12-13.32-32.16-25.54-19Z"/><path class="cls-4" d="M1207.76,3982.36c636.35-123.84,1240.13-373.87,1876.4-498.49a4406.14,4406.14,0,0,1,557.58-72.23c25.74-1.7,26.92-41.2.54-39.88C2990,3404.39,2372.57,3631.25,1750.5,3808.87c-182.37,52.07-366.11,100.39-551.15,142.1-21,4.73-12.38,35.43,8.41,31.39Z"/><path class="cls-4" d="M1534.4,3604.16c208.89-16,416.47-34.5,623.53-67.6,153.79-24.58,306.8-53.27,461.34-73,132.3-16.92,265.13-27.25,397.74-41.14,24.44-2.56,26.24-40,.52-38.51-204.94,12-410.22,38.19-612.77,71.38-154.69,25.34-308.7,54-464.29,73.63-134.68,17-270.33,32.37-405.64,43.29-20.63,1.67-21.5,33.61-.43,32Z"/><path class="cls-4" d="M1626.91,3433.7c-5.47,33.24-7.72,72.32,2.23,105,5.79,19,36.46,16.13,36.15-4.75-.46-32.08-4.07-63.29-2.76-95.6.8-19.93-32.32-24.64-35.62-4.6Z"/><path class="cls-4" d="M1648.78,3429.88c88.5-69.35,139.44-171.05,238.34-229.15,21.82-12.81,2-45.78-19.68-33-99.55,58.54-164.44,156.55-242,239.56-15,16,7.26,35.26,23.37,22.63Z"/><path class="cls-4" d="M2187.66,3234.43c408.06,32.66,815.18,78.93,1221.26,130.35,73.51,9.31,146.9,19.26,220.17,30.27,24.17,3.64,35.72-32.8,10.58-37.09-363.29-61.91-733.28-95.82-1099.81-131.85-117.13-11.51-234.34-22.26-351.66-31.56-26-2.07-26.57,37.79-.54,39.88Z"/><path class="cls-4" d="M1945.43,3210c84.74,24.35,175.06,33.88,261.83,48,25,4.09,36.48-34.06,10.87-38.08-87.61-13.76-176.51-24.72-263.43-42.46-21.21-4.33-30.77,26.33-9.27,32.5Z"/><path class="cls-4" d="M1655,3903.87c-6.21,36.23.65,74.1,5.55,110.36,4.54,33.6,4.53,67.42,5.7,101.28.88,25.77,40.83,25.72,40.73,0-.13-35-.81-70.14-5.7-104.84-5-35.2-3.92-73.18-14.36-106.95-4.4-14.24-29-16.68-31.92.11Z"/><path class="cls-4" d="M1668.57,4120.6c265.55-81.76,528.8-172.3,793.32-257.45,249.84-80.42,498.76-163.84,743.27-259.44,150.45-58.82,299.77-121.23,446.14-189.64,23.85-11.15,3-44.63-20.35-34.17-255.41,114.36-514.2,218.84-778.51,310.9-245,85.34-492.88,162.14-739.69,242.07-151.6,49.1-304.55,96.66-453.06,154.58-20.49,8-13.16,39.94,8.88,33.15Z"/><path class="cls-4" d="M2250,3428.14c255.58-14,509.88-20.8,765.85-22.09,25.06-.12,25.83-38.05.52-38.39-255.81-3.49-510.53,7.48-765.84,21.57-25.24,1.4-26.17,40.31-.53,38.91Z"/><path class="cls-4" d="M1645.5,3415.08c200.66,27.65,402.6,22.08,604.5,13.06,25.28-1.13,26.18-40.07.53-38.91-199.16,9-401.85,17.19-600.48-5.09-17.7-2-22.66,28.44-4.55,30.94Z"/><path class="cls-2" d="M3629.39,1322.21q62.79,77.89,124.87,156.33c35.79,45.28,70.87,92.45,113.1,132,43.15,40.44,93.55,72.06,138.13,110.78,43.57,37.84,82.15,81,120.63,123.83,7.37,8.21,21.26,6.7,28.66-.33,34-32.27,84.9-29,117.27,3.74,17.59,17.78,45-9.07,28-27.74-45.84-50.43-125.57-49.95-173.95-3.73l28.66-.33c-38.63-42.75-77.38-85.66-121.05-123.4-44.73-38.65-95.4-69.89-138.88-110-45-41.56-82.21-90.94-121.5-137.72-40.69-48.43-80.82-97.31-120.95-146.21-13-15.81-36,6.76-23,22.79Z"/><path class="cls-2" d="M3944.16,1271.33c31.65,50.43,81.91,89.67,124.91,130,34.65,32.53,71.53,79.56,116.89,97.61,52.34,20.83,121,14.94,176.36,16.69,20.59.65,41.82,4.43,59.66-7.47,9.06-6.06,11.52-15.15,19.77-22.25,25.42-21.88,52.55-5,63.87,20.16,10.16,22.59,43.93,2.92,34.09-19.72-16.89-38.87-58.81-59.1-99.49-44.54-20.28,7.26-29.23,27.61-47.68,34.88-12.43,4.91-38.36-1-51.95-1.45q-26-.94-51.91-2.33c-38-2-79.47.06-110.87-24.75-24.79-19.59-47.07-43-70.27-64.36-46.86-43.23-93-87.13-139.48-130.74-11.94-11.2-33.23,3.4-23.9,18.25Z"/><path class="cls-2" d="M3510.2,733c-45.88-25.66-120.88,20.31-136.33,65.44-6,17.48,16.19,24.09,27.51,15.44,18.11-13.84,31.73-30.23,52.17-41.39,18.3-10,39.28-14.47,56.61-26.24,4.69-3.18,5.46-10.21,0-13.25Z"/><path class="cls-2" d="M1681,1850.35c-106-18.61-218.8-10.12-325.93-7.85-112.88,2.4-226.71,5.72-339,18.5-22,2.51-24.17,35.06-.47,35,112.92-.2,226.07-7.37,338.87-12.32,107.71-4.73,220.21-.57,326.38-21,6.17-1.18,6.48-11.25.11-12.37Z"/><path class="cls-2" d="M1926.53,1448.64c-74.78,3.29-150-4.67-224.77-7.85q-112.35-4.79-224.6-11.63c-25.06-1.52-25,35.51-.52,38a2240.7,2240.7,0,0,0,224.6,11.88c75.39.06,149.82-9.51,225-11.87,12.08-.37,12.45-19.07.25-18.53Z"/><path class="cls-2" d="M1185.21,2353c-45.36-.79-89.24-3.73-134.85-1.39-45,2.3-90.2,5.06-135,10.09-21.48,2.41-23.5,34.52-.46,34.1,92.24-1.68,181.62-13.39,272.31-26.84,9.43-1.4,7.08-15.8-2-16Z"/><path class="cls-2" d="M1578.17,1644.4c-84.21-7-166-16-250.9-16.17-83.67-.12-167.4.78-251,4-163.52,6.33-328.84,14.2-490.54,40.56-18.24,3-14.5,32.55,3.95,31.69,164.62-7.65,328.68-24.34,493.41-31,81.21-3.31,162.4-6.23,243.67-7.43,84.06-1.25,167.53-8.44,251.28-11.1,6.94-.22,7-10,.14-10.52Z"/><path class="cls-2" d="M3446.87,791.13c-46.26,45.75-58.07,111.23-39.81,173,19,64.23,63.11,137.25,115.4,179.77,47.48,38.61,109.3,57.69,170.19,49.8,56.71-7.35,124.37-40.24,150.58-93.88,7.84-16-10.95-29.2-24.22-18-38.65,32.56-70.92,62.44-122.91,71.87-54.52,9.89-114.8-6.79-156.32-43.47-40.1-35.41-75.43-93.07-94.23-143.13-21-55.84-10.22-112.93,15.63-165.24,4.47-9-6.78-18.1-14.31-10.66Z"/><path class="cls-3" d="M751.7,135.74C595.25,103,437.11,82.35,277.17,79c-22.1-.46-22.62,32.86-.46,33.76,156.5,6.31,312.62,22.59,466.25,53.62,20,4,29.26-26.33,8.74-30.63Z"/><path class="cls-3" d="M675,312.52c-113.94-17.16-229.13-28.38-343.86-38.88-22.37-2.05-22.19,31.26-.46,34C443.58,321.76,557.06,335.4,670.57,343c17.38,1.15,22.37-27.74,4.47-30.43Z"/><path class="cls-4" d="M1385.17,3463.46c-250.92,54.4-505.19,87.25-761.11,105.85-22.36,1.62-23.48,35.89-.47,34.73,259.25-13.08,516.77-52.66,769.57-110.74,19.86-4.56,11.79-34.13-8-29.84Z"/><path class="cls-4" d="M1244.84,3697.47c-156,30.47-312.26,59.7-467.89,92.32-22.06,4.63-13,37.08,8.82,32.93,156.18-29.62,311.61-62.6,467.35-94.36,20.67-4.22,12.24-34.9-8.28-30.89Z"/><path class="cls-3" d="M415.4,443.45c-131.94,19.09-264.42,11-394.51-16.37-20.61-4.33-30.1,26.41-9,31.62C147,492.1,286.17,494.08,423.2,472.57c19.67-3.08,11.52-31.92-7.8-29.12Z"/></g></g></svg>