<svg xmlns="http://www.w3.org/2000/svg" viewBox="0 0 2964.45 3330.25"><defs><style>.cls-1{fill:#188C8C;}.cls-2{fill:#eceded;}.cls-3{fill:#d9dadb;}.cls-4{fill:#594F56;}.cls-5{fill:#C2F2ED;}</style></defs><g id="Calque_2" data-name="Calque 2"><g id="Ebene_2" data-name="Ebene 2"><path class="cls-5" d="M2352.84,581.88c-22.26,20.68-37.35,41.73-49.55,69.85-7.29,16.82,10.6,29.44,24.75,18.43,32-24.92,63.8-50.14,95.66-75.25l-27.09-20.17c-18,32.91-35.18,66.16-52.24,99.55-8.67,17,12.14,32,26.12,19.44,41.83-37.58,86.28-71.14,132.65-102.91l-20.35-15.2c-11.39,54.64-61.88,88.61-84.5,138.31-6.26,13.73,6.56,25.8,20.12,19.55C2447,720.28,2460.67,697,2480.7,674c27.07-31.05,59.45-55.31,95.65-74.79l-23.3-17.41c-15.76,66.74-77.79,108.83-89.78,177.42-2.82,16.17,15.81,28.59,28.58,16,54.1-53.2,107.65-107,162.26-159.68l-25.78-19.19c-34.5,60.27-73.68,116.63-119.32,169-15,17.28,7.49,37.23,24.59,23.81,64.77-50.86,131.53-100.48,192.73-155.61,12-10.76-4-31-17.31-21.85-69.19,47.46-134.18,101.65-200,153.65l24.59,23.81C2581,734.44,2622.26,676,2656.67,612.26c8.78-16.25-12.51-32.34-25.77-19.18C2577,646.52,2522,698.88,2467.66,751.81l28.57,16c11-67.75,72.5-111.13,87.48-178a15.86,15.86,0,0,0-23.3-17.41c-28.89,16-56,34.64-79.63,57.74-26,25.34-43.76,62.7-77.16,78.52l20.12,19.55c23.34-52.7,74.08-87.3,85.81-145.57,2.22-11-9.71-22.31-20.34-15.2C2440.42,600,2393.49,635.22,2347,671l26.11,19.44c18.14-32.81,36.09-65.65,53.32-98.95,9.34-18.05-12.43-32.26-27.1-20.17-31.21,25.73-62.5,51.37-93.55,77.29l26.33,14.78c9.19-26.7,19.18-43.7,37.88-64.9,10.29-11.68-5.79-27.11-17.12-16.57Z"/><path class="cls-5" d="M2189.73,1404.7c32.56-17.83,62.77-40.25,93.56-61l-21.63-16.16c-12.26,29.41-17.42,57.21-17.93,89-.22,13.74,16.85,19.31,26.22,10.53q68.58-64.24,137.21-128.46l-24.64-18.34c-21.21,44.94-42.57,89.82-63.55,134.87-5.91,12.68,3.92,27.73,18.63,23.84,34.57-9.14,54-37.66,77.55-63.15l98.4-106.64-28.07-15.75a1113.84,1113.84,0,0,1-57.41,157.16c-8.84,19.44,19.24,35.58,29.16,16.37a425.4,425.4,0,0,1,109.15-135.38L2538,1275.68c-13.84,46.2-29.07,89.69-51.58,132.6-11.49,21.9,18.29,36.4,32.29,18.11a1237,1237,0,0,1,112.81-128.47l-32.77-18.39c-10.13,43.65-20.66,84.64-39.38,125.64-11.46,25.09,21.24,43,37,20.76,27.72-39.14,59.1-72.55,98-100.7q-15.8-8.88-31.61-17.74c-1.4,32-8.09,60.26-20.17,89.6-9.29,22.56,22.23,32.3,36.57,20.52q18.81-15.46,37.46-31.11c.54-.46,38.41-30.08,35.79-16.14-5,26.56,35.78,37,41,10.75s5-64.32-28.64-70.53c-39.57-7.3-90.79,55.59-116.53,77.06l36.57,20.51c13-33.09,19.18-65.22,20.11-100.62.4-14.89-18.69-27.22-31.61-17.74-44.64,32.74-82.42,69.75-113.9,115.38l37,20.76c20.06-45.4,35.63-91.88,40.93-141.42,1.87-17.45-22.58-24.69-33.5-13.45a1374.19,1374.19,0,0,0-117.36,137.22q16.14,9.06,32.29,18.11c23-45.24,42-92.23,52.06-142.11,3.48-17.25-15.5-26.69-28.41-16a451,451,0,0,0-114.26,142.3l29.16,16.37a1169.48,1169.48,0,0,0,60.63-165c4.48-15.83-16.77-28-28.07-15.75l-72.09,78.28c-22.94,24.91-55.13,74.13-88.55,83l18.63,23.84c20.81-45.18,41.25-90.54,61.83-135.83,7.14-15.73-11.24-31-24.64-18.34q-68.28,64.54-136.73,128.92l26.21,10.52c.24-29,5.57-54.63,15.66-81.57,5.84-15.58-14.75-21.5-24.66-13.84-29.23,22.61-59.92,44.14-86.95,69.32-7.91,7.37,2.27,19.11,11.23,14.19Z"/><path class="cls-2" d="M88.58,3036.55c-31.81,11.81-65.76,26.48-81,54.7-21.86,40.38,6.66,91.45,48.92,114.37s385.35,120.29,434.39,121.8c604.7,18.64,921.31-58.13,1520.48-135.42,36.91-4.76,75.66-10.61,104.81-32,330.46-242-743.82-328.86-872.75-320.8C866.2,2862.81,438.64,2906.55,88.58,3036.55Z"/><path class="cls-3" d="M1207.87,2990.86a1262.29,1262.29,0,0,0-395-14.05c-50.72,6.22-110.2,22.82-124.28,68-11.31,36.29,15,75.37,50.51,94.26s78.12,22.19,119.13,24.34a3491.75,3491.75,0,0,0,521.57-11.8c46.57-4.55,100.39-14.56,121.37-53,27.71-50.83-25.32-109.94-82.94-130.65-86-30.92-190.34-13.47-259,43.32"/><path class="cls-1" d="M763.56,1948.24c58.69-40.15,117.77-79.78,178.54-116.74l-31.5-30.62c-54.06,80.29-107.3,161.14-160.83,241.78-17.44,26.27,20.12,48.34,41.07,30.58q104.31-88.47,208.24-177.42l-42-31.27q-99.18,130.76-197.67,262c-16.59,22,15.42,48.32,36.45,35.42a1766.18,1766.18,0,0,0,324.56-255.53L1083,1870.29q-149.76,164.64-299.67,329.12c-23.42,25.72,11.44,56,37.12,36q242.65-189.42,485.42-378.68l-37.11-35.93q-262.29,290.91-524.41,582c-22.47,25,12.33,57.94,36.78,35.61l508.72-464.49-42.8-24c-71.81,221.43-328.56,310.92-426.37,518.39-12.9,27.35,18.32,49.53,41.09,30.6,143.7-119.48,288.43-238,430.21-359.73l-39.39-29.33c-75.05,120-151.88,238.94-228.27,358.12-14.24,22.21,17.18,42,35,26.06q115.28-103.24,231.19-205.75l-36.85-20.68c-17.91,71.64-45.51,137.64-80.85,202.41-11.49,21,18.9,46,34.71,25.84,6.89-8.78,13.51-20.09,22.61-26.57,13.41-9.54,61.27-31.23,60,5.21-.78,23,32.73,21.53,35.45,0,4.16-32.88-20.57-59.74-53-64.34-40.88-5.81-72.47,27.08-96.33,55.39l34.71,25.85c39.28-66.29,66.71-138,85.19-212.68,5.46-22.06-20.87-34.91-36.85-20.68q-115.56,103-231.53,205.44l35,26.06c77.39-118.67,154.36-237.62,233.08-355.42,17-25.52-19.26-45.58-39.39-29.32C1111.12,2222.23,968.35,2343.2,824.81,2463l41.09,30.59c99.58-212.22,356-301.69,430.56-530.8,8.35-25.67-25.28-40-42.8-24l-509.27,464,36.78,35.61q262.46-290.74,524.74-581.65c23.27-25.81-11.4-56-37.11-35.93q-242.71,189.33-485.43,378.66l37.12,36q150-164.45,299.91-328.88c22.91-25.09-13.44-60-37.36-36.19a1705.25,1705.25,0,0,1-314,246.75l36.45,35.42q98.94-130.93,197.75-262c19.34-25.76-20.94-49.4-42-31.28q-103.66,89.16-207.4,178.23L794.93,2068c51.92-81.53,104.14-162.88,155.53-244.75,12.1-19.28-12.49-43-31.51-30.62-61.25,40-120.39,82-176.79,128.57-15.44,12.74,5,38.24,21.4,27Z"/><path class="cls-4" d="M1149.32,26.87C990-48.89,807.28,48.52,689.37,158.19,562,276.66,498.39,441.46,446.15,603.38c-93.85,290.91-243.82,654.87-78.72,948.93,87.7,156.18,259,243.81,426.05,289.57,155.95,42.71,326.88,49.1,482.91,3.35C1633.25,1740.58,1829.66,1318,1783,965.47c-13.47-101.78-47.75-199.88-87.63-294.13C1662,592.27,1618.81,514.82,1549.22,462c-155.62-118.06-405.63-95.22-561.15,9-34.49,23.12-4.35,73.92,32.39,54.4,137.86-73.26,340-109.52,477.29-12.92,113.65,80,166,255.86,196.49,384.35,42.07,177.15,14.25,358.53-64,521.63-72,149.94-163,280.74-322.58,343.75-132.37,52.27-282.75,57.1-421.52,31.13-151.77-28.41-315.47-91.52-417.07-212.83-187.82-224.28-89.5-562.63-5.27-808.28,54.77-159.74,93.64-330.95,187.66-473.64C748.86,150.78,950.12-1.84,1135.58,58.71c18.53,6.05,32.09-23.11,13.74-31.84Z"/><path class="cls-4" d="M758.34,1813c-7.08,107.86-6.82,216.2-12.93,324.18q-4.59,81-11.25,161.83c-4.37,53-14.58,108.41-11.49,161.46,1.78,30.67,46.82,38.52,55.4,7.16,27.38-100.07,23.18-217,26.94-320.27,4-110.84,7-223.81-3.67-334.32-2.59-26.87-41.2-27.45-43,0Z"/><path class="cls-4" d="M785.87,2482.76c97.9,26.72,198.56,43.88,299.07,57.55,89.28,12.14,193.26,34.56,282.33,21.29,33.18-4.95,29.33-53.27.55-61.41-42.09-11.9-87.38-9.81-130.88-12.37-51-3-102-7.4-153-10.38-98.34-5.75-196.51-13.6-295-15.21-12-.2-14.73,17.33-3,20.53Z"/><path class="cls-4" d="M1359.44,2399.59c26.1-104.6,14.57-219.38,15.37-326.4.42-55.76,1.21-111.54,2.75-167.28,1.48-53.9,10-110.85-2.82-163.66-6.58-27-43.33-22.9-51.64.17-17.28,48-14.38,102.45-15.95,153-1.85,59.24-2.69,118.47-2,177.73,1.16,106.64-2.86,225.48,35.32,326.54,3.18,8.41,16.51,10,19-.07Z"/><path class="cls-4" d="M722.42,1820.22c-119.48,53.91-215.6,156.49-276.68,271-24.51,46-46.48,96.41,1.35,135.4,27.3,22.26,62.29,37.53,92.69,55,42.66,24.53,84.82,49.39,129.47,70.16,33.24,15.45,60.37-28.23,29.35-49.42-49.22-33.64-101.94-61.64-153.85-90.86-33-18.57-74.13-33.81-55.25-76.76,10-22.7,22-44.72,34.76-65.95,54.23-90.23,129.94-160.64,213-223.76,15.11-11.49,2.62-32.72-14.81-24.86Z"/><path class="cls-4" d="M844.64,2500.94c-45.45,176.83-28.13,390.83,48.79,556.26,13.38,28.77,59.42,8.05,51.74-21.46-23-88.42-46.66-176-57.23-267-10.27-88.51-5.6-173.77-1.42-262.39,1.13-24-36-28.15-41.88-5.41Z"/><path class="cls-4" d="M885.6,3012.7c-5.11,2.53-22-4.36-29-3.57-13.74,1.55-27.22,7-41.25,8.49-26,2.71-51.88,0-77.69,4.08-22.94,3.59-29.37,41.58-7.16,51,29.48,12.43,61.26,11.25,92.18,3.75,13.8-3.35,27.16-8.59,40.13-14.32,6.41-2.84,13.9-5.16,18.88-10.38,5.51-5.76,7.22-19.62,13.29-23.26,10.44-6.26,1.25-21-9.37-15.74Z"/><path class="cls-4" d="M1216.85,2563.21c-5.73,28,3.32,50.09,11.38,77.22,10.5,35.31,19.75,70.79,25.49,107.23,12.58,79.85,9.32,160.94-4,240.4-2.47,14.67,1.72,27.53,14.76,35.58,65.93,40.68,137.87,52.7,213.79,39.23,39.8-7,23.47-65.79-15.85-59.17-59.25,10-114.92-3.17-165.37-34.92l14.76,35.57a725,725,0,0,0,1.82-244.35c-9.6-59.31-25.31-169.12-83-202.38-4.84-2.79-12.53-.28-13.73,5.59Z"/><path class="cls-4" d="M825.32,418.77C982.45,297.69,1157.69,200.18,1362.07,223c41.76,4.67,53.37-66.49,10.73-73-225.54-34.29-399.09,124.6-562.32,254.35-10.66,8.47,4.48,22.36,14.84,14.37Z"/><path class="cls-4" d="M1776.35,1174.68c54.25-24.25,123.25,41.71,81.2,93-35.69,43.57-101.19,40.1-151.58,43.25-29.46,1.84-34.86,39.4-7.29,49.6,81.8,30.25,212-11.21,230.51-104.82,18.3-92.32-94.27-166.55-171.59-112.53-20,14-3,41.19,18.75,31.48Z"/><path class="cls-4" d="M364.15,1070.64c-29.5-60.9-119.3-68.84-163.92-20.18-63.44,69.17,1.18,182.63,71.36,218.06,21.05,10.64,51.88-12.65,36-35.49-25.61-36.8-84.4-80.47-69.7-132.21,11.33-39.89,71.16-41.49,93.88-11.44,14,18.57,42.92,3,32.39-18.74Z"/><path class="cls-4" d="M1063.9,792.12c-21.88,42.08-29.14,85.42-22,132.25,6.11,39.73,73.68,23.56,62.87-16.84-8.81-32.94-6.57-64.81,6.72-96.19,11.53-27.21-34.42-44.63-47.64-19.22Z"/><path class="cls-4" d="M1331.56,837.56c1,22.18,1.51,44.11-2.53,66.05-3.86,20.93-12.44,40.23-14.94,61.39-3.83,32.5,42.43,37.55,57.17,14.89,26.07-40.09,21.4-105,6.47-148.39-8-23.3-47.36-21.26-46.17,6.06Z"/><path class="cls-4" d="M681.92,1134.37c-46.29,110.43-10.19,246.86,66.84,334.62,64.6,73.6,232.13,156.11,304.85,48.6,12.81-18.94-8.66-45.71-30-38.44-48.74,16.58-85.38,29.57-137.15,10.52-44.81-16.49-82.72-49-111.17-86.93-56.8-75.79-69.73-166.54-54.78-258.25,4.17-25.59-28.86-33.27-38.56-10.12Z"/><path class="cls-4" d="M1365.72,1752.83c83.22,58.35,172.65,108.83,260.67,159.56,47.08,27.12,94,54.53,141.32,81.24,26.22,14.8,56.85,38.17,88.86,35,30.85-3.11,49.69-26.36,69-47.93,37-41.43,73.63-83.19,110.45-124.78,69-78,138.31-155.75,207-234l-40.48,5.56c67.47,36.5,150.05,30.8,205.16-24.77,23.28-23.47-8-65.67-36.27-45.81-42.17,29.59-88.32,39.42-135.14,13.74-12.24-6.72-30.75-5.4-40.48,5.56-59.95,67.49-119.4,135.43-179.06,203.17q-44.74,50.81-89.5,101.62c-16.06,18.23-32,36.58-48.19,54.71-15.53,17.4-17.18,27.06-43,22.81-14.56-2.39-41-21.56-54.24-28.36-18.15-9.35-36.4-18.5-54.6-27.75-42.47-21.58-84.79-43.49-127.42-64.75-73.94-36.86-148.54-74.27-225.23-105.1-12.51-5-18.54,13.5-8.78,20.35Z"/><path class="cls-4" d="M1985.12,1527.67c43.19,39.39,98.39,55.61,154.71,66.41,77.73,14.91,156.44,24.66,235.34,30.69,153.64,11.77,325.52,18.11,476-19.93,27.91-7,23-49.55-6.16-49.42-143.5.62-285,18.57-429.13,12.07-69.9-3.15-139.6-9.25-209.06-17.73-68.43-8.36-138-15.21-196.65-54.16-19.07-12.66-42.34,16.32-25.08,32.07Z"/><path class="cls-4" d="M2066.16,281.75c-76.73,85,7.36,216.67,54.68,295.19,33.65,55.84,73.29,108.2,116.44,157C2279.82,782.07,2354,833.14,2366,899.89c13.36,74.22-72.93,107.44-122.81,141.32A569.72,569.72,0,0,0,2113,1163.4c-70.62,90.93-118.36,206.23-116.41,322.59.42,25.36,42.27,32.74,46.39,6,19.41-126.11,62.51-242.09,152.61-335.35,42.22-43.7,91.75-72.41,141.34-106.23,40.25-27.45,78-61.18,87.44-111.16,21-111.2-101.09-193.17-164-265.91C2215,621,2174.67,563.57,2139.7,503.8c-31.66-54.09-98-147-55.23-208.41,7.58-10.88-9.64-23.24-18.31-13.64Z"/><path class="cls-4" d="M2909.73,342.36c33.09,128.83-7.92,273-106.64,362.44-46.48,42.1-101.37,73.14-153.47,107.51-39.24,25.88-100.52,58.64-121.87,102.45-19.7,40.41,3.81,76.71,34.38,103.55,47.88,42,98.53,79.81,143.14,125.63,104.17,107,153.39,229.92,136.05,379.11-2.53,21.85,33.42,30.73,42.1,11,50.72-115.57,6.75-248.76-63-347-36.9-51.94-81.38-97.69-129-139.82-26.25-23.22-54.12-44.39-80.73-67.14-12.9-11-32-22.92-24.73-44.62,2.76-8.21,27.91-24.57,34-29.33,95.69-74.92,212-124.35,282.86-227.49,70.7-102.86,79.12-229.2,33-343.22-6.19-15.27-30.35-9.93-26,7Z"/><path class="cls-4" d="M2057.33,401.65c145,5.27,290,6.75,434.46,22.37,149.74,16.19,294.1,48.88,441.82,75.88,30.75,5.62,44.17-37,13.39-46.94-141.46-45.89-296.64-66.46-444.44-79.42-149.08-13.09-299.77-16.23-448.21,4.25-14.24,2-10.43,23.37,3,23.86Z"/><path class="cls-4" d="M1988,1423.55c139.77,44.28,293.55,58.59,439.62,58a1846.49,1846.49,0,0,0,224.06-14.5c71.43-9,149.95-16.66,217.21-43.2,20.72-8.18,21.79-44.73-5.28-42.32-70.78,6.3-140.52,26.12-211.24,35a2022.92,2022.92,0,0,1-224.08,15.31c-147.44,1.93-290.52-16.58-436.36-35-16-2-18.29,22.18-3.93,26.72Z"/><path class="cls-4" d="M2309.78,623.57c160,40.28,319.33,78.84,483.75,38.06,10-2.48,14.31-19.17,3.33-23.68-85.33-35.08-161.23-74.83-254.46-86.57-90.75-11.43-181.38-2.83-269.18,22.15-10.86,3.09-17.75,16.25-11.22,26.46,12.86,20.11,25.05,26.92,49,25.76,21-1,21.51-30.62.43-32.1l-17.76-12-11.22,26.46a680.74,680.74,0,0,1,248.42-23.66c84.44,7.62,182.5,26,252.61,76l3.33-23.69c-156.73,29.15-317.6.1-471.89-31.3-11.84-2.41-17.3,15.11-5.18,18.16Z"/><path class="cls-4" d="M2273.65,619.79c42.85,80.33,213.7,119.58,174.24,229.39-6.63,18.45,19.94,25.66,29.67,12,84.84-119.47-136.24-186.32-182.69-253.64-8.69-12.59-28.62-1.59-21.22,12.28Z"/><path class="cls-4" d="M2757.1,663.78c-55.65,20.62-108.71,45.09-157.67,79-42,29.1-96.92,65.91-118.63,113.13-6,13.08,7.27,29.88,21.35,20.75,43.26-28,75.29-73.81,116.93-105.45a666.5,666.5,0,0,1,147.38-85.27c12.8-5.32,3.7-27-9.36-22.15Z"/><path class="cls-4" d="M2127.89,1397.59c67.41-15.85,133.62-46.24,197.79-72.09,53.56-21.57,104.78-46.48,146.05-87.67l-24.12,3.31c50.61,33.57,103.25,60.06,163.34,71.8,29.3,5.72,60.12,4,89.07,10.57,39.89,9,67.81,35.69,95.85,63.71,17.32,17.31,45.13-9.5,27.59-27.3-39.68-40.27-76.23-68.37-133.6-75.37-80.59-9.84-152.6-21.09-218.11-74.28-8.82-7.16-19.4-7.07-28.15.32-94.28,79.59-219.64,105.89-321.94,172.23-7.8,5.06-3,16.94,6.23,14.77Z"/><path class="cls-4" d="M2473.52,862.87c-38.77,109-55.12,224.21-32.36,339.22,3.91,19.74,36.43,15.24,35.74-4.69-3.82-110.55-4.22-220,16-329.46,2.33-12.61-15.08-17.05-19.34-5.07Z"/><path class="cls-4" d="M2510.35,1188.73c21.3,2.28,43.51,6.13,64.93,3.46,13.76-1.72,21.08-23.79,3.93-26.73-22.58-3.87-45.85-1.3-68.54.13-15.27,1-15.35,21.53-.32,23.14Z"/><path class="cls-4" d="M2385,1188.28c-13.66-19.18-35.45-30.47-59.22-25.47-26.25,5.52-43.66,26.77-47.06,52.62-3.23,24.58,34.84,26.64,41.75,5.39,5.36-16.47,34.53-26.83,48.33-16.57,9.16,6.8,22.81-6.69,16.2-16Z"/><path class="cls-4" d="M2386.5,1221.55c-10.3,3.34-20.7,7.48-31.27,9.84-8,1.77-12.17,10.93-9.11,18.18,3,7,12.7,11,19.47,6.34,8.91-6.21,19-11.08,28.48-16.43,9.69-5.48,3.33-21.46-7.57-17.93Z"/><path class="cls-4" d="M2510.81,1131.67l-5.4-11.83c-4.07-8.92-17.08-9.46-23.88-4.26a15.73,15.73,0,0,0-1.68,23.77l9.12,9a14.06,14.06,0,0,0,18.21.87c5.7-4.5,6.57-11.11,3.63-17.54Z"/><path class="cls-4" d="M2509.11,1229.88c8.67,3,17.23,6.35,26.17,8.46s19.93-2.92,22.21-12.5c2.11-8.84-2.73-19.78-12.49-21.59-10.46-1.94-21-2.53-31.62-3.37-7.28-.58-14.1,6-15,12.84-1,7.71,3.56,13.66,10.72,16.16Z"/><path class="cls-4" d="M2343.1,1399.89l8,3.36c7,2.94,14.66,4.19,21.55-.21a22.31,22.31,0,0,0,9.89-12.6c3.63-12.75-6.65-27-20.34-26.38l-9.08.42c-8.2.39-16.86,5.56-18.88,14.06-1.81,7.6.94,18,8.85,21.35Z"/><path class="cls-4" d="M2455.91,1368.11l17.3,6c14.38,5,29.91-7,32-20.93,2.23-15.1-9.62-28-24.74-28.26l-18.14-.3a22.76,22.76,0,0,0-22.47,19.26c-1.7,11.5,5.49,20.57,16.08,24.24Z"/><path class="cls-4" d="M2633.72,1391.73c19.07,0,19.66-29.22.4-29.22-19.07,0-19.66,29.22-.4,29.22Z"/><path class="cls-4" d="M2507.25,733.41c17.18,0,17.71-26.32.36-26.32-17.18,0-17.71,26.32-.36,26.32Z"/><path class="cls-4" d="M2491.85,609.68c17.55,0,18.1-26.9.36-26.9-17.55,0-18.1,26.9-.36,26.9Z"/><path class="cls-4" d="M2606.22,653.05c23.4,0,24.13-35.87.48-35.87-23.41,0-24.13,35.87-.48,35.87Z"/><path class="cls-4" d="M2077.37,291.24c135.5-23.16,274.25-17.43,410.91-8,139.25,9.65,275.7,37.37,414.1,51.24,19.88,2,21.66-26.39,4.76-32.41-137.25-49-293.86-63.46-438.56-71.1-129.46-6.82-279-15.47-399.67,40.2-12.31,5.68-3,22,8.46,20Z"/></g></g></svg>