<svg xmlns="http://www.w3.org/2000/svg" viewBox="0 0 2037.84 3432.43"><defs><style>.cls-1{fill:#188C8C;}.cls-2{fill:#eceded;}.cls-3{fill:#594F56;}</style></defs><g id="Calque_2" data-name="Calque 2"><g id="Ebene_2" data-name="Ebene 2"><path class="cls-1" d="M813.86,520.28c8.59-13.18,16.41-26.86,25.22-39.91.42-.63,12.18-16.56,12.22-16.49-9.57-18.93-18.41,22.35-19,24.33a810.15,810.15,0,0,1-63.83,156.72c-10.19,19,19,35,29,16.26a825.53,825.53,0,0,0,59.25-139.12c6.76-21.25,21.53-52.62,11.6-74.64-24.49-54.3-72.13,39.24-83.44,56.59-11.82,18.14,17.46,34,29,16.26Z"/><path class="cls-1" d="M717.1,587.27q-27,49.89-56.2,98.5c-11.26,18.73,17.19,33.57,29,16.26l67.62-99.13c12.2-17.89-17.11-33.68-29-16.27L660.9,685.77l29,16.26q29.24-48.6,56.19-98.5c10.28-19-18.9-34.92-29-16.26Z"/><path class="cls-1" d="M793.07,451.52,816,419.19l-30.74-3.78c3.94,18.44-1.86,36.34-8.83,53.31-3.45,8.39,3.74,17.95,11.64,20.13,9.46,2.61,17.3-3.34,20.71-11.65,9.34-22.72,14.18-46.14,9-70.5-3.27-15.28-23.14-14.5-30.74-3.78l-22.94,32.34c-12.51,17.64,16.83,33.41,29,16.26Z"/><path class="cls-1" d="M630,578.58c-30.56,47.71-57.86,97-74,151.54-5.68,19.23,20.38,26.89,30.67,12.38L687,601.05c12.52-17.65-16.82-33.41-29-16.26L557.7,726.23l30.67,12.38c15.38-52,41.53-98.34,70.63-143.77,11.68-18.24-17.59-34.06-29-16.26Z"/><path class="cls-1" d="M710.74,420c13.36-16.09,29.4-36.83,52.44-35.55l-16-20.69a414.79,414.79,0,0,1-18.15,50.6c-3.59,8.33,3.84,18,11.64,20.13,9.57,2.64,17.16-3.4,20.71-11.65a416.47,416.47,0,0,0,18.15-50.6c3.1-10.86-5.42-20.1-16-20.69-32.86-1.82-57.13,22-76.62,45.46-13.74,16.54,10.09,39.41,23.74,23Z"/><path class="cls-1" d="M507.18,495.43c44.33-74.19,101.32-139.17,170.5-191.13L654.77,282C598.23,393.06,533,500.92,501.53,622.56c-3.95,15.26,17,29,28,15.74q49.26-59.35,98.53-118.72c13.73-16.54-10.1-39.41-23.74-23L505.83,615.31l28,15.74c30.79-119,94.6-224.18,149.89-332.75,6.87-13.5-8.61-33-22.91-22.26A704,704,0,0,0,478.19,479.16c-11.1,18.59,18.12,34.45,29,16.27Z"/><path class="cls-1" d="M565.6,1276.77c64.15-82.74,123.52-169.16,183.17-255.22l-36.85-14.86c-35.28,105-68.89,210.48-103.19,315.75-7.05,21.63,27.51,35.65,37.21,15Q755.62,1104,865.6,870.76l-37.53-15.14q-49.67,183.57-99.31,367.16c-6.93,25.65,32,35.17,39.83,10.45C827,1047.5,903.45,868.52,998.18,698.38l-37-14.92c-44.94,139.64-95.75,277-149.79,413.33-8.33,21,26.43,34.25,36.44,14.71a5740,5740,0,0,0,250.94-561.06l-38.45-5c-16.51,148.13-68,288.55-119,427.61-8,21.75,28.25,36.13,37.72,15.22,84.44-186.34,176.7-369.25,273.54-549.44l-37-9.65A861.58,861.58,0,0,1,1079.89,785l34.91,19.59q123.79-237.39,247.22-475l-38.13-9.93a1752.35,1752.35,0,0,1-58,283.1c-7.23,24.87,25.63,33.58,39,15.74,59.39-79.2,103.4-167.54,132.43-262.12,8.17-26.65-33.86-37.05-41.85-11A833.28,833.28,0,0,1,1268,597.87l39,15.74c27.37-96.34,46.28-194.38,57.82-293.85,2.37-20.44-29.34-26.85-38.13-9.93Q1203.28,547.43,1079.89,785c-12,23.18,20.86,40.87,34.91,19.59,74.85-113.41,121.29-241.06,140.5-375.37,2.88-20.09-28.44-25.63-37-9.65-97.14,180.18-187.73,363.5-274.88,548.69l37.73,15.22c52.49-142.48,103-286,118.41-438,2.36-23.27-31.42-23.84-38.46-5-70.35,188.84-152.9,373.77-247.66,551.63l36.45,14.7c56.21-135.35,105.48-273.68,150.37-413.18,7-21.92-26.09-34.45-37-14.93a2892.21,2892.21,0,0,0-234.45,544l39.83,10.45Q818.12,1049.61,867.66,866c5.87-21.77-27.57-36.35-37.53-15.14q-109.67,233.43-219.36,466.86l37.21,15c34.36-105.25,69.43-210.3,102.8-315.86C758,994.2,725.9,984.09,713.94,1002c-57.82,86.74-116.13,173.34-169.18,263.07-8.16,13.82,11.84,23.3,20.84,11.69Z"/><path class="cls-1" d="M1466.34,1114.29c35.73-50.19,75.49-96.1,123.66-134.73l-28-15.73q-57.4,144.33-114.8,288.68c-7.94,20,24.63,27.9,32.35,8.49L1594.3,972.31c7-17.47-16.94-24.63-28-15.73-50.31,40.34-91.63,89.08-128.9,141.45-12.55,17.62,16.8,33.39,29,16.26Z"/><path class="cls-1" d="M1396.94,1150.18l-47.61,88.35c-10.24,19,18.2,34.57,29,16.26,19.45-33,39-65.93,59.66-98.21,11.67-18.25-17.59-34.07-29-16.26-20.65,32.28-40.22,65.2-59.67,98.21l29,16.26q23.81-44.18,47.6-88.35c10.25-19-18.92-34.94-29-16.26Z"/><path class="cls-1" d="M1457.21,1024.35q41.05-57.1,84.31-112.57L1510.78,908c7.76,29-13.7,56.44-27,80.93q-20.91,38.61-41.66,77.31c-10.24,19,18.93,34.94,29,16.26,18.87-35,38.07-69.88,56.85-105,13.55-25.3,22.94-49.57,15.28-78.26-4.1-15.33-22.49-14.36-30.75-3.78q-43.26,55.47-84.31,112.57c-12.62,17.56,16.72,33.32,29,16.26Z"/><path class="cls-1" d="M1317.45,1143.51c-20.56,39.3-39.51,79.31-54.84,121-6.69,18.19,21.45,28,30.67,12.38q34.65-58.9,71.53-116.41c11.69-18.24-17.58-34.06-29-16.27q-36.88,57.52-71.53,116.41L1295,1273c14.36-39,32.21-76.37,51.48-113.2,10-19.12-19.15-35.06-29-16.26Z"/><path class="cls-1" d="M1389.15,1003.77q40.08-56.6,83.18-110.95l-28-15.74c-11.81,39.85-27.67,77.91-45.9,115.22-9.45,19.34,19.68,35.32,29,16.27,19.45-39.8,36.65-80.48,49.26-123,4.51-15.22-17.5-29-28.05-15.74q-45.81,57.64-88.43,117.68c-12.5,17.66,16.83,33.42,29,16.26Z"/><path class="cls-1" d="M1277.77,1068.71q-37.59,87.39-75.16,174.78c-7.55,17.55,21.93,28.51,30.66,12.38q37.56-69.42,79.14-136.48c11.42-18.4-17.83-34.24-29-16.26q-41.6,67.08-79.14,136.47L1235,1252q37.59-87.39,75.16-174.78c8.47-19.69-24.13-27.59-32.34-8.49Z"/><path class="cls-1" d="M1268,857.84c-31.8,99.68-89.44,190.21-98.7,296.33-.78,9,8.18,16.46,16.58,16.46h13.78c5.81,0,11.85-3.13,14.71-8.31,59.68-108,125.22-214,195-315.8l-29-16.27c-3.55,8-10,18.25-12.47,26.8-2.63,9-12.19,9.05,3.25,3.12l21,15.87c.95-7.51,13.24-23.06,17.17-29.52l-30.67-12.38-71.2,165.58c-8.47,19.69,24.13,27.6,32.34,8.49q35.61-82.8,71.21-165.58c7.7-17.9-21.35-27.72-30.67-12.38-8.4,13.85-19.68,29.27-21.77,45.76-1.3,10.23,11.74,19.45,21,15.87,16.76-6.45,23.24-30.69,29.72-45.36,8.64-19.58-16.82-34-29-16.27-69.73,101.83-135.27,207.78-194.94,315.8l14.71-8.31h-13.78l16.58,16.46c8.95-102.55,66.69-191.46,97.45-287.88,6.55-20.52-25.95-28.55-32.35-8.48Z"/><path class="cls-2" d="M347.69,3288.76c-20.28,5.51-41.93,12.38-51.77,25.83-14.08,19.25,3.83,43.87,30.6,55s244.52,59.5,275.7,60.46c384.44,11.82,586.12-23.46,967.47-57.63,23.49-2.11,48.16-4.73,66.79-14.82,211.21-114.41-471.55-161.17-553.57-157.93C843,3209.21,570.87,3228.14,347.69,3288.76Z"/><path class="cls-1" d="M834.73,2680.45c25.6-24.59,50.83-49.52,76-74.49l-34.92-26q-53.74,89.72-105.61,180.58c-12.67,22.19,16.69,42.37,34.66,25.8q94.33-87,189.49-173l-32.14-23.93q-95.5,136.86-191.11,273.65c-7.19,10.28,0,26.41,12,28.85,21.12,4.31,37.87-1.49,54.12-15.81,26.93-23.74,50.29-53.31,74.75-79.57l149.15-160.05-31.8-23.67C940.92,2736.88,852.77,2861.08,771.52,2990c-10.41,16.51,6.79,32.51,23.19,29.68,34.37-5.94,52.83-36.43,73.66-61.64q42.21-51.12,86.23-100.69,86.4-97.32,179.59-188.14l-32.6-24.28Q967.47,2829.53,833.4,3014.12c-14.47,19.91,17.87,43,33.94,25.27l136.58-150.54q33-36.42,66.1-72.83c17.59-19.31,43.72-61.27,72.69-62.82l-20.83-27c-37.08,102.47-123,178.15-157.49,282.31-6.93,20.89,23,37.34,37.34,20.95q36.78-42,73.44-84.14c23.22-26.58,45.32-52.46,78.47-66.71L1121,2860.24c-2.77,39.25-14,74.74-33.61,108.78-13.27,23,22,42.09,35.5,19.92,24.14-39.76,38.07-82.27,41.65-128.65,1.41-18.39-19.18-24.06-32.68-18.34-67.21,28.46-114.93,103.67-161.71,156.88l37.34,21c34.4-103.43,120.24-179.55,156.67-282.52,4.55-12.86-7.46-27.84-20.83-27-25.66,1.56-44.48,12.75-62.45,30.78-28.24,28.33-54,59.61-80.93,89.23L836.78,3009.79l33.94,25.27q133.35-185,266.72-370c14.1-19.57-16.58-40.09-32.6-24.27q-83.58,82.47-162.42,169.57-38.11,42.21-74.94,85.55c-20.36,24-50.43,78.92-83.29,84.54l23.19,29.69c81.31-128.79,169.11-253.37,256.92-377.76,13.35-18.9-16.56-40-31.79-23.67q-58.72,63.09-117.46,126.16l-54.21,58.23c-12.13,13-47.4,64.57-66.83,60.61l12,28.85q95.65-136.78,191.63-273.36c14-19.91-16-38.45-32.14-23.93Q870,2671.21,773.7,2756.13l34.66,25.8q53.86-89.64,105.89-180.42c12.38-21.6-17.61-44.4-34.91-26-24.31,25.85-48.58,51.7-72.5,77.92-17.11,18.76,9.74,44.44,27.89,27Z"/><path class="cls-3" d="M1067.23,1424.09c-226.51,24.3-409.77,209.48-474.05,421.66-34.19,112.89-46.47,235.53-48.34,353.15C543,2312.35,571,2419.51,660,2495.27c77.17,65.67,185.51,114.53,283.56,139.05,97.1,24.28,198.63,7.26,280.15-51.55,88.24-63.64,161.3-170.52,185.31-276.8,13-57.6,15.14-117.58,15.29-176.4.15-62.69,3-128.23-4.53-190.51-31.38-259.63-333.88-323.67-542.28-242.39-19.87,7.75-11.64,39.57,8.49,31.71,171.24-66.78,429.33-31.83,487.73,171.12,14.36,49.92,11.23,102.15,12.17,153.53,1,54.91,2,110-2.23,164.76-8.7,113.68-57.21,217.63-138.3,298.39-66.22,66-154.33,101.55-248.09,91.2-50.45-5.58-97.8-24.61-144.33-43.86-42.76-17.69-85-37.29-124.12-62.15-93.33-59.31-142.18-146.93-148-257.25-5.58-105.45,6-217.66,27.74-320.81,24.82-117.89,74.46-224.92,159.1-311.79,82.26-84.43,187.15-144.75,301.27-174.1,7.29-1.88,6.31-14.18-1.66-13.33Z"/><path class="cls-3" d="M810.69,2586c3.34,16-3.31,39.1-4.42,55.34-1.7,25-2.19,50.11-3.47,75.14-4.33,84.33-15.81,167.35-28.9,250.71-3.21,20.48,28,28.87,31.75,8.33,15.93-86.43,27.06-174,30.78-261.88,1.23-28.85,2.84-57.8,1.47-86.65-.73-15.42.3-35.12-7.2-49.29-5.85-11.06-22.41-3.13-20,8.3Z"/><path class="cls-3" d="M762.58,3009.49c127.53,33.81,268.37,50.44,394.3,1.19,19.87-7.76,11.64-39.58-8.49-31.71-123.77,48.4-254.94,22.72-383.17,12.54-10.57-.84-12.75,15.31-2.64,18Z"/><path class="cls-3" d="M1217.84,2953c4.27-50.84-8.7-103.75-18.09-153.42-10.2-54-22.68-107.17-36.65-160.29-5.38-20.49-37.84-11.82-32.49,8.71,13.25,50.87,25,102.33,35.29,153.87,10.15,50.76,13.78,105,31.29,153.84a10.6,10.6,0,0,0,20.65-2.71Z"/><path class="cls-3" d="M856.2,1646.38c100.55-68.15,206.48-96.6,327-74,22,4.12,32.27-28.16,9.63-33.76-118.34-29.31-261.85,5.62-346.72,95-6.33,6.67,2.07,18.29,10.14,12.82Z"/><path class="cls-3" d="M1422.58,2027.88c21.81-30.5,73.63-17.2,81,17.23,9.47,44.11-36.29,69.47-74.23,58.77-20.53-5.78-29.93,25.9-9.06,31.78,64.64,18.22,136.29-34.72,114.23-105-8.8-28.07-33.21-49.36-63-51.11-30.74-1.8-52.17,16.54-63.31,42.57-3.75,8.75,9.71,12.32,14.37,5.8Z"/><path class="cls-3" d="M560.05,1950.48c-8.45-50.75-70.91-37.22-90.38-2.38-24.63,44.05-8.09,102.77,29.35,133.84,16,13.27,40-9,23.78-23.52-16.94-15.23-28.27-33.64-30.45-56.64-1-10.38-.51-21.4,3.45-31.2,4.4-10.86,28-37.27,37.84-13,6.43,15.84,29.28,10.17,26.41-7.08Z"/><path class="cls-3" d="M174.67,1615.65c118.41-3.93,237.45-22.5,355.57-32.3q178.25-14.79,357-21.29,354.17-13,708.5,6.52c134.57,7.42,268.56,19.77,402.69,32.64,21.28,2,21.31-30,.44-32.48-472.53-56-954.58-58.44-1428.6-21.23-131.65,10.33-269.19,17.81-398.23,47.25-11.81,2.69-9.71,21.3,2.6,20.89Z"/><path class="cls-3" d="M847.62,3005c-22,36.42-21.43,92.64-25.82,134.22-5.46,51.75-7.73,103.7-8.09,155.73q6.6-8.35,13.22-16.69c-37.69,9.92-75.72,18.91-113.16,29.71-20.26,5.84-12.19,35.17,8.26,30.81,38.12-8.11,75.91-18.1,113.84-27.12a17.9,17.9,0,0,0,13.22-16.68q.58-74.78,7.14-149.25c3.81-43.75,20.31-95.31,11.47-138.26-2-9.53-15.51-10-20.08-2.47Z"/><path class="cls-3" d="M1070.34,3005c-2.91,76.95.62,153.24,3.65,230.2.77,19.49-6.21,61,8.76,76.35,16.1,16.56,63.5,11.75,84.63,13.47,21.36,1.73,21.16-29.89.44-32.38-21.64-2.6-47.91-1.49-68.65-8.74l11.71,11.53c-6.23-22-2.92-50.55-3.81-73.35l-2.85-72.35c-1.92-48.73-5.46-96.31-11.1-144.71-1.63-14-22.23-14.73-22.78,0Z"/><path class="cls-3" d="M711.25,2192.47c-46.66,56.08,49.28,135.16,89.45,164.62,69.36,50.87,161.1,74.39,245,49.8,68-19.91,122.37-70.82,153-134a318.42,318.42,0,0,0,28.88-95.32c4-28.63,12.22-77-9.9-99.24-5.52-5.56-16.39-4.41-20.11,2.77-10,19.25-2.81,43.38-3.78,64.77a283.14,283.14,0,0,1-17,84.12c-19,52.23-54.82,100.16-104.54,126.54-63.94,33.92-142.74,28.35-207-1.72-31.6-14.79-60.6-35.29-86.11-59-24.74-23-67.79-59.74-58-97.73,1.41-5.44-6.06-10.33-10-5.61Z"/><path class="cls-3" d="M1185.48,2089.62a40.43,40.43,0,0,1,4.84-8.32l-5.75,3.25c10.93-.56,19.94-10.42,31.53-11.72,13-1.47,26.9,3.46,37.88,10.15,7.33,4.47,15-2.93,13.75-10.37-4.1-25.2-31.25-33.51-53.6-28.85-10.74,2.24-21.1,7.43-28.64,15.47s-7.81,16.5-9.4,26.6c-.81,5.19,6.89,9.49,9.39,3.79Z"/><path class="cls-3" d="M1045.28,1975.82c0,11.7,0,22.85-1.71,34.43-1.64,11-1.8,19.71,3.17,30,2.82,5.81,11.36,7.16,16.5,4.11,23.47-13.89,21.88-49.59,18.09-73.24-3.25-20.32-36.12-15.06-36,4.73Z"/><path class="cls-3" d="M883.71,1974.28l-1.34.22c-5.07.82-10.74,6.25-11.65,11.34-3.72,20.74-9.88,53.59,8.22,69a11.18,11.18,0,0,0,15.14-.17c17.9-15.7,12.07-48.08,8.3-69-.91-5-6.33-10.52-11.44-11.26a21.64,21.64,0,0,0-7.23-.19Z"/><path class="cls-3" d="M836.15,2571.81c-41.6-5.51-82.81-2.24-124.07-13.12-45.68-12.05-88.78-35.11-125.14-65.19C514.19,2433.32,469.52,2346.16,440,2258c-32.22-96.34-51.86-197.84-63.19-298.66q-8.5-75.69-10.37-152c-1.3-54.92,2.6-110.3-3.28-164.91-1.24-11.54-18.3-15.5-21.64-2.8-28.48,108.47-14.32,234.87-.56,344.85s35.77,222.1,76.63,325.63c35.28,89.41,87.2,173.17,166.53,229.7,64.18,45.74,178.87,93.43,253.57,44.15,4.28-2.82,4.72-11.36-1.58-12.19Z"/><path class="cls-3" d="M319.28,1542.8c-7.33,38.46,10.1,89.53,50.22,102.8,39.67,13.12,74.64-19.44,82.1-56.75a10.47,10.47,0,0,0-17.52-9.83c-17.1,15.88-34.48,48.85-61.43,31.34-23.64-15.36-21.94-47.17-31.88-70.48-3.85-9.05-19.74-6.3-21.49,2.92Z"/><path class="cls-3" d="M1209,2648.75c174.33-93.22,310.1-258.18,400.56-431.41,92.26-176.67,141.76-375.76,134.33-575.34-.8-21.38-34.09-21.35-33.8,0,2.62,195.45-43.39,389.13-134.93,561.94-91.83,173.36-225.06,309.52-377.44,430.6-8.61,6.83,2.45,19,11.28,14.25Z"/><path class="cls-3" d="M1665.91,1544.34c.64,38,36.69,116.31,85.49,96.1,44.84-18.57,78.26-86.9,68.78-133.24-2.72-13.3-21-10.79-24.93.08-11.22,31.49-17.12,67.21-44,90.36-7.83,6.74-13.61,11.8-23,5.19-6.8-4.81-12.27-15.67-16.62-22.46-8.7-13.56-15-28.43-23.61-42-6-9.34-22.33-6-22.13,5.93Z"/><path class="cls-3" d="M161.07,1628c19.93-45.51,7.21-113.73,4.78-162.12-3.13-62.06-7.59-124.11-11.61-186.12-8.2-126.31-18.11-252.52-28.32-378.69q-15.06-186-32.62-371.72C81.75,407.53,78.09,280,51.64,160.32c-4-18.19-32.42-13.77-32.64,4.28-.75,61.84,8,124.14,13.66,185.64C38.41,412.15,44.38,474.05,50,536Q66.93,721.78,82.61,907.7c10.42,124,19.88,248,29.71,372,4.92,62,9.09,124.12,14.26,186.13,2.41,28.83,5.15,57.68,8.42,86.44,2.9,25.58,3.44,53.47,17,75.79,1.85,3,7.46,3.61,9.07-.08Z"/><path class="cls-3" d="M12.05,137C253.54,66.08,511.17,69.67,760.62,58.77c260.63-11.39,521.72-18.34,782.51-8.23,147.65,5.72,294.6,14.92,438.84,48.77,27.49,6.45,39.56-33.8,12-42.1C1870.6,20,1738.49,14,1610.56,7.58,1474.74.78,1338.72-1,1202.75.49,935.64,3.39,667.8,14.93,401.29,33.13,265.85,42.38,127.79,58.66,4.77,119.75-5,124.62,1.73,140,12.05,137Z"/><path class="cls-3" d="M2002.25,88.26c-6.55,62.29-4,125.28-5.71,187.85-1.68,62.75-4,125.38-7.67,188-7.06,121.25-17.23,242.22-26.73,363.29-19.25,245-37.82,493-8.33,738,3.14,26,44.53,26.75,42.21,0-21.64-248.47-6.64-496.39,13.18-744.44,9.83-123.06,20.26-246.36,24.4-369.78,4-119.26,12.12-248.11-16.06-365-2.15-8.88-14.44-6.08-15.29,2Z"/><path class="cls-3" d="M693.24,313c-73.66-69.9-166.29,21.16-200.11,86.09-39.93,76.69-60.88,203.06-.54,275.69,57.75,69.52,169.62,77.23,250.27,51.68,79.72-25.25,149.92-86,166.87-170.52,18.5-92.25-25.48-193.7-108.48-239.43-17.92-9.87-31.88,15.07-16,26.88C853.46,394,894.7,478.61,869.76,563.47c-25,85.12-114.81,135.36-199.42,139.79-45.27,2.37-94.15-6.93-131-34.71C496.48,636.22,490.8,576,494.11,526c5.42-81.79,75.87-250.46,185.06-195,11.09,5.64,24-8.6,14.07-18Z"/><path class="cls-3" d="M1300.29,305.1C1148.51,453.24,1013.15,620,875.78,781.37Q774.34,900.53,673.47,1020.16c-32.81,38.77-66.41,77-98.35,116.51-23.17,28.65-44.87,60-50.64,97.21-10.62,68.42,40.79,134.63,113.22,108.51,34.31-12.38,61.45-39.16,86.4-64.66q56.26-57.48,110.92-116.54,203-218,388-451.9,101.93-128.81,198.26-261.91c23.86-33,58.93-68.07,37.32-111.07-20-39.74-63.43-47.5-103.93-46.7-17.17.33-23.39,28.42-4.56,31s43.75,3.87,60.12,14.87c27.35,18.39,16.11,42.32,1,63.63-25.17,35.64-51.09,70.77-77.08,105.81q-78.35,105.6-160.4,208.38-155,194-322.65,377.3c-56.31,61.55-112.21,125.25-173.12,182.31-27.28,25.56-79.9,63.47-108.77,18.83-24.19-37.42-1.78-84.69,21-116.21,50.67-70.06,112.18-134.06,168-200.06Q842.49,876,927,776.65c129.63-151.89,265.77-298.59,393.24-452.22,11.45-13.8-6.9-32.07-20-19.33Z"/><path class="cls-3" d="M1372.79,852.82c-93.28-35.75-177.31,48.3-209.71,129.41-34.29,85.88-21.85,190.68,46.13,256.82,59.75,58.14,154.71,81.32,234.62,57.84,94.33-27.72,153-124.8,165.7-218.19,14.57-107.17-50.54-219.83-163.75-233-17.87-2.08-22.07,26.77-4.53,30.82,114.73,26.53,157.27,141,120.17,246.78-33.89,96.62-115,161.35-219.77,142-92.09-17-159.18-90.33-159.84-185.38a229.71,229.71,0,0,1,43-134.61c30.32-42.28,86.37-83.85,141.42-69.53,15.2,4,20.86-17.45,6.54-22.94Z"/><path class="cls-3" d="M676.24,425.76c-48.91-12.36-86.42,32.08-85.07,79,1.45,49.93,44.6,88.49,93.66,89.82,51.1,1.39,97.38-38.63,95.56-91.25-1.61-46.53-52.35-89.79-96.46-59.75-12.82,8.73-5.45,30.25,10.8,25.59,33.55-9.64,58.5,17.46,49.65,51.16-7.93,30.2-40.65,45.68-69.94,39.76-62.12-12.58-71.05-105.8-1.36-112.85,11.69-1.18,16.38-18.18,3.16-21.52Z"/><path class="cls-3" d="M1379,1011.54c-37.59-19.23-79.44-1.3-90.41,41.16-12.26,47.44,24.06,95.88,69.75,106.66,47.35,11.17,95.62-18.67,102.5-67.6,6.16-43.86-32.36-90.19-78.27-75.66-13.23,4.18-12,25.25,3.08,24.73,69.83-2.41,42.63,107.58-25.74,82.93-21.88-7.89-40.3-31.45-38.82-55.42,1.16-18.7,25.14-46.59,46.66-37.87,12.53,5.08,24.38-12.21,11.25-18.93Z"/></g></g></svg>