<svg xmlns="http://www.w3.org/2000/svg" viewBox="0 0 4956.46 3969.8"><defs><style>.cls-1{fill:#188C8C;}.cls-2{fill:#594F56;}.cls-3{fill:#C2F2ED;}</style></defs><g id="Calque_2" data-name="Calque 2"><g id="Ebene_2" data-name="Ebene 2"><path class="cls-1" d="M4087.1,182.32c272.73-74.16,552.34-105.92,834.68-93.11q-4.2-33.76-8.41-67.54c-328.93,82.56-661.9,146.63-998.45,188.86-47.92,6-52.89,78.72-1,76.62,312-12.58,625.12-24.13,935.75,15.38l1.06-78.35C4388.47,219.73,3926,265.58,3473.9,362c-48.13,10.27-35.69,78.49,10.11,81.12,472.33,27.17,944.93-2.18,1416.36-32.29q.59-42.54,1.16-85.09-670.77,81.33-1341.36,164.18c-53,6.47-58.56,83.83-1.15,84.54q676.07,8.32,1349.53,74.41-5.21-41.83-10.42-83.66C4485.59,694.48,4027.21,513.8,3632.22,723c-47.43,25.12-12,84.5,33.06,78.27q299.94-41.47,602.82-55.11,146.83-6.61,293.87-6.67c74.43,0,172.8-12.29,230.06,45.62q10-36.3,20.08-72.6c-438.92,127.72-909.87,40.07-1345.84,184.12-53.76,17.76-33.32,95.2,22.31,83.25a3052.32,3052.32,0,0,1,1283.51.78q.38-41.39.74-82.78c-469.7,114-962.16-2.54-1430.62,123.37-47.39,12.73-39.84,85.25,10.57,84.82q697.17-6,1393.93,25.42l-21.57-80.5c-494.24,218-1055,55.84-1573.71,92.59-55.54,3.94-58.58,88.28-1.17,86.35,295.66-9.92,593.56-19.79,886.87,26.76q-5.05-39.09-10.12-78.16a921.08,921.08,0,0,1-469.94,110.13c-81.73-2.87-159.23-19-237.8-40.65-76.37-21-154.71-37.94-231.14-8.07-34,13.27-48.33,74.45-.73,81.38,236.23,34.43,472.24,70.32,708.33,105.72l.72-80.59c-222.19,45.12-448.08,61.89-674.54,51.54-46.81-2.14-60.44,73.77-12.07,82.1q257.14,44.27,514.3,88.53l-31-40.15c3.88,35.39-52.48,41-78.78,43.36-61.52,5.61-124,6-185.71,8.91-120.55,5.79-241.14,11.06-361.65,17.57-39.92,2.15-59.16,54.48-21.63,76.33,62.93,36.63,129.41,55.44,201.83,60.45,51.59,3.57,52.83-75.53,1.07-79.11-58-4-111.1-22.5-160.75-52.32L2965.92,1680c159.68-6.49,319.3-14.69,478.93-22.14,79.33-3.7,246.27-8.55,233.14-129.3-1.88-17.36-11.52-36.8-31-40.16q-257.12-44.37-514.18-89-6,41-12.07,82.1c234,10.9,467.74-7.88,697.24-54.55,39.41-8,43-74.28.72-80.6-236-35.33-472.19-70.19-708.1-106.5q-.36,40.7-.73,81.38c86.73-33.1,175.19,9.36,260.31,28.74a991.16,991.16,0,0,0,236.05,24.51c162.53-2.76,321.6-45.39,464.57-122.38,30.86-16.61,27.63-72.15-10.11-78.16-301.19-48-605.58-40.29-909.3-30.37l-1.17,86.35c539.1-37.71,1105.07,122.13,1619.2-104.53,42.61-18.79,18-78.71-21.57-80.5q-696.53-31.5-1393.94-25.2,5.28,42.41,10.57,84.81C3832.16,978.58,4325,1094.78,4795,980.56c40.86-9.93,43.65-73.55.74-82.78a3175.66,3175.66,0,0,0-1329.46-1.17q11.16,41.63,22.31,83.25c435.61-143.12,906.84-56,1345.86-184,31.76-9.25,44-48.46,20.08-72.6-55.77-56.35-132.84-67.67-208.9-69.61-112.26-2.86-225,.21-337.19,4.65-222.7,8.83-444.6,29.55-665.33,60.19l33.06,78.27c190.19-100.85,408-101.39,617.93-97.63,209.75,3.76,423.36,11.86,626.05-51.76,48.23-15.14,37.82-79-10.43-83.66q-672.89-65.78-1349.54-73.76-.57,42.27-1.15,84.54,670.64-82.18,1341.35-163.63c53.47-6.58,58.27-88.84,1.16-85.09-471.42,31-944,61.31-1416.4,34.78q5.05,40.56,10.1,81.12C3940.64,346,4394.05,299,4849.63,302.53c52.53.41,50.82-72.11,1.06-78.35-310.7-38.94-623.81-26.81-935.77-13.65q-.52,38.31-1,76.62C4257,243.47,4597.13,178,4931.13,88c38.39-10.34,31.18-66.43-8.41-67.54-286.34-8-573.54,37.46-842.66,135.59-16.54,6-10.53,31.08,7,26.3Z"/><path class="cls-3" d="M891.9,2870.37c64.74-9.37,129.62-18.1,194.78-24q-5.31-19.83-10.63-39.67c-79.09,45.47-157.73,91.74-236.52,137.72-24.19,14.11-8.3,50.84,18.61,44.06,83.38-21,166.6-42.66,249.89-64l-18.67-44.21Q951.2,2950.07,813,3019.85c-21.06,10.64-12.25,47.36,12.08,45.09,130.16-12.16,257.47-38.75,381.31-80.7l-12.52-46.75L803.28,3091.33c-29.12,11.46-19.3,53.39,12.53,46.75l568.41-118.69q-6.26-23.37-12.53-46.75-343,137.19-686,274.58c-28.4,11.38-18.71,55.4,12.42,46.34L1322,3111.9l-23.2-39.36C1144.6,3231.2,888.42,3201.9,717.53,3338.09c-20.33,16.2,2.06,45.44,23.7,40.21,171.36-41.39,343.19-81.53,513.87-125.64l-17.85-42.25c-113.51,70.41-228,139.15-342.33,208.3-20,12.12-7.31,44.07,15.87,37.56q140.52-39.46,281.3-78l-20-33.89c-44.84,53.15-95.49,97.84-152.33,137.86-22,15.5-3.26,46.64,20.9,35.1a91.87,91.87,0,0,1,36.21-13.37q29.46-12.1,39.68,30.7c-10.2,19.07,17.29,33.75,28.85,16.19,17.17-26.09,9-58.51-16.59-76.63-33.58-23.74-75.64-6.55-109,8l20.9,35.1c60.93-39.78,114.12-88.79,160.85-144.48,12.64-15.06,1.06-39.73-20-33.89q-140.64,39.09-281.42,77.62L916,3454.11c114.82-68.25,229.39-136.91,345-203.87,23.56-13.65,7.8-48.08-17.85-42.26-171.94,39-343.09,82-514.38,123.7l23.69,40.21c170.88-136.7,423.24-104.78,580.52-266.26,16.44-16.89,0-46.11-23.2-39.37l-624,181,12.42,46.34q343.08-137,686.09-274.17c29-11.59,19.37-53.41-12.53-46.75L803.28,3091.33q6.26,23.37,12.53,46.75l390.6-153.84c28.9-11.38,18.16-57.14-12.52-46.75-119.56,40.5-242.41,67.2-368.13,79l12.08,45.08,276.34-139.58c25.41-12.84,7.72-51-18.67-44.21-83.29,21.37-166.67,42.45-249.86,64.18L864.26,2986c77.92-47.45,156-94.63,233.63-142.58,16.62-10.28,12-42.43-10.63-39.67-68.65,8.38-136.51,19.07-203.81,35.08-21.42,5.09-12.22,34.55,8.45,31.56Z"/><path class="cls-2" d="M1852.26,1286.11c-121-102.22-290.12-62.15-420.76-.7-145.53,68.45-245.5,195.08-331.86,326.43-169,257-432.08,604.16-303.46,930,61.05,154.66,205.72,267.82,350.87,339.75,144.11,71.42,309.56,108,469.88,83.52,172.22-26.34,303.41-134.67,409.71-267.3,99.78-124.51,165.38-270.93,180.16-430.57,8.17-88.16-.5-178.22-13.28-265.58-11.89-81.25-34.57-162.85-87.54-227.36-113.87-138.7-342.49-174.38-505-117.58-32.18,11.25-20.32,58.64,13.54,50.55,141.62-33.83,321.41-19.48,430.13,89.13,95,94.88,101.85,267.8,102.18,394,.38,146.25-44.1,285.8-125.72,406.85-82,121.57-196.49,246.85-339.5,292.76-273.34,87.76-636.92-56.66-793.3-293.93-181-274.61,32.61-600.15,183.12-833.19,84-130.1,161.3-272.16,284-370.74,123.48-99.21,331.37-173.61,476.55-80.06,15.36,9.9,34.85-13.6,20.27-25.92Z"/><path class="cls-2" d="M941.51,2753.39c-50.75,88.34-93.09,181.28-142.54,270.37s-106.79,174-155.11,263.54c-15.42,28.57,24.7,48.85,42.74,24,61.27-84.47,110.13-179.93,159.66-271.61,47.75-88.4,96.72-177.18,132.27-271.34,8.23-21.81-26.06-34-37-14.94Z"/><path class="cls-2" d="M685.1,3332.38c69.24,61.19,143.58,112,220.23,163.18,38.78,25.92,78.27,50.78,117.86,75.45,38.44,23.95,76.78,52.92,120.32,66.29,25,7.67,46.08-26.21,26.32-44.34-33.45-30.71-77.77-49.37-117.08-71.75-37.82-21.53-75.29-43.64-112.86-65.6-80.64-47.15-159.29-96.25-242.59-138.84-9.48-4.85-21.13,7.72-12.2,15.61Z"/><path class="cls-2" d="M1205.29,3501.11c64.34-77.51,100-180.91,144.86-270.63,46.31-92.55,101.86-182.64,140.95-278.42,11.43-28-30.39-38.37-45.21-18.25-63.26,85.88-108.49,189-154,285.18-40.74,86-92.9,180.26-102.43,275.75-.78,7.82,10.93,12.3,15.85,6.37Z"/><path class="cls-2" d="M1463.24,1566.93c171.89-73.07,356.1-124,537.16-54.62,33,12.64,58.38-43.16,24.83-57.57-196.58-84.41-393,16.28-571.92,95.52-11.74,5.2-1.52,21.53,9.93,16.67Z"/><path class="cls-2" d="M887.59,2052.49c-13-63.32-93.82-91.09-145.53-53.83-70,50.47-33,152.55,10,207.49,18.49,23.66,59.59,3.06,42.87-24.81-20.56-34.26-56.35-87.62-34.94-129.06,19.2-37.17,78.54-26.19,93.51,9.36,8.43,20,38.74,13.32,34.14-9.15Z"/><path class="cls-2" d="M1570.64,2028.89,1548.33,2100c-12.5,39.78,54.05,56,62.3,16.35q7.57-36.48,15.16-73c7.43-35.73-44.29-49-55.15-14.46Z"/><path class="cls-2" d="M1875.75,2100.9c-14.47,26.4-28.13,53.22-42,79.94-8.85,17-3,37.44,15.45,44.93,19.3,7.83,36.38-3.24,43.9-21,11.68-27.58,23.58-55.07,34.64-82.91,12-30.21-37.06-48.23-52-21Z"/><path class="cls-2" d="M1696.61,2530.05c-85.69,15.9-187.48,12.51-273.2-2.35-83.08-14.41-175.89-44-240.67-100.3C1111.21,2365.18,1104,2273.49,1118,2185c11.25-71.23,24-157.39,80.77-206.47,21.37-18.46-2.58-44.31-24.36-41.33-89.47,12.24-106,153.53-118.19,223.2-16.81,95.85-16.18,199.6,47.78,279s171.71,121.84,268.82,142.61c55,11.78,111.91,17.64,168.16,14.24,59.27-3.59,107.53-20.65,162.63-40.21,16.7-5.93,10.5-29.25-7-26Z"/><path class="cls-2" d="M980.06,2747.21c-78.2-9.11-156.95-7.29-235.58-6.24-67.75.91-140.08-2-205.49,18.43-59.41,18.52-112,53.34-164.71,85.39-66.19,40.22-133,79.62-198.18,121.42l50.64,20.07c-27.66-72.08-135-75.4-139.95,11.65-1.38,24.22,36.15,34.22,46.72,12.16q8.31-29,26.51-5.93c6,21.51,31.47,31.14,50.64,20.07C272.14,2988.72,332.35,2951,393,2914c54.64-33.34,109.47-72.63,171.44-91,69.39-20.55,146.85-16.26,218.52-20.88,67.67-4.37,134.65-8.41,201.36-21,21-4,14-31.81-4.23-33.93Z"/><path class="cls-2" d="M954.65,3516.16c-29.62,54.13-30.38,124.38-37.58,184.56-3.62,30.23.42,91.66-23.88,114.44-22.85,21.43-67.85,29.43-97.71,36.4-65.66,15.33-122.76,5.75-188.28.15-25-2.14-47.45,2.17-68.38,16.43-18.31,12.47-32.81,38.26-53.88,46-28.54,10.44-28,57,6.94,55.66,25-1,43.58-9.81,62.31-25.86,20.79-17.82,29-26.25,58.53-21.55,14,2.24,27.9,4.68,42,6.12a477.25,477.25,0,0,0,222-30.87c28-11,59.73-23.27,79-47.46s20.45-54.91,23.56-84.45c8-75.8,30-171.57,7.1-245.64-4.24-13.72-24.43-17.24-31.73-3.9Z"/><path class="cls-2" d="M710.57,3343.44c-13,35.72-17.46,66.39-18.65,104.43-.87,27.65,6.66,78.68-8.86,101.19-17,24.73-70,49.38-99,54.29-36.29,6.15-75.08-2.33-110.17-11.48a572.78,572.78,0,0,1-102.66-37.69c-21.64-10.36-44.14-27.94-69.4-24.38-24.59,3.46-35.45,22.1-48.78,41.31-22.11,31.88-43.51,63.08-58.85,98.77-11.13,25.89,27.46,41.49,44.45,24.94,15-14.66,27.61-30.36,39.93-47.32,7-9.63,21.24-38.2,31.18-44.56q-8.82-16.67,12,1.47,14.76,8.18,30,15.46c12.82,6,26,11.44,39.2,16.52,64.36,24.71,141.24,46.19,210.52,32.12,50.47-10.25,130-51.24,151-101.44,13.6-32.54,4.82-76.06,3.57-110-1.5-40.71-5.22-75.38-19.61-113.76-4.68-12.48-21.37-12.61-26,.08Z"/><path class="cls-2" d="M1478,2979.6c107,76.54,282.16,41.63,393.29-4.92,131.62-55.13,238.25-150.67,325-262.5,43.62-56.26,77.74-114.26,110.1-177.36,16.24-31.66,33.13-63.44,67.57-77.87,30.9-12.95,66.61-11.48,99.48-13.28,56.18-3.08,117.72-12.19,157.35-56.34,34.35-38.27,36.52-104.09-21.15-118.48-32.44-8.09-49.07,33.75-22.43,52,25.56,17.51-61.16,50.47-68.25,51.85-23.52,4.58-47.47,4.33-71.28,5.58-47,2.47-96.08,8.11-135.3,36.5-40.3,29.16-61.09,77.3-82.73,120.38-28,55.8-63.55,107.32-102.76,155.91-76.07,94.29-169.14,176.49-280.89,225.52a594.65,594.65,0,0,1-183.07,47.72c-60.83,5.64-118.12-7-178.22-8.21-13.64-.28-16.47,16.48-6.66,23.5Z"/><path class="cls-2" d="M1834.16,3183.43c147.65-19.67,274.94-119,371.22-228,107.47-121.73,180.47-265.72,256.62-407.9,85.66-160,169.37-324.88,288.39-463.17,53.61-62.28,111.67-120.48,168.21-180.06,50.84-53.56,129-119,150.22-191.83,6.16-21.13-19.24-40.74-38.07-28.45-34,22.16-57.62,57.36-84.26,87.55-25.33,28.71-51.31,56.77-77.7,84.49-56.64,59.48-114.8,117.59-168.51,179.78-111.65,129.28-194,279.39-274.61,429.14-77.15,143.27-147.55,292.33-249.2,420.49-95.86,120.86-213.69,207.31-354.56,269-18.42,8.06-3.93,31.17,12.25,29Z"/><path class="cls-2" d="M3109.81,1583.78c-36.91,12.14-90.1,32.63-110.77,68.37-21,36.3,18.67,88.71,46.45,110.7,29.58,23.41,74.06,29.59,103.93,3,28.1-25,28.09-73.54,33.55-108.22,3.07-19.46-16.56-39.5-36-26.92s-24.93,30.17-27.84,52.08c-2.68,20.17-1.41,57.18-32.49,39.49-10.19-5.8-17.34-16-23.59-25.61-8.81-13.6-13.94-18.52-2.22-30.83,19.34-20.3,42.5-38.72,63.71-57.09,11.47-9.93-.69-29.55-14.7-25Z"/><path class="cls-2" d="M3070.77,1406.53c23.06,113.11,69.47,207.37,154.57,288.23,37.88,36,81.61,70.31,134.83,77.53,54.34,7.37,106.95-15.13,151.49-44.39,106.55-70,203.23-161.56,297.09-247.35,98.29-89.84,195.24-183.59,276.88-289,17.87-23.07-19.38-46.12-38.63-28.76-163.63,147.61-315.64,306-486.83,445.57-39.78,32.44-79.93,68.54-127.89,88.34-61.63,25.45-108.19-2.07-154-43.18-74.41-66.79-141.36-161.29-177.59-255-6.95-18-33.91-11.44-29.94,8Z"/><path class="cls-2" d="M3090.83,1404.65c95.52-105.93,197.23-210,303.39-305.31,54.63-49,111.17-96.16,169.94-140.16,54.88-41.09,120.54-75.35,169.43-123.33,16.44-16.14-.24-47.88-23.32-39.57-69.17,24.9-132,77.85-190.16,121.78-56.08,42.33-110.5,86.81-162.46,134.12-111.3,101.34-205.77,210.84-288.19,336.55-8.45,12.89,11.19,27.21,21.37,15.92Z"/><path class="cls-2" d="M3773.91,771.51c-94-58.54-182-128.3-259.45-207.46-16.09-16.45-40.52-36.45-51.44-57.27-19.2-36.6,7.41-54.63,36.24-71.42,50.49-29.42,106.1-52.59,159.34-76.57C3870.7,263.25,4092,188,4318.06,133.22c111.86-27.09,230.42-58.62,345.65-65.16,61.72-3.51,107.19,14.72,127.31,76,18.73,57,21.31,121.48,21.18,181-.54,239.21-83.81,480.93-168,702.22-46.14,121.28-89,261-242.25,262.87-128.54,1.54-221.26-92.5-307.39-175.13-29.5-28.3-69.7,13.51-44.91,44.44,76.06,94.87,183.7,179.44,307.72,194.89,115,14.32,223.45-32.42,279.69-135.82C4705,1093.7,4747.67,948.31,4788.88,813c42.75-140.41,80.06-284.69,88.43-431.82,5.9-103.68,12.45-278.43-83.92-348-93.3-67.31-249.24-14.79-350.64,5.68C4161.37,95.7,3886.86,184.75,3625.14,302.6c-83.24,37.48-303.43,107.09-220,237.66,37.94,59.37,100.11,110.52,154.35,154.33,58.56,47.29,121.81,85.94,189.22,119.32,28.05,13.89,52.58-25.33,25.18-42.4Z"/><path class="cls-2" d="M3312,331.7c-120.19,45.59-146.38,210-63.19,301.84,21.72,24,61.8-7.1,45.54-34.76-46.85-79.69-28.75-174.51,33.25-240.61,10.19-10.88.24-32.47-15.6-26.47Z"/><path class="cls-2" d="M3159.76,374c-85.81,37.86-110,148.22-70.8,227.86,13.94,28.34,62.75,8.39,52.77-21.88-21.49-65.17-4.85-128.56,37.28-181.65,11.44-14.42-2.54-31.7-19.25-24.33Z"/><path class="cls-2" d="M2991.53,1276.73c-59.62,33.2-76.22,117.2-45.76,175.37,14.58,27.83,51.44,6.53,47.95-19.89-6.67-50.39,3.59-90.67,22.51-137,5.89-14.43-13.24-24.85-24.7-18.46Z"/><path class="cls-2" d="M4174.78,1431.8c42.43,64.85,97.61,107.7,175.91,121.93,71.68,13,154.94,2.61,209.16-49.61,18.11-17.43-.41-49.91-24.8-42.09-57.4,18.42-111.38,35.18-172.55,26.65-57.17-8-121.67-34.29-163.12-75.66-12-12-34.38,3.82-24.6,18.78Z"/><path class="cls-2" d="M1841.1,3318c98.24,4.16,199.37-48.45,276.56-104.76,75.48-55.06,156.76-134.81,185.7-226.17,7.4-23.35-26.3-43.11-42.38-23.78-60.08,72.2-108.09,145.92-183.87,204.16-74.52,57.26-159.27,85.67-242.5,126.32-12.43,6.07-5.74,23.71,6.49,24.23Z"/><path class="cls-2" d="M83.07,3519.68c-38.73,38.4-85.68,107.19-83,163.72C1,3701.07,25.88,3715.4,39,3699c18.11-22.75,26-48.37,38.44-74.41,12.69-26.65,29-51.13,43.33-76.87,13.18-23.71-18.4-47.13-37.65-28Z"/></g></g></svg>