<svg xmlns="http://www.w3.org/2000/svg" viewBox="0 0 3496.85 4170.28"><defs><style>.cls-1{fill:#eceded;}.cls-2{fill:#fdc700;}.cls-3{fill:#594F56;}.cls-4{fill:#188C8C;}</style></defs><g id="Calque_2" data-name="Calque 2"><g id="Ebene_2" data-name="Ebene 2"><path class="cls-1" d="M142.16,3903.72c-51,11.43-105.54,25.62-130.06,52.93-35.08,39.07,10.7,88.48,78.51,110.66s150.29,24.23,229,25.69c970.42,18,1145.05,126,2106.59,51.2,59.25-4.61,923-100.34,969.8-121C3926.33,3789,2202.32,3705,1995.4,3712.81,1390.09,3735.62,703.94,3778,142.16,3903.72Z"/><path class="cls-2" d="M1878.36,2328.53c178.18-130.39,361.93-250.39,547.94-369.06l-35.47-44.79q-225.84,229.38-450.38,460c-24.46,25.05,7.17,65.49,37.55,47.43l740.92-440.29L2680,1932.72c-250,194.21-499,389.93-730.5,606.2-26.22,24.5,7.94,66.49,38.1,48.13q481.07-292.68,963.18-583.57l-39.73-50.18q-454.38,385.8-908.65,771.75c-29.32,24.94,9.18,72.11,40.92,51.68l1192.89-767.66-41.09-51.9-1195,927.88c-31.21,24.24,9,70.77,41.27,52.13l1169.46-676.54-41.43-52.33q-504,420.87-1008,841.61c-29.85,24.92,10.32,75.58,41.78,52.77,277.79-201.44,579-369.4,897.22-497.94L3061.5,2555c-270.25,378.71-767.22,508.61-1031.59,895-24.56,35.9,27.11,63.22,55.24,41.13a3900.58,3900.58,0,0,1,1041.13-584.8l-39.46-50.5c-273.07,389.8-766.32,535.65-1074,891.51-27.57,31.88,6.79,69.32,42.79,54,405.5-172,684.17-547.28,1093.65-711L3116,3034,2194,3879.6c-33.79,31,15.66,75,49.34,47.78,326.51-264.17,653.95-528.19,1006.69-757.06l-42.49-53.67c-225.82,287.69-476.63,554.23-749.15,798.1-30.37,27.18,9.05,74.09,42.85,54.13l481.56-284.23-51.19-38.25c-19.16,82.41-54.52,158.18-108.93,223.33-27.91,33.42,20.35,79.74,48.07,46.54,62-74.23,106.07-157.81,128.2-252.2,6.84-29.18-24.6-53.88-51.19-38.25l-482.07,283.36q21.42,27.06,42.85,54.13c272.85-243.29,523.15-510.89,748.73-798.51,22.64-28.87-6.44-77.09-42.49-53.68C2857.15,3343.4,2525.09,3611.53,2194,3879.6l49.34,47.78,921.58-846c24.14-22.17-1.07-69.29-33.24-56.41-416,166.54-700.16,542.94-1111.64,716.79l42.79,54.06c312.57-360.49,807.25-509.12,1085-905.76,17-24.25-11.64-60.91-39.46-50.5a4008.32,4008.32,0,0,0-1073,603.39l55.24,41.13c263-384.79,760.3-515.61,1031-895.35,16.7-23.42-11.63-60.79-38.89-49.77-324.28,131.17-631.1,300-914.25,505.53l41.77,52.78q503.8-421,1007.63-842c30.46-25.45-9-71.13-41.43-52.34L2007.15,2879.68l41.27,52.13,1194.81-928.08c30.54-23.72-9.35-72.33-41.08-51.9l-1192.76,767.9,40.92,51.68q453.9-386.22,907.26-773.1c28.69-24.45-8.66-69.09-39.72-50.18Q2436.86,2240.95,1956,2534l38.1,48.14c231.77-215.95,482-410.5,731.42-605.32,29.18-22.79-8.58-67.23-38.89-49.12l-739.81,442.16,37.55,47.43q224.29-230.89,447.94-462.39c22.55-23.4-7-63.1-35.46-44.79-186.38,120-364,257-533.29,399.78-10.52,8.87,3.67,26.81,14.78,18.68Z"/><path class="cls-2" d="M583.11,2893.79c132.42-43.73,265.62-90.67,390.72-152.49l-28-35.32c-103.79,129.58-206,260.39-308.6,390.92-20.18,25.68,12.07,58.69,36.63,35.47,181.2-171.26,378.55-320.2,590.87-450.6l-29.71-49.9A2536.92,2536.92,0,0,0,492.9,3382c-17.48,27.24,17.59,59.66,44.18,42.93,327.46-206.1,554-544.51,905.2-716.07q-19.46-24.55-38.9-49.13-424,470.47-880.57,909.79c-25.35,24.44,8.05,67.39,38,48,391.13-254.32,761.29-539.25,1105.18-854.61L1615.1,2725c-146,191.41-341.33,346.17-519.3,506.56q-280,252.32-562.4,501.89c-23,20.29,1.26,63.21,30.61,51.94,476-182.83,848.9-538.76,1208.15-888.49,30.95-30.13-15.92-73.83-47.06-45.57A15483.48,15483.48,0,0,0,584,4001.25c-23,25.71,8,71.41,38.93,49.17,421.75-303.27,826.43-628.89,1209.73-979.6l-46.46-45Q1344.91,3452,967.7,3937.22c-22.22,28.53,19.66,58.26,45.77,44.48,178.7-94.35,342.65-216.17,483.05-361.66,139-144,243.79-328.3,415.18-438l-46.31-45q-254,384.66-507.89,769.34c-19.37,29.33,18.4,59.85,46,44.69,109.74-60.35,213-130.44,310.77-208.63l-56.47-22.67c-1.52,35.51-28.12,61-63.69,61.14-42.11.14-43.44,64.67-.88,64.53,71.67-.23,127.57-54.14,130.75-125.61,1.41-31.57-36.09-38.92-56.47-22.67-93.39,74.45-193.14,139.71-297.8,197.18l46,44.69Q1669.82,3554.46,1924,3169.9c18.73-28.34-18.72-62.66-46.32-45C1709,3232.75,1605.06,3406,1471.2,3550c-141.48,152.19-307.8,278.14-491.36,375.26l45.77,44.48c247.37-318.28,517.45-618.5,807-898.89,30.6-29.63-15.83-73.09-46.46-45-378.38,347.15-777,672.77-1195.57,970.35l38.92,49.17Q1173,3443.54,1772.16,2896.86l-47.06-45.57c-349.17,341.6-712.8,696.06-1177.23,873.83l30.61,51.94q289.88-255.6,577.25-514c178.25-160.33,369.5-314.88,515.27-506.71,23.12-30.44-25.56-61.12-50.84-37.85-339.05,312.18-703.56,596.17-1090.89,846.05l38,47.95q457.48-437.86,881.68-908.73c25-27.72-6.46-64.94-38.9-49.13-351.72,171.45-579.11,508.08-905.38,715.77l44.17,42.93a2462.12,2462.12,0,0,1,716-731.55c31.59-21,2.78-70-29.71-49.9-214.81,132.84-415.47,290.46-597.79,465L678,3127.19C779.67,2996,881.72,2865.13,982.21,2733c15.08-19.83-13.45-40.21-31.57-30.68-122,64.13-242.76,125.75-372.35,173.46-11.3,4.17-6.94,21.86,4.82,18Z"/><path class="cls-4" d="M983,1887.21c78.39-24.6,156.68-49.61,234.32-76.53l-17.43-29.57L971.72,1987.39c-17.06,15.43,4.91,35.52,22.37,28.26a3120,3120,0,0,0,383.85-191.48l-23-29c-75.56,59.57-151.69,118.43-227.56,177.6-45.12,35.19-127.48,84.13-99.86,153,4.94,12.34,19.57,21.57,32.52,12.9,127.53-85.33,254.21-172,381.21-258.06l-27.54-34.8L970.22,2269.16c-15.24,14.55-2.87,37.43,16.11,38.66,89.93,5.84,169.07-73.29,237.65-121.36q137.37-96.27,274.18-193.3l-27.41-34.63c-131.15,117.25-262,233.9-370.17,373.45-13.63,17.57,12.87,40.51,30,29.1l367.53-245.6-32.25-24.1c-35.89,86.4-81.18,167.36-133.27,245-12.32,18.37,11.88,39,29.43,28.6,53-31.32,106.36-62.18,159.63-93.12,22.75-13.22,2.24-47.26-20.45-34.33-53.55,30.48-107.05,61-160.8,91.15l29.42,28.59c56-79.46,101.23-165,138.46-254.73,7.4-17.82-17.47-34-32.25-24.09l-367.45,245.72,29.94,29.1C1244,2217.1,1373.16,2102,1502.83,1989.59c19.31-16.73-6.43-49.12-27.41-34.62q-122.22,84.39-243.55,170-58.8,41.34-117.61,82.67c-38.89,27.24-77.23,57.82-127.31,54.64q8.06,19.33,16.12,38.66L1446,1877.05c18.38-17.59-6.08-49.39-27.55-34.8-126.9,86.3-254.17,172.1-380.54,259.16l32.52,12.9c-17.34-41.59,38.71-74.52,64.84-95.47l79.76-64c55.6-44.59,111-89.39,166.86-133.69,17.18-13.63-5-39.62-23-29a3118.85,3118.85,0,0,1-383.34,192.32l22.37,28.26L1225.58,1806c13.05-11.85-.58-35.46-17.43-29.57-77.79,27.17-154.91,56.25-231.86,85.7-15.6,6-9.89,30.33,6.73,25.12Z"/><path class="cls-3" d="M1396.79.06c-369,40.25-626.31,363.39-730.95,698.26-56.07,179.43-89.73,384.61-49.11,570.59,39.42,180.55,164.82,321.07,303.43,435.93,60.84,50.42,126.28,114.16,209.34,119,85.11,5,182-20.27,264.16-40.71,82.39-20.51,164.29-50.61,233.14-101.32,64.49-47.49,113.3-114.16,157.71-180,44.7-66.27,87.75-139.15,107.56-217.3,23-90.69,13.84-182.78,10.44-275-3.19-86.54,16.69-172.2,8.3-258.43-6.07-62.45-23.77-123.35-55.43-177.76C1713,328.62,1356.55,281.87,1117,394.15c-25.79,12.09-7.8,53.64,19,45.07,203.58-65,462.88-63.68,618.75,104.15,80.35,86.5,103.7,203.23,90.79,317.89-18.66,165.74,28.33,337.89-48,493.57-64.66,131.86-158.18,265.82-295.51,327.27-71.69,32.08-149.82,49-226.81,62.71-39.67,7.06-80.59,15.78-120.87,17.49-52.83,2.24-89-21.4-129.19-52.42-125.18-96.73-252.53-206-319.24-353C629.9,1189.3,649.67,989.54,688.2,814.92c82.63-374.49,328.13-697.93,711-795.67,10.5-2.68,9.06-20.44-2.4-19.19Z"/><path class="cls-3" d="M973.42,1731.88c-15.11,89.25-15.92,180.55-24.26,270.59-8.79,94.88-20.54,189.67-33.75,284-3.66,26.15,42.25,31.84,46.58,6,15.1-90,26.74-180.05,34.64-271,8.19-94.32,18.57-191.26,7.65-285.65-1.83-15.76-27.68-22.79-30.86-4Z"/><path class="cls-3" d="M900,2346c99.84,28.3,200.18,47.48,304.09,51.43,86.44,3.28,203.72-1.7,274.66-56.88,21.24-16.52-3-42.56-23.21-39.38-42.85,6.75-83.52,26.25-126.72,34-48.89,8.81-99.49,11.23-149.1,10.28-92.12-1.77-184.29-16.47-275.92-25.38-15.33-1.49-18.13,21.84-3.8,25.9Z"/><path class="cls-3" d="M1555.54,2257.36c6.7-83-9.92-173.09-23.63-254.79-13.44-80.09-21.15-176.2-57.66-249.45-10.65-21.37-45.18-10.42-45.12,12.09.24,80,30.93,164.49,45.73,243.1,15.69,83.34,24.55,172.33,50.94,253,5.3,16.2,28.39,12.79,29.74-3.91Z"/><path class="cls-3" d="M1003.18,2361.11c-3.34,30.14-9.1,54.55-8,85.37q1.53,42.7,3.74,85.37,4.59,90.14,9.39,180.24c1.29,25,11.93,75.64-10.21,94.33-13,11-37.49,12.36-53.18,15.51-30.84,6.21-61.92,9-72.62,42.22-3.57,11,2.3,24.07,12.27,29.58,10.33,5.7,18.14,6.9,29.27,3s16.42-11.45,18-22.76c.19-1.38.39-2.75.59-4.13,3.78-26.54-42.18-32.07-47.18-6.1-.27,1.37-.53,2.74-.8,4.11l23.57-17.54-5.76-.25,21.54,12.09-2.52-4.64q0,13.22-.08,26.41c6.14-9.08,44.33-9.76,55.6-12.69,17.87-4.64,36-10.51,51.13-21.44,37.25-27,35.69-67.27,33-109.17q-6-94.86-12.22-189.73c-2.22-34.8-4.6-69.59-7.4-104.35-2.63-32.47-11-56.51-18.27-88-2.7-11.66-18.77-7.84-19.92,2.61Z"/><path class="cls-3" d="M1362.61,2416.64c.73,67.38,10.63,134.56,12.59,202,2,67.76-.88,135.32-6.56,202.85-1.05,12.52,9.37,23.12,20.48,26.54,44.89,13.85,90.56,31.3,137.63,34.49,23.9,1.62,33.34-33.1,12.54-44.25-41.4-22.21-89.84-31.32-135-43.28l20.47,26.55c5-132.58,9-280.59-26.72-409.55-5.25-19-35.61-15.51-35.39,4.64Z"/><path class="cls-3" d="M1092.93,320.14C1161,274,1232.44,235.87,1313.1,216.63c83.87-20,165.33-14.23,249.31,1.51,37.57,7.05,55.2-48.17,16.47-57.76-169.55-42-379.6,14-500.56,141.31-9.12,9.6,3,26.32,14.61,18.45Z"/><path class="cls-3" d="M1908.49,869.49c33.24-46.51,106.68-21.4,113.12,30.77,8.19,66.36-58.36,82.3-109.55,77.86-23.65-2-33.67,33.66-12.54,44.26,93.42,46.86,204.24-46.08,175.41-145.89-12.43-43-50.49-76-96-77.06-44.56-1.06-74.84,23.57-91.16,61.7-5.4,12.6,14,17.75,20.7,8.36Z"/><path class="cls-3" d="M666.48,758c-12.24-73.47-102.37-53.13-131.72-4.31-37.92,63.08-16,152.42,40.75,196.68,27.5,21.47,67.56-14.1,40.43-40-23.11-22.07-39.38-46.62-42.81-79-1.52-14.43-1.38-29.85,3.26-43.74,5.47-16.4,38-54.14,52.07-19.39,9.25,22.82,42.15,14.65,38-10.19Z"/><path class="cls-3" d="M1229.7,2655.74c-98.5-1.75-189.88-6.75-287.3,14.78-92.85,20.52-188.76,52-272,98.66C622,2796.3,564.52,2858,616.48,2911.27c55,56.44,163.38,67.25,237.08,74.05,104.93,9.68,210.91,11.64,316.14,16.76,105.61,5.14,211.58,13.28,317.32,14.64,88.17,1.14,180.58-9.09,254.73-60.95,55.12-38.56,117.27-113.37,86.2-184.54-31.91-73.1-134.54-108.06-206.37-122.28-97-19.2-197.9-12.46-295.26.5-25.53,3.4-19.9,44.56,5.47,43.89,131.57-3.46,278.82-19.09,396.17,54,39.9,24.85,65.5,57.32,37.94,104.27-18.12,30.84-46,54.34-77.1,71.42-66.71,36.66-144.57,39.9-219,38.09-159.62-3.88-319.31-14-478.82-21.23-72.7-3.28-146.72-3.95-218.18-19.12-27.12-5.76-80.31-13.69-99.77-34.19-27.31-28.79-15.41-48.51,12-66.26,15.69-10.14,33.29-17.86,50.09-25.92a1118.74,1118.74,0,0,1,236.26-81.81c82.69-18.75,173-40.29,258-38.78,11.8.21,12.14-17.84.25-18.05Z"/><path class="cls-3" d="M617.53,2866.26c-17.49,61.84-21,124.27-15.26,188.15.87,9.64,6,17.6,15.67,20.31,241,67.49,501.26,119.53,752.49,109,111.1-4.66,234.24-17.45,336-65.24,80.7-37.91,144.47-124.13,106.31-214.2-10.78-25.45-49.9-6.57-44.33,18.38,27,121.05-107.73,163.82-199.25,183.87-103.38,22.65-209.51,29.09-315.11,25.55-212.88-7.15-416.34-59.29-624.53-97.94l15,14.73c-11-58.66-9.36-116.83-.16-175.58,2.69-17.16-21.9-24.27-26.78-7Z"/><path class="cls-3" d="M696,3053.86c-34,65.89-46.86,143.55-38.89,217.11,1.39,12.82,9.33,22.12,22.88,22.72,159.69,7.17,319.44,13.08,479.16,19.43,152.11,6.05,307.18,20.84,459.35,13.74,109.82-5.12,232.18-39.84,290.87-141.47,24.94-43.18,35.81-101.18,9.28-146.3-24.09-41-68.85-58.77-113.93-45.68-30.42,8.84-17.91,50.53,12.24,45.66,41.21-6.66,60.86,35.33,59.24,68.34-1.43,28.89-18,56.61-37.11,77.68-31.21,34.4-74.32,57-118.58,69.6-108.24,30.77-229.3,13.82-340.18,10.81-233.21-6.34-466.47-12.54-699.72-17.21L702.75,3265c-13.58-71.22-8.71-134.69,9.83-204.44,2.58-9.69-11.83-15.84-16.56-6.68Z"/><path class="cls-3" d="M1664.58,3107.63c81.88,26.47,175.84,11.79,224.67-65.9,13.2-21-18.14-44.31-34.64-25.78-46.44,52.14-112.83,93.33-185.46,75.67-10.49-2.55-14.94,12.66-4.57,16Z"/><path class="cls-3" d="M692.2,3270c-3.62-.19-7.22-1.41-10.75-2.28l7.14,7c-.18-.75-.35-1.51-.52-2.26-3-13.06-17.34-15.61-27.82-11l-5.32,2.32c-10.62,4.65-10.62,22.69-.06,27.37l5.3,2.36c10.57,4.68,24.61,1.28,27.81-11.33.19-.74.37-1.47.56-2.2l-7.27,7.07c3.53-.86,7.11-2.06,10.73-2.26,9.63-.51,10-14.27.2-14.8Z"/><path class="cls-3" d="M678.07,3174.35c-62.89-7.44-139.14-17.76-187.45,33.34-31.41,33.23-45.47,90.47-21.28,131.58,37.12,63.1,125.46,45,185.32,41.95,93.48-4.82,187.18-6.87,280.78-5,181.14,3.6,362.17,32,543.19,29.66,76.3-1,153.95-9.72,225.81-36.54,52.94-19.76,138.6-53.24,133.76-122.09-1.84-26.17-39.93-33.12-47.48-6.13-16,57.35-109.68,80.75-160.69,92.6-60,13.94-121.76,17.27-183.14,16.46-129.88-1.71-259.18-18.55-389.06-22.26C920.59,3324,783,3326,646,3334.38c-52.86,3.24-172.09,17.81-135.55-72.76,25.6-63.46,108.51-71.55,167.46-71.87,10.29-.06,10-14.23.21-15.4Z"/><path class="cls-3" d="M495.75,3292.07c-7.31,65.45-20.6,129.65-30.21,194.47-1.86,12.56,3,23.83,16,27.72,135.05,40.23,287.25,32,426.77,38.59,149.8,7,299.63,13,449.47,19,115.93,4.6,256.65,25.87,360.59-39.81,78.1-49.36,124.43-149,80.26-235.44-16.08-31.47-60.81-3.68-47.62,27.56,48.55,115-92.07,184.35-182.18,192.12-113.21,9.76-230.79-3.66-344.15-7.63q-176.94-6.2-353.9-11c-126.4-3.52-252.25-2.81-376.75-27.08L511,3492.4c1.33-66.67-1.15-133.42,2.64-200.32.65-11.48-16.62-10.93-17.84,0Z"/><path class="cls-3" d="M546.78,3488.76c-26.93,61.69-43.15,126.47-51,193.32-7.33,62.6-14.6,143.09.9,204.8,14.13,56.27,95.79,71.42,144.17,82.27,71.25,16,145.09,19.5,217.86,20.55,165,2.4,330.23.71,495.27.25,76.56-.21,153.13-1.63,229-12.83,54.85-8.1,135.22-16.95,173.68-62.11,21-24.66,26.81-59.79,34.21-90.3q16-66,26.93-133.17c14.54-88.77,23.86-178.61,23.78-268.62,0-35.1-53.34-34.48-55-.06-4.32,88.2-10.68,176-25.45,263.14q-10.59,62.52-25.53,124.21c-3.67,15.15-6.51,32.75-12.23,47.36-11.53,29.4-31.64,36.45-60,45.22-157.26,48.54-334.87,31.67-497.29,32.06S832.24,3951,671.77,3922c-40.15-7.26-113.14-15.48-128.9-61.61-10.72-31.36-2.93-85.79-3.16-118.89-.57-84.25-1-164.23,24.18-245.82,3.06-9.92-12.89-16.57-17.11-6.91Z"/><path class="cls-3" d="M558,3623.36c198.61,67.17,407.76,95.2,617.22,90.4,100.07-2.29,200-12.24,298.77-28.58,100.3-16.6,214.93-34,306.34-80.24,26.33-13.32,6.71-47.41-18.35-43.45-95.63,15.13-188.9,50.15-284.82,67.26-102.46,18.27-206.06,28.16-310.07,31.05-202.41,5.62-404.63-17.63-602.56-59.31-15.06-3.18-21.32,17.87-6.53,22.87Z"/><path class="cls-3" d="M481.83,3784c66.79,49.5,149.55,52.7,229.6,47.56,96.17-6.16,187.32-16.61,283.74-7.55,237.66,22.34,476.21,32.31,711.95-12.66,34-6.49,20.18-57.17-13.61-50.79-224.16,42.29-452.73,33.25-678.8,13.36-88.75-7.81-170.38-3.53-258.82,5.65-84.3,8.76-180.21,19.11-257-24.38-19.07-10.81-34.16,16.17-17.1,28.81Z"/><path class="cls-3" d="M2523.09,1935.79c-193.39-18.86-389.66,37.1-545.87,152.09-48,35.36-151.47,101.16-68.68,155.81,79.07,52.21,186.39,65.06,278.51,71.18,204,13.58,417.85,11.77,620-20.69,102.22-16.41,202.22-44.43,296.17-88.28,68.91-32.15,148.78-79.29,95.56-164.12-47.4-75.54-140.19-101.22-223.57-110.5-62.18-6.92-125.46-7-188-6.34-65.59.72-134.14.19-198.23,15.49-27,6.44-20.39,44.33,5.73,45.93,95.2,5.82,192.1-6.79,287.78-4,70.6,2,148.19,4.22,211.42,39.59,31.4,17.56,82,59.85,49,97-24.09,27-81.74,43.69-114.63,56.46-76.09,29.56-155.94,49.21-236.42,62.28-161.35,26.19-326.13,24.94-489.11,23.34-84.67-.82-170.54-.19-253.54-19.27-21.09-4.85-106.93-21.14-114.33-42.41-6.94-19.94,63.65-66.37,80-78.38,147.31-108,326.26-164.58,507.94-169.7,10.19-.29,10.17-14.42.21-15.39Z"/><path class="cls-3" d="M1957.59,2187.34c.75,152.61-12.59,304.56-16.6,457.12-2,76.08-2.86,152.46-1.77,228.57.6,41.72-.7,97.45,45.06,116.07,23.09,9.39,56.42-12.12,39.16-38.62-29.52-45.33-17.48-111.16-18.85-163.1-1.75-66.71-3.72-133.35-6.92-200-6.4-133.58-20.25-266.22-21.94-400-.15-11.52-18.2-11.42-18.14,0Z"/><path class="cls-3" d="M1952.6,2947.94c175.12,88.92,384.66,111.3,578.4,101.66a1514.77,1514.77,0,0,0,288.08-42.19,1468.19,1468.19,0,0,0,151.2-46.15c45.42-16.59,97.23-33,136.23-62,24.23-18,11.45-58.56-21.2-50.19-45.2,11.58-87.5,35.19-131.33,51.34q-66.39,24.5-134.94,42.49a1497.89,1497.89,0,0,1-287.22,46.23c-194.81,12.09-381.34-22-571.14-60-10.79-2.16-19.25,13.07-8.08,18.74Z"/><path class="cls-3" d="M3139.5,2082c-18.78,123.22-24,247.15-26.33,371.91-2.36,128-9.53,259.87,2.28,387.44,3.89,42.1,65,43.06,67.42.06,7-125.12-1.86-252.66-3-378-1.11-126.34-1.47-252.32-13.71-378-1.34-13.81-24.25-19.57-26.7-3.45Z"/><path class="cls-3" d="M2112.09,3006.8c-55-5.9-62.43,70.48-50.36,108.3,19.16,60.05,83.12,83.63,139.72,92.75,183.15,29.5,375.62,28.53,560.12,14.37,90-6.91,179.91-17.75,268.79-33.56,80.21-14.26,164.78-32.06,226.34-89.47,43.8-40.85,73.71-103.48,60-164-13.43-59.28-62.54-107.1-124.68-106.11-27.08.43-36.46,43.55-7.15,48.59,59.53,10.24,91.43,67.64,70.23,124.56-22.92,61.52-87.9,92.83-147,108.71C2984.83,3144,2852,3155.09,2725,3163.1a2888.14,2888.14,0,0,1-374.8-.77c-59.33-4-127-3.13-183.21-24.42-25.91-9.82-49.6-25.78-56.64-54.24-6.25-25.21,6-40.91,11.8-63.84,1.81-7.15-3.33-12.31-10-13Z"/><path class="cls-3" d="M2784.56,3015.66c144.34,2.51,297.84-27.6,415.52-115.19,26.51-19.74,2.53-62.85-26.36-44.26-120.28,77.39-243.5,133.34-388.83,135.18-15.83.2-16.33,24-.33,24.27Z"/><path class="cls-3" d="M2123,3044.05c-10.34,78.92-26.37,162.52-19.54,242.49,4.62,54.05,39.77,92.39,88.26,113.29,59,25.45,128.33,28.22,191.43,33.5a2161.39,2161.39,0,0,0,247,6.6c164.34-5.07,328.52-27.24,488-67.13,56.45-14.11,122.26-28.28,151-85,28.9-56.92,0-124.46,8.3-184.62,4.19-30.35-46.63-35.78-53.41-6.9-11.95,50.84,10.45,107.73-6.17,156.2-19.27,56.19-120.18,63.41-168.95,74.15a2310.31,2310.31,0,0,1-408.87,52.81c-126.11,4.83-266.56,10-390.36-18.49-61.82-14.24-94.4-44.54-96.22-110.05-1.93-69.32-4-137.77-8.47-206.88-.92-14.26-20.29-13.59-22.07,0Z"/><path class="cls-3" d="M2117.17,3290.38c-50-14-109,17.56-120.57,69.81-13.07,59.12,28.55,108.41,82.89,124.28,77,22.49,169.55,10.22,248.39,7.09,96.78-3.84,193.32-11.69,289.25-25.16,27.77-3.9,22.28-51.6-6.05-48.55-116,12.5-232,22.56-348.65,25.12-50.2,1.1-103.71,5.9-153.42-2.55-32.61-5.55-64.31-22.63-66.87-60.12-2.94-43.17,32.85-65.84,71.61-66.64,13.43-.28,16.88-19.52,3.42-23.28Z"/><path class="cls-3" d="M2016.43,3351.81c5.53,68.21-50.28,121.85-47,189.47,2.56,52.92,38.73,95.85,85.07,117.64,63.63,29.9,137.39,22.41,205.34,19.58,90.5-3.76,180.94-8.15,271.31-14.45,170.56-11.9,341.47-29.53,509-64.67,61.68-12.94,121.61-31.54,153.82-90.11,25.76-46.84,28-107.9-2.24-153-15.3-22.81-58.91-9-48.48,20.11,18.78,52.5,14.05,113.57-40.62,142.68-56.58,30.14-135.07,34.35-197.55,44.65-135.93,22.41-273.14,35.64-410.52,45.33-65.47,4.63-131,8.51-196.52,12.51-63.23,3.87-133.75,15.73-196.17.9-72.69-17.28-111.11-73.44-90.07-145.81,12.82-44.06,31.77-80.6,25.5-127.55-1.54-11.53-21.76-8.85-20.82,2.74Z"/><path class="cls-3" d="M1990.78,3509.58c-2.5,50.86-5.31,101.72-7.66,152.59-2.21,47.79-10,95.75-8.63,143.7,2.24,76,47.39,116.1,109.42,152.42,144.65,84.71,319,109.47,484.16,94.71,90.41-8.08,179.54-26.38,266.85-50.95,82.86-23.32,176.57-46,252.12-88.39,139.31-78.16,74.32-246.68,89.67-374.23,3.73-31-47.33-36.36-54.3-7-25.69,108.14,46.94,276.07-79.78,335-70.37,32.73-149,54.58-223.5,75.71-78.88,22.37-159.5,40.35-241.19,48.45-147.79,14.66-302.23.4-437.29-65-29.13-14.1-61.07-29.62-85.29-51.58-34.87-31.62-32.69-73.88-34.37-117.44-3.18-82.66-6-165.15-6.93-248-.15-14.84-22.56-14.59-23.28,0Z"/><path class="cls-3" d="M1937.19,3721.36c42.33,20.18,78.88,45.86,123.75,62a1384,1384,0,0,0,144.45,43.37c97.58,23.57,198.6,34.44,298.85,36.38,98,1.88,196.06-6.54,292.55-23.4,94.51-16.51,204.15-36.62,286.23-88.56,24-15.18,8-47.59-18.24-43.18-90.36,15.18-177.21,50.7-268,67.3-96.17,17.59-194,24.87-291.71,23.77-95.29-1.06-190-11.64-283.69-28.5-44.08-7.93-87.82-17.53-131.09-29.11-47.2-12.64-100.37-19.94-146.11-36.41-9.43-3.39-16.35,11.85-7,16.3Z"/><path class="cls-3" d="M1966.6,2775.37c173.47,84.3,351.43,94.63,540.7,66.72,97-14.32,192.66-36.88,287.42-61.93,50.24-13.29,100.14-27.73,150.1-42,46.47-13.3,98.88-21.65,141.09-45.42,20.7-11.66,12.44-45.77-12-44.85-43,1.61-85.58,18.59-126.89,30.08q-67,18.64-134.07,37.16c-91.73,25.27-184,48.92-277.72,65.58-181.76,32.3-384.26,40.75-559.94-25.4-11.6-4.37-20.1,14.54-8.67,20.09Z"/><path class="cls-3" d="M1928,2552.88c89.42,35.75,176.3,74.42,270.78,95.15a1327.2,1327.2,0,0,0,275.65,30.47c184,1.14,372.5-30.72,541.37-105,25.06-11,7.4-51.12-18.24-43.18-173.65,53.77-348.28,88-530.74,86.29-90.43-.84-180.48-9.27-269.69-24.08-89.05-14.78-178.25-30.07-262.27-63.67-15-6-21.9,18-6.86,24Z"/><path class="cls-3" d="M1926.49,2414.68c104.15-5.54,201.15,22.59,299.62,52.65,95,29,191.47,44.92,291.08,42.25,94-2.52,188.89-17.18,279.93-40.43,88.21-22.53,199.24-51.68,272.84-107.24,21.52-16.24,10.59-53.9-19.27-45.61-44.09,12.25-85.26,35.55-128.21,51.56a1380.23,1380.23,0,0,1-132.31,41.79c-98.22,25.75-198.56,40.29-300.1,42.48-190.25,4.11-373.73-76.89-563.25-62.31-16,1.23-16.82,25.74-.33,24.86Z"/><path class="cls-3" d="M1101.37,773.79c-13.44,14-15.52,34.19-18.22,52.78-2.88,19.92-6.4,42.17-.65,61.73,9,30.51,53.84,23.78,55.62-7.3,1-16.87-4.09-34-4.54-51-.42-15.89,3.83-33.44-1.85-48.52-4.59-12.22-20.3-18.23-30.36-7.71Z"/><path class="cls-3" d="M1373.75,815c-6,15.44-7.71,32.81-7.41,49.29.39,20.65,2.32,36.43,20.25,48.82,9,6.19,26.77,4.24,33.7-4.63,6.11-7.8,11.09-14.16,11.5-24.55.25-6.39-1.23-13.13-1.35-19.57-.26-14,1.6-27.84,2-41.78.46-14.64-11.52-27.21-25.68-28.82-15.53-1.76-27.48,7-33,21.24Z"/><path class="cls-3" d="M1434,1762.23c188.87,6.13,378.53-12.67,567.17-3.63,102,4.88,144.66,94.4,201.87,167.74,22.48,28.82,43.51,61.51,69,87.69,22.05,22.64,92.64,24.68,80,63.13-11.47,34.87,40.69,45.49,53.86,14.13,11.81-28.12,7.63-60.29-12.17-84-11.64-14-25.42-21-42.47-26.35-10.75-3.39-25.61-3.7-34.86-10.77-11.9-9.08-21.39-27.8-30.42-39.57-53.17-69.31-109-170-189.06-211.63-41.4-21.53-88-15.42-132.86-13.21-56.71,2.78-113.51,4-170.25,5.93-119.9,4.13-240.07,8.1-359.41,21-18.77,2-20.36,28.95-.4,29.6Z"/><path class="cls-3" d="M998.46,1709.57c-125.61,114.82-227.65,246.75-339.19,374.58l46.9,5.47c-61.79-104-125.62-207.1-178.57-316.06a1457.44,1457.44,0,0,1-68.92-166.5q-15.18-44.5-26.79-90c-5.23-20.56-23-61.42-16.63-81.86l-18,17.51-6.37-.65q-6-10.3-12-20.61c0,1.86.07,3.72.11,5.59.49,25.42,42.61,32.92,46.59,6,6.58-44.6-51.37-53.29-65-11.65-8.73,26.72,4.3,66.91,10,93.23,9.58,44.46,22.84,88.34,38.4,131,60,164.75,151.46,316.71,245.52,463.86,12.48,19.54,39.05,17.79,51.56-.49,93.78-137,208.42-261.1,310.74-391.65,10.13-12.93-5.88-29.21-18.37-17.79Z"/><path class="cls-3" d="M397,1606.49l-.51-1.17c-3.37-7.76-15.15-11.35-22.74-9-57.51,17.73-82,82.23-72,137.61,2,10.91,14.39,19.07,25,18.86l48.28-1-22.36-38.51c-53.83,69,27.82,179.81,104.86,123.19,17.59-12.93,7.36-38-14.47-34.28-41.94,7.07-74.75-24.81-45-63.43,12.31-16-4.47-39-22.36-38.51l-48.29,1.22,25,18.86c-7.49-40.23,13.88-64.91,40.82-90.94,4.55-4.4,7.87-12.93,5.3-19.18-.51-1.25-1-2.5-1.56-3.74Z"/><path class="cls-3" d="M1428.39,1342.73c-144.25,38.39-324.55,52.45-449-45.44-131.51-103.41-149.31-276-129.21-430.57,2.37-18.18-25.28-19.24-30.56-4-57.63,166.84-17.27,367,127,477.06,143.67,109.66,329.59,82.57,487.73,24.88,13.82-5,8.81-25.89-5.89-22Z"/></g></g></svg>