<svg xmlns="http://www.w3.org/2000/svg" viewBox="0 0 3129.04 3655.41"><defs><style>.cls-1{fill:#188C8C;}.cls-2{fill:#eceded;}.cls-3{fill:#594F56;}</style></defs><g id="Calque_2" data-name="Calque 2"><g id="Ebene_2" data-name="Ebene 2"><path class="cls-1" d="M892.27,2322.86c67-50.85,129.85-106.07,192-162.68l-45.13-33.6C980,2231.3,923.11,2337.47,862.41,2441.33c-13.26,22.69,20.26,49.07,37.44,27.87,104.32-128.7,225.31-242.89,362-336.7l-35-34.06q-152.6,220.62-303.32,442.49c-17.78,26.05,23.17,55.81,43.74,32.56q219.85-248.58,474.68-461.67l-47.64-35.47c-147.09,215.88-354.67,384.23-485,612.46-19.26,33.74,26.72,67.77,54,40.17a5245.9,5245.9,0,0,1,502.43-447.09l-58.07-43.23c-66.86,113.44-156.74,208.46-243.27,306.77-39.17,44.5-77.53,89.75-113,137.26-26.35,35.25-77.09,87.88-69.43,136.31,6,38.18,44,53.76,78.16,37.26,25.54-12.31,47.24-43,66.85-62.59q39.13-39.16,78.32-78.27Q1370,2551.35,1535,2387.47L1476.65,2344q-90.26,136.86-180.92,273.45c-27.5,41.56-56.5,82.47-81.87,125.37-15.51,26.21-41.56,63.49-36.4,95.9,3.94,24.7,23.73,43.28,49.64,43.59,34.05.41,61.67-32.56,84.23-53q124.51-113,249.22-225.84l-63.29-35.52c-16.57,55.81-40.14,107.9-73.13,156-22.22,32.4-28.25,48.05-9.58,83.27l-3.69-28.56c-.4,2.45-.79,4.9-1.19,7.36l37-27.54-4.13.35,32.31,18.13-2.79-3.65-6,44.93,2-2.28c31.86-36.76-22-88.32-53.58-51.88l-2,2.28c-9.8,11.31-16.48,31.31-6,44.93,10.31,13.43,21.11,22.95,39.23,21.42,15-1.27,34.25-10.46,37-27.54,2.11-13.06-3.41-24.73-2.5-35.92,1.31-16.16,2.06,3.37,3.93-.66,6.55-14.07,18.16-26.93,26.07-40.37,26.06-44.32,45.47-91.89,60.09-141.11,11.28-38-36.85-59.41-63.29-35.51q-83.19,75.18-166.52,150.2c-25.68,23.12-63.54,46.75-83.36,75q-29.61,11.58-6.7,27.34,12.82,27.43,19.54-6c11.19-10.47,18.52-31.57,26.69-44.47,79.55-125.65,162.58-249.26,244.18-373.59,23.52-35.84-29.47-72.27-58.35-43.44l-258.57,258.18q-62.7,62.59-125.5,125.06c-14.5,14.4-57.27,43.33-62.88,62.4q-18.78,11.36,7.22,14.52,15,15.63,20-1.19c8.36-5.37,20.53-31.51,25.68-38.94,117.37-169.28,278.7-302.88,383-482.13,22.61-38.84-27.45-67.45-58.07-43.23a5154.85,5154.85,0,0,0-498.72,450.67l53.95,40.17c128.22-228.65,335-398,478-616.35,19.95-30.47-23.32-56.33-47.64-35.47-167.78,143.87-325.4,298.91-471.16,465.08l43.73,32.56q150.23-222,299.57-444.6c13.92-20.85-14.5-48.65-35-34.06-139.22,98.89-263.38,213.7-370,347.3l37.45,27.87c59.93-104.36,123.78-206.51,185.2-310,17.23-29-21.77-54.4-45.13-33.59-61.12,54.45-121.28,109.6-177.27,169.34-15.82,16.88,6,47.83,25.89,32.69Z"/><path class="cls-2" d="M300.37,3417.23c-27.07,10.21-56,22.89-69,47.3-18.6,34.91,5.67,79.06,41.63,98.87s79.68,21.65,121.41,22.95c514.54,16.12,607.13,112.57,1117,45.75,31.41-4.12,489.4-89.65,514.2-108.11,281.19-209.22-632.91-284.3-742.62-277.33C962,3267,598.23,3304.86,300.37,3417.23Z"/><path class="cls-3" d="M1473.16,0C1087.67,19.7,662.91,240.83,515.79,611.84,441,800.47,401.41,1012.43,380.58,1213.45c-12.46,120.18-19.68,242.12-20.38,363-.46,79.82,17.42,157.53,61.17,225,47.18,72.74,114.54,130.58,180,186.27,76.48,65.08,157.55,127.3,247.32,173,184.36,93.91,378.41,84.71,566.15,4.09,178.27-76.56,335.63-216.08,411.93-396.67,79.25-187.56,66.91-397.22,61.57-596.23-5.31-197.94-27.57-422-194.54-554.19C1525.56,484.54,1294.91,486.91,1093.1,515.3c-37.8,5.32-30.32,69.72,8.23,66,164.17-15.77,351.44-22.57,498.84,63.59,160.14,93.6,199.33,279.35,208.85,451,9.55,172.12,21.72,356.82-15.33,526.33-39.87,182.44-155.47,330.69-314.51,426.51-158.27,95.35-355,143.5-532.17,74.79-91.16-35.35-173.86-92.58-249.5-153.63C635.24,1919.67,571.18,1867.08,519,1806c-118-138.08-83.28-328.48-71.1-496.31,14-192.81,49.51-383.74,103.79-569.33C610,541,715.88,390.17,890.23,275.24,1069.6,157,1270.08,94.61,1480.83,61.56,1516.24,56,1509-1.78,1473.16,0Z"/><path class="cls-3" d="M1081.78,419.9c106.31-47.79,210.58-89,327.17-103.41a929.63,929.63,0,0,1,153.23-6.05c43.7,1.85,139.12-2.35,162.9,44.36,17.08,33.54,67.19,4,51.44-29.77-47.38-101.64-239.36-83.68-328.55-76-134.74,11.65-279.47,50-390.78,129.57-25.93,18.53-4,54.13,24.59,41.28Z"/><path class="cls-3" d="M917.36,980.14c-26.62,48.06-28.86,111.44-1,159.59,16,27.69,58.46,8.67,51.87-21.51-9.09-41.68-12.42-77-4.33-119.31,5.15-27-32-44.9-46.5-18.77Z"/><path class="cls-3" d="M1307.29,1017.77c2.55,38.76,1.86,74.57-6.4,112.68-7.88,36.34,42.58,47.94,55.27,14.5,16-42.21,19.39-90.87,7.42-134.56-8.14-29.69-58.41-24.92-56.29,7.38Z"/><path class="cls-3" d="M1828.25,1135.53c58.81-36.29,149-36.35,202.35,11.62,26.69,24,47.05,63.57,35.51,100-14.4,45.44-72.87,57.14-108.36,30-27-20.65-62.48,11.41-38.86,38.45,37.16,42.55,105.15,42.79,151.72,15.26,53.44-31.59,69.78-96.53,50.84-153.39-43.23-129.76-215.93-156-317.79-83.2-25.25,18.06-2.56,58,24.59,41.28Z"/><path class="cls-3" d="M482.44,1084.26c-77.7-76.14-228.7-60.8-287.38,33-31.61,50.55-34.7,121.34-1.18,171.73,32,48.09,101,66,148.6,30.6,29.51-21.92,3.28-69.37-29.33-49.25-48.5,29.92-84.51-21.78-84-67,.44-39.59,20.75-72.6,54.9-91.86,53.43-30.12,119.31-23.81,168.33,11.24,22.7,16.22,49.74-19.2,30.08-38.47Z"/><path class="cls-3" d="M860.46,2129.78c-15.67,50.74-12.71,107.63-13.28,160.38q-1,93.78,5.54,187.48c8.07,115.51,20.73,233.91,51.5,345.78,9.58,34.81,58.85,19.49,54-14.46-16.9-117.88-37.77-234.18-45.17-353.29q-5.13-82.64-5-165.45c.1-53.24,7.57-108-1.46-160.59-4.18-24.29-39.75-20.32-46.08.15Z"/><path class="cls-3" d="M911.51,2920.7c130.69-9.51,261.64-18.4,392.72-20.06,65.42-.83,132.61,5.63,197.77,1.78,33.41-2,58.52-15.44,65.46-50.18,10.8-54-5.72-122.85-9.15-177.68q-6.35-101.16-12.79-202.32c-8.55-134.89-16.13-269.9-26.92-404.64-2.95-36.74-58.17-37.6-58.86-.06-.43,22.93-1.29,45.75-2.46,68.65-1.78,34.75,51.37,33.65,54.29.06,2-22.95,4.29-45.78,7-68.65l-58.86-.06c10.78,232.43,28,464.67,42.81,696.88,1.47,23,13.79,62.48-6.27,78.12-11.43,8.9-74.28-1.75-90-1.9q-78.76-.73-157.5,1.78c-115.16,3.72-229.36,13.09-343.26,30.34-27.49,4.16-22,50,6,47.94Z"/><path class="cls-3" d="M986.21,2903.71c-13.92,80-7.24,165.89-7.57,247.11q-.52,127.8-.42,255.61l31.49-30.4c-67.86,8-132.49,24.4-193.84,55.07-35.5,17.75-4.19,64.93,30.13,50.59,53.15-22.2,105.49-38.19,162.88-44.8,16.31-1.88,31.45-12.14,31.5-30.4q.31-127.8.09-255.61c-.14-81.3,6.91-167.22-7-247.33-4-23.16-43.27-22.84-47.28.16Z"/><path class="cls-3" d="M1319.26,2838.38c-8.2,129.92,10.82,263.74,23.3,393q4.79,49.6,9.55,99.21c2.68,28.37-1.95,69.19,10.19,95.2,9.92,21.28,42.63,29.35,61.66,40.83,35.15,21.21,66.6,47.22,98.61,72.76,27,21.52,63.63-12.09,39.36-39-43.43-48.06-98.49-83.57-156.17-112.27l15.14,26c-8.74-98.56-19.18-197-28.22-295.5-8.73-95.27-10.32-192.15-24.28-286.77-4.23-28.63-47.5-19.56-49.14,6.45Z"/><path class="cls-3" d="M73.58,2287.59c211,28.2,427.51,37.08,640.05,47.87l-29.27-29.07C674,2537.8,651.09,2769,620.75,2998.61q-5.88,44.47-12.21,88.89-4.21,29.67-8.66,59.3Q576,3167.4,545.43,3166c-51.12,8.21-105.19,8.21-156.8,10.1-119.76,4.4-239.49.57-358.83-10l29,28.82c1-275.2,12.6-550.27,32.93-824.7,2.75-37.12-55.86-36.59-58.55-.06C13,2644.65,2.52,2919.59,0,3194.83c-.15,16.8,13.41,27.44,29,28.82,134.27,11.86,269.05,15,403.69,7.81,56.26-3,126,1,179.7-16.74,42.65-14.06,43.66-55.61,49.26-93.86,39.6-270.36,64.31-541.83,82-814.41,1.09-16.81-14.27-27.86-29.28-29.08-209.79-17.1-423.06-37.79-633.58-39-27.63-.17-36.83,45.32-7.25,49.27Z"/><path class="cls-3" d="M377,2245.68c-82.46,11-121.51,115.43-85.26,184,14.17,26.79,63.14,7.89,51.47-21.34-20-50.07,5.51-96.62,52.85-117.52,28.62-12.63,6.13-48.49-19.06-45.14Z"/><path class="cls-3" d="M362.14,2311c7,15.16,14.15,32.21,18.1,48.6,4.14,17.19,1.74,33.82,2.07,51.24.63,33.18,43.36,34.37,54.68,7.06,18.5-44.62-.86-106.68-37.37-135.52-20.82-16.45-49.05,3.69-37.48,28.62Z"/><path class="cls-3" d="M408.19,2312.42c54.11,13.1,84.25,53.38,98.82,104.75,8.09,28.55,55.46,24,54.1-7.1-3.39-77.73-72.18-136.38-145.88-145.48-27.8-3.43-34.08,41.28-7,47.83Z"/><path class="cls-3" d="M692.35,2544.26C882.86,2587.48,877,2320,905.81,2207.72c9-35.13-39.66-44.44-52.79-13.85-39.93,93-3.54,304.76-153.57,302.14-27.65-.49-35.28,41.86-7.1,48.25Z"/><path class="cls-3" d="M1470.36,2138.07c36.8,82.71,73.53,166.47,129.39,238.45,24.1,31.06,52.07,57.63,79.12,85.94,12.72,13.31,42.08,37.08,44.58,55.43,3.87,28.44-16.6,15.71-42.26,13.13-204.72-20.6-409.8-45.4-615.15-58.57-31-2-40,50.07-8,54.31,122.79,16.26,246.42,26.76,369.69,38.73l186.74,18.14c42.41,4.12,113.57,26.22,153.93,3.57,75.78-42.53-27.7-145-61-178-87.24-86.52-141.54-186.2-192.38-297-13.54-29.51-57.87-3.76-44.69,25.87Z"/><path class="cls-3" d="M1193.31,2504.21c-57.09,12.36-99.52,59.19-117.3,113.35-4,12,2.52,26.64,13.5,32.55,50.34,27.1,118.72,13.3,147.75-37.88,14.89-26.25-22.39-55.69-43-32-18.88,21.77-47.88,33.78-75,19.65q6.77,16.28,13.51,32.55c12.39-40,42.49-65.93,79.41-83.42,26.68-12.64,7.38-50.53-18.93-44.83Z"/><path class="cls-3" d="M1227.34,2523.8c-27.86,19.81-54.7,46.13-58.35,82-2.86,28,9.27,58.41,34.47,72.65,58.22,32.89,97.9-34.67,134.63-67.07,24.4-21.52-7-51.71-32.09-40.54-14.94,6.65-26.93,18.2-38.1,29.91-7.24,7.59-17.68,24.09-28.2,27.12-10,2.88-13.29-6.76-13.14-16.14.3-19.49,18.83-36.55,30.57-50.29,16.92-19.82-5.74-54.75-29.79-37.63Z"/><path class="cls-3" d="M144.22,2561.66c157.64-7.38,314.11-17.76,472.09-18.75,34.11-.22,34.83-50.34.7-52-158.37-7.87-322.16-3.72-478.72,23.18-27.35,4.7-21.83,48.91,5.93,47.61Z"/><path class="cls-3" d="M165.62,2696c135.18-17.49,265-23.85,401.14-21.09,35.76.73,35-49.68.73-53.59-133.25-15.25-277.55-5.35-407.92,26.13-26.76,6.47-22.71,52.27,6.05,48.55Z"/><path class="cls-3" d="M150.9,2841.06c135.91-16.71,273.14-22.63,408.74-39.43,32.9-4.08,36.09-50.63.71-52.21-136.48-6.1-281.86,16.33-415.55,42.67-27.59,5.44-22.61,52.5,6.1,49Z"/><path class="cls-3" d="M165,2989.08c73.36,3.33,153,3.23,225.51-8.79,31-5.13,21.63-48.75-6.35-50.93-73.13-5.67-152.5,2.48-225.09,12.11-28.58,3.79-20.67,46.4,5.93,47.61Z"/><path class="cls-3" d="M417.42,2279.42c17.49-38.56,66-39.44,94.41-13.16,20.75,19.17,58.7-6.08,41.73-31.87-45.61-69.29-152-42.4-180.93,27-10.6,25.43,33.57,42.83,44.79,18.08Z"/><path class="cls-3" d="M1146.09,1753.94c273.93,80.13,542.79-195.17,454-467.61-10.13-31.07-56.64-18.59-50,13.41,23.11,112,1.21,230.13-79.75,314.92-80,83.77-199.33,112-311.17,93.71-29.6-4.83-43.46,36.66-13,45.57Z"/></g></g></svg>