<svg xmlns="http://www.w3.org/2000/svg" viewBox="0 0 2631.28 3130.19"><defs><style>.cls-1{fill:#188C8C;}.cls-2{fill:#ededed;}.cls-3{fill:#dadada;}.cls-4{fill:#594F56;}.cls-5{fill:#C2F2ED;}</style></defs><g id="Calque_2" data-name="Calque 2"><g id="Ebene_2" data-name="Ebene 2"><path class="cls-5" d="M187.54,81.92c-63.64,48.7-117.95,106.42-162,173.39-11.22,17.07,11.52,38.9,28.31,27.51L204.94,180.29l-29-28.14Q103.41,304.31,31.38,456.73c-10.06,21.33,15.78,42.83,33.75,25.13q111.2-109.56,223-218.51L253.93,237.9Q175,409.34,96,580.77c-10,21.71,17.37,46.53,35.43,26.38Q241.49,484.35,351,361l-35.45-26.39c-42.81,92.23-84.69,185-100.4,286.26-3,19.21,22.28,40.78,37.66,21.13l246.3-314.77-37.57-21.08q-73,171.85-146.13,343.7c-10.36,24.36,28.29,36.55,41.13,16.6Q552.3,362.19,748.09,57.92l-39.26-22C590,240.35,471.3,445,364.48,656c-4.9,9.69-3.67,25.2,8,30,34.11,14,60.74.41,83.57-27.73,40.76-50.21,73.57-109.17,109.47-163,74.5-111.67,149.21-223.19,222.65-335.56l-37.5-4.61c12.46,49.79-45.64,112.94-70.24,152.52L588,456.41,408,746.05c-13.53,21.75,20.06,47.48,36.2,27Q643.93,518.84,844.62,265.42l-40.26-30c-85.19,172-170.61,346.17-228,529.79-8.49,27.18,30.56,40.47,44.73,18Q735,603,848.86,422.65l-43.12-17.4q-47.62,120.14-83,244.33c-6.26,22,22.87,38,38.54,21.63,41.8-43.81,70.18-93.5,87.1-151.59,6.65-22.82-26.72-29.83-35-9.17-19.45,48.72-48.25,91.64-84.75,129.17l38.53,21.62q35.94-124.17,84-244.06c10.32-25.74-29.69-38.47-43.12-17.4Q693.46,579.68,578.82,759.57l44.72,18C685.24,599.12,766.35,430,848.63,260.29c14.75-30.43-24.78-50-44.27-24.84Q606.21,490.78,408,746.05l39.8,22.33L655.57,431c33.83-54.92,68-109.66,101.26-164.91,23.14-38.41,45.92-75.65,33.52-121.53-4.83-17.88-28-18.52-37.5-4.61C694.23,225.6,636.41,311.79,578.61,398Q537.82,458.85,497,519.69c-11.37,16.95-78.29,137.9-101.8,128.1l8,30C511,467.24,629.39,262.43,748.09,57.92c14.78-25.46-23.81-46.07-39.26-22L317.65,644.65l41.12,16.59q73-171.87,146.09-343.71c8.68-20.41-24.36-38-37.57-21.08Q344.1,453.79,220.91,611.14l37.66,21.13c15.15-97.56,54.64-186.86,95.93-275.78,10.09-21.71-17.45-46.56-35.45-26.39Q209.25,453.16,99.49,576.25l35.43,26.38L291.52,259c9.83-21.56-15.83-43.54-34.18-25.45Q146.16,343.11,34.74,452.43l33.75,25.13Q141,325.33,212.62,172.71c8.21-17.44-10.14-41.06-29-28.14L33.08,247.9l28.31,27.51c38-67.31,84.81-126.16,142.85-177.32,11.71-10.33-5.19-25-16.7-16.17Z"/><path class="cls-5" d="M429,909.65C456.71,855,496,812,546.93,778l-27.15-20.28C476,867.77,437.22,980,396.55,1091.22c-8.1,22.16,27.43,35.71,38,15.35,51.8-99.48,125.64-183.17,219-245.48l-32-23.91q-75.71,210.77-150.17,422c-8.64,24.52,28.53,37.42,41,16.56a1144.53,1144.53,0,0,1,207.1-254.89l-34.88-26Q594.41,1192,505,1389.5c-10.18,22.57,16.26,45,35.54,26.46l172.09-165.44-36.77-20.64q-57.65,164.67-115.23,329.36c-8,23,26.7,35,38.45,15.52,53.81-89.33,122.57-165.4,204.78-229.4l-33.51-24.94a2597.85,2597.85,0,0,0-154.82,386.23c-6.87,22.13,21.32,33.82,36.49,20.48q83.57-73.45,166.92-147.14l-34.23-25.48L584.78,1894.35c-13,22.12,16.21,40.36,33.92,25.25l214-182.7L799,1711.81a2493.65,2493.65,0,0,0-144.6,322.91c-7.16,19.6,21.55,34.3,34.79,19.52q78.88-88.11,158.11-175.91l-32.78-24.4c-54,97.06-90.39,201.1-107.72,310.87-3.88,24.59,24.39,34.85,39.09,15.77C792.42,2120.21,848,2071,911.11,2028.63l-29.18-28.35c-61.32,94.15-113.42,193-153.94,297.83-8.07,20.87,21.69,33.47,35.58,20a1625.55,1625.55,0,0,1,158-134.78l-28.87-28.06c-53.12,85.58-98.87,174.61-135.57,268.45-8.5,21.71,22.21,33.87,36.54,20.51,43.44-40.51,80.11-85.65,109.52-137.29l-40.54-10.55A710,710,0,0,1,832,2450c-7.58,24,30.15,33.22,37.75,9.9a884.49,884.49,0,0,0,36.41-163.52c2.88-22.78-30.33-27-40.54-10.56-29.28,47.09-63,89.88-102.89,128.4l36.54,20.51c33.82-91,76.6-177.82,130-259,11.3-17.2-11.88-40.14-28.87-28.05a1311.32,1311.32,0,0,0-166.89,141.23l35.58,20c38-102.08,87.25-198.66,149.82-287.88,12.49-17.82-12-39-29.18-28.35-70.63,44-130.23,101.27-180.7,167.2l39.08,15.78c16.43-106.35,50.39-207.27,102.53-301.47,11.16-20.16-16.74-42.28-32.78-24.4q-79,88-158,176l34.79,19.52A2416.78,2416.78,0,0,1,836.07,1732.6c12-22.17-15.74-40.37-33.69-25.08Q695.25,1798.77,588.16,1890l33.91,25.25,200.27-339.64c13-22.12-16.45-41.13-34.22-25.48q-83.52,73.51-167,147.06l36.5,20.48a2527.57,2527.57,0,0,1,149.57-376.6c11.23-22.75-15-39.4-33.51-24.95-84.54,66.15-155,146.69-211,238.22l38.46,15.52q58.62-164.4,117.09-328.87c7.74-21.75-22.12-34.58-36.78-20.63L508.54,1385q17.76,13.24,35.54,26.47,90.18-197.23,179-395.08c10.07-22.38-15.77-43.71-34.88-26a1208.32,1208.32,0,0,0-214.48,263.54l41,16.56q75.13-210.91,149-422.27c6.16-17.61-16.8-34.24-32-23.91-98.94,67.24-178.39,155.57-233.08,262.09l38,15.35c40-111.36,82-222.22,118.83-334.68,6.38-19.51-18.1-27.45-31-17.37-50.83,39.84-88,90.56-113.69,149.76-5.25,12.11,12,22.26,18.15,10.19Z"/><path class="cls-5" d="M619.16,2711.43c82.43-90.56,160.65-184.77,240.5-277.59l-27.9-15.65c-35.85,173-160.76,315.58-173.18,494.7-1.4,20.09,28.22,26.37,37.37,9.74,21.7-39.48,233-442.61,249.23-434.2q-4-14.76-7.91-29.51C846.48,2609.54,785.55,2778.68,729,2944.45l47.9,12.57A859.06,859.06,0,0,1,1106.86,2496l-35-26.16c-32.11,96.08-72.59,188.75-113.68,281.25-12.16,27.37,24.17,48.35,40.78,22.88a2384.19,2384.19,0,0,1,205.85-271.15l-40.5-16.25c-6,121.26-106.93,212.62-122,333.11-3.15,25.22,33.4,29.63,44.73,11.65a1012.15,1012.15,0,0,1,157.88-192.91l-40.09-22.49q-30.15,101.66-60.16,203.34c-8.52,28.91,36.71,40.07,45.23,11.87q30.7-101.51,61.17-203.08c7.11-23.68-23.54-38.21-40.09-22.5A1037.67,1037.67,0,0,0,1045.63,2808l44.73,11.65c14.69-120.35,115.34-209.4,121.4-333.11,1-20-27.19-31.41-40.49-16.25a2469.86,2469.86,0,0,0-213.1,280.73L999,2773.94c42.92-96,85.4-192.25,119-292.05,6.41-19-18.32-37.85-35-26.15C913,2574.82,789.24,2745.9,729,2944.45c-9.33,30.75,37.62,41.74,47.9,12.57,57.53-163.32,119.75-322.33,198.51-476.7,4.92-9.66,3.48-24.57-7.91-29.51-74.4-32.22-116.22,101.71-141.39,148.17L661.33,2903.2l37.37,9.73c11-175.43,139.68-314.34,165.25-486.3,2.13-14.36-16.25-30-27.91-15.66-77.91,96-157.48,190.57-232.71,288.67-7,9.11,8.34,20,15.83,11.79Z"/><path class="cls-1" d="M1500.46,1778.23c63.45-37.67,128.39-70.27,195.2-101.45q-14.67-18.51-29.32-37-91.87,102.7-183.1,206c-18.37,20.82,6,56.94,31.29,39.53,68.9-47.48,142.34-84.64,221.79-111.09l-19.94-47.21c-101.26,62.78-183.5,148.6-241.46,252.74-12.6,22.64,13.57,49.75,36.4,35.38l369.18-232.34-32.31-40.81-374.73,307.47c-19.85,16.29-1.49,42.36,18.6,44.6,83.25,9.31,151.54-51.69,215.47-96.12l239.11-166.18-32.46-41c-143.59,111.4-273.33,238.78-386.44,381.06-18,22.59,4.39,56.11,32.13,40.59q207.44-116.05,405.54-247.53L1939.3,1921c-151.54,108.79-304.91,221.69-402.17,384.59-13.33,22.33,13.43,46.74,35.15,34.16a4527.24,4527.24,0,0,0,429.24-282.21l-31.3-39.53-248.67,246.27c-22,21.77,6.07,52.88,31.74,40.09q110.7-55.17,221.11-110.9l-38-15.07c7.75,27.35,3.4,50.77-15.61,72.09-20.65,23.15,12.89,55.55,34.21,33.13,31.73-33.37,42.63-73.88,31.5-118.65-4.27-17.18-23.66-22.16-38-15.07q-110.91,54.78-221.49,110.25l31.74,40.09,248.14-246.77c20.2-20.08-7.4-57.33-31.29-39.53a4410.61,4410.61,0,0,1-429.1,282.44l35.16,34.17c92.73-155,239.46-262.32,383.8-365.73,26.85-19.23,2-62.47-26.11-43.82q-198,131.55-406.09,246.58l32.13,40.59c114.07-141.53,243.23-269.2,386.83-380.68,23.95-18.59-7.78-58.19-32.47-41L1710.51,1931.9c-61.39,42.68-138,118.45-217.74,109.56q9.3,22.3,18.59,44.6L1886,1778.5c23.58-19.36-7.23-56.6-32.31-40.8l-369.12,232.44,36.41,35.38c53.55-96.29,128.46-175.62,221.9-234.09,24.31-15.21,9.31-57.09-19.94-47.22-83.58,28.21-161.91,67-234.38,117.42l31.29,39.53q90.8-103.77,180.8-208.19c17.58-20.38-4.65-50.87-29.32-37-63.72,35.73-125.73,75.53-186.47,116.1-16.54,11-1.67,36.44,15.6,26.19Z"/><path class="cls-2" d="M782.54,2860.35c-28.13,11.57-58.16,25.94-71.67,53.59-19.33,39.54,5.89,89.56,43.27,112s82.82,24.52,126.2,26c534.79,18.25,631,127.52,1160.92,51.83,32.65-4.67,508.66-101.58,534.45-122.49,292.25-237-657.83-322.09-771.86-314.2C1470.27,2690.19,1092.14,2733,782.54,2860.35Z"/><path class="cls-3" d="M1805.12,2815.61A1789.92,1789.92,0,0,0,1339,2801.84c-59.85,6.1-130,22.35-146.65,66.63-13.34,35.54,17.64,73.83,59.6,92.33s92.18,21.74,140.57,23.83A4959.81,4959.81,0,0,0,2008,2973.08c55-4.46,118.46-14.26,143.22-52,32.7-49.78-29.88-107.68-97.87-128-101.53-30.29-224.6-13.2-305.64,42.43"/><path class="cls-4" d="M1762.22,20.2c-305.83,73.05-474,373.51-559.19,651.46-45,146.89-80.28,302.2-80.5,456.55-.19,128.49,34.13,230.25,118.33,327,88.19,101.39,201.19,191.07,322.3,249.77,113.51,55,234.94,64.23,346.55-3.08,117.37-70.78,190.55-193.74,254.2-311,72-132.52,149.54-265.92,191.4-411.78,21.69-75.58,33.34-157.13,10.35-233.85-23.81-79.43-78.24-146.67-143.74-196-162.79-122.71-378.45-125.14-571.77-96.47-35,5.19-28.07,65.58,7.63,61.24,163.57-19.87,341.63-27.54,488.12,60.86,127.8,77.14,190,204,156.85,350.31-30.78,136-100.14,261.38-166.38,382.78-57.7,105.76-113,216.93-204.06,298.67-91.38,82-205.29,101.75-317.2,52.5-110.2-48.51-210.35-125.85-294.07-211.63-80.58-82.57-127.72-164.89-133.32-281.9-6.59-137.66,21.33-276.55,57.26-408.75,37.92-139.5,85.55-278.62,165.92-399.84,91.66-138.23,213.61-239,362.94-309.34,16.22-7.64,4.63-31.41-11.62-27.53Z"/><path class="cls-4" d="M1627.81,866.61c-7,21.49-10.5,44.72-14.85,66.91-7.92,40.42,55,47,55.73,7.19.42-22.71,1.88-46.28-.43-68.87-2.29-22.37-33-28.05-40.45-5.23Z"/><path class="cls-4" d="M1869.93,898.32c-1.56,14.57-8.42,34.19-17.93,45.58-12.07,14.47-13.16,34.68,3.22,46.91,16.15,12.06,36.07,6,47.21-9.36a116.59,116.59,0,0,0,19.09-41.66c3.91-17,2.19-31.34-2.26-47.94-7.6-28.31-46.5-19.93-49.33,6.47Z"/><path class="cls-4" d="M1380,999.17c22.88,164.42,134.44,294.21,303.87,310.14,45.3,4.26,90.88.85,136-4.33,39-4.47,81.6-6.57,118.28-21.3,71.4-28.69,96.09-106.75,120.75-172.88,10.94-29.33-30.62-38.4-46-18.57-40,51.47-49.42,124-120.9,141.18-65.61,15.74-140.05,21.09-207.26,16.91-72.7-4.52-138.47-32.52-185.8-89-42.5-50.72-66.08-114.34-102.76-168.83-5.68-8.44-17.43-2.79-16.11,6.68Z"/><path class="cls-4" d="M1555.66,411.16c73.91-73.7,164.6-130.36,266-156.74,54.12-14.08,246.86-52.14,258.56,34.56,5.11,37.86,68.4,28.37,67.47-8.85-3.34-132.62-200.94-111.57-285.5-91.35-128.32,30.69-244.37,104-320.54,211.94-6,8.46,7.14,17.31,14,10.44Z"/><path class="cls-4" d="M1206,767c-5-96.28-136.48-100.11-182.23-31.13-24.92,37.58-29.76,89.26-10.19,130.17,25.37,53,88,58.45,118.93,103.76,16.28,23.8,53.65,3,39.91-23.09-26.29-50-101.49-61.43-116.24-115.91-20.77-76.74,91-144.7,123.46-60.34,4.92,12.79,27.18,12.5,26.36-3.46Z"/><path class="cls-4" d="M2336.17,1007c15.54-32.05,65.19-25.23,83.2,1.18,20.7,30.37,6.93,75.3-12.95,101.94-41.28,55.29-108.78,61.11-171.65,50.51-24.43-4.12-38.59,25.21-17.19,39.87,99.87,68.45,251.46-18,267.61-130.39,7.21-50.13-13.13-108.65-66.28-123.4-44.81-12.45-86.4,9.09-99.31,53.6-2.81,9.66,12.1,15.91,16.57,6.69Z"/><path class="cls-4" d="M1528.73,1671.29c-80.37,38.21-92.57,135.19-88.86,215,6,128.88,16.73,260.37,35.92,388,4.72,31.39,57.09,23.67,56.13-7.37-3.43-111.66-16.41-223.87-28.56-334.88-8.51-77.77-25.3-181.1,45.38-235.44,15.85-12.18-4.5-32.65-20-25.27Z"/><path class="cls-4" d="M1410.82,2347.89c93.57,28.24,187.9,40.55,285.83,43.78,95.59,3.16,198.75,5.56,292.87-12.8,38-7.42,29.29-64.61-8.12-65.12-94.24-1.29-189.26,10.06-283.84,10.12-94.84.06-189-1.47-283.64,2.94-12.15.56-15.29,17.4-3.1,21.08Z"/><path class="cls-4" d="M1932.94,1700.63c-8.25,3.18,37.42,134.7,41,148.8,14.14,55.84,24.37,112.71,28.4,170.21,3.69,52.53,3.34,105.3-2.57,157.66-6,52.6-30.58,109.36-26.17,162,1.78,21.21,31.06,39.49,47.47,19.05,45.18-56.28,49.13-150.45,52.85-220.28,4.32-81.4-2.7-164.8-23.73-243.68a736.17,736.17,0,0,0-39.54-110.88c-12-26.93-27.57-70.57-52.57-88.12-17.58-12.34-54.15-4.45-32,18.69,2.26,2.36,6.12,2.54,8.86,1l3.35-1.84c6.79-3.74,2.21-15.51-5.33-12.61Z"/><path class="cls-4" d="M1537.16,2387.23c.73,1.73,1.45,3.45,2.18,5.17l-11.25-6.31c-8.51,68.7-1.87,134.67,4.39,203.64,6,65.93,10.19,133.62,24.9,198.25,7.65,33.63,61.09,26,60.95-8-.45-103.83-19.66-213.39-38-315.52-4.17-23.23-7-77.3-37.31-83.37-10.67-2.14-18.77-.92-18.24,12.28.12,3,2.12,6.29,5.31,6.89l3.16.6c8.87,1.68,13-11.46,3.89-13.63Z"/><path class="cls-4" d="M1545.36,2796.84c-56.63,28.28-103.81,30.62-165.54,21.64-29.54-4.3-51.92,33.5-22,51,66.35,38.8,164,16.77,211.21-42.74,13.59-17.15-3.09-40.17-23.67-29.9Z"/><path class="cls-4" d="M1842.59,2389.11c-15.28,73.34-18.08,145.34-19.84,220.14-1.52,64.44-17.23,152.05,10.78,211.42,7.7,16.33,36.06,15.73,43.59-.42,28-60,12.38-145.92,10.85-210.93-1.76-74.92-4.39-146.85-19.79-220.29-2.62-12.51-23-12.38-25.59.08Z"/><path class="cls-4" d="M1860.87,2848.85c23.19,12.24,47.91,20.3,72.58,29,26.46,9.37,52.7,21.52,79.81,28.6,37.51,9.79,53.7-45.69,16.41-57.52-26.62-8.45-55.41-12.2-82.74-18.37-25.57-5.77-50.76-11.84-77-13.92-17.36-1.38-24.23,24.19-9.11,32.17Z"/><path class="cls-4" d="M1946.07,1687.19c54.63,75.92,123,142.91,188.24,209.66,52.83,54.09,113.58,118.75,192.69,129.59,65,8.91,123.53-28.47,145.75-89.81,25.41-70.16.74-152.91-41.74-211.17-13.54-18.57-42.75-7.6-38.29,15.88,11,57.8,43,116,18.69,174.88-29.67,72.06-102.87,45.48-151.71,10.51-51-36.52-94.76-85.68-140.51-128.39-48.88-45.64-98.72-92-153.56-130.43-11.16-7.82-27.71,7.95-19.56,19.28Z"/><path class="cls-4" d="M1461.57,1227.49c63.21,52.93,26.21,143.23,44.78,213.34,19.11,72.13,83.37,111,150.88,131.14,35,10.44,75.58,21.32,112.26,21.47,41.22.16,68.84-20.39,93.58-52,50.1-63.9,76.73-152.31,53.45-231.64-6.78-23.1-42.19-18.64-42.81,5.62-1.82,71.07-11.36,156.46-70,206-42,35.48-163.68-10.92-203-40.34-88.47-66.26-24.06-220.85-124.62-272.2-11.18-5.71-25.41,9.42-14.51,18.55Z"/><path class="cls-4" d="M2419.08,1716.57c-38.33-38.47-80.25-71.48-120.09-108.13-22.47-20.68-25.83-34.4,1.58-55.59,18.62-14.38,44.14-27.57,66.55-34,48.74-14.06,89,23.09,89,72.34-.07,55-47.67,86.67-88.88,112.85-23.49,14.93-9.16,54.23,19.23,45.54,67.36-20.63,127.26-85.24,127.37-158.33.1-65.63-49.06-130.45-117.56-132.23-60.28-1.57-165.85,46.8-173.84,114.44-3.53,29.8,14.18,50.63,36.73,67.35,46.43,34.44,97.67,63.24,148.58,90.32,9.07,4.82,19-6.87,11.36-14.53Z"/><path class="cls-4" d="M1501.93,1653.18c-135.47,56.87-276.76,128.38-428.16,97-34.06-7.06-87.71-15-90.1-57.42-1.82-32.32,9.9-54.1-3.49-86.08-18.37-43.9-59.49-68.22-105.95-69.81-26-.89-33.81,41.22-6.73,45.77,98.79,16.58,31.5,107.89,68.38,163.88,32.5,49.35,114.26,62.5,167.83,64.46,143.14,5.24,290.55-65.86,409.77-138.4,13.1-8,1.62-24.92-11.55-19.39Z"/><path class="cls-4" d="M256.67,109.42C232,173.77,233.93,241.57,275.56,299.61c33.66,46.93,90.91,81.25,149.85,78.07C585.09,369,604.63,157.89,559.3,43.77c-8.71-21.94-46.29-21.63-45.36,5.95,2.9,85.73,44.18,251.1-82.75,274.89C317.67,345.88,262.24,200,271.94,111.4c1-9.3-12.43-9.38-15.27-2Z"/><path class="cls-4" d="M183.2,54.61C33.57,141.93-33.32,335.65,16.07,499.4c46.83,155.28,221.09,307.72,392.13,288,27.66-3.19,42.14-48.29,7.87-53.53-75.65-11.56-142.34-22.72-207.24-67.28C145.34,623,93.5,558.6,69.12,485.18,19.38,335.35,81.19,171.69,194.86,69.34c8.26-7.44-2.44-20.11-11.66-14.73Z"/><path class="cls-4" d="M507.48,42.23c165.8,0,337.66,89.64,383.58,260,20.86,77.37,10.44,162-24,234-37,77.17-94.3,127.53-166.82,170.08-27.91,16.37-9.91,63.89,22.27,52.73,182.53-63.25,283-293.42,232.84-474-51-183.46-260.75-328-451.61-273.25-16.91,4.85-14.42,30.49,3.79,30.48Z"/><path class="cls-4" d="M411.18,778.32c11.07,140.08,20.83,278.07,42.46,417.34q32.52,209.41,72,417.59t85.44,414.85c31.32,139.8,59.14,283.56,102.4,420.19,9.7,30.63,54.41,18,48.79-13.07-25-138.59-62.88-275.75-92.42-413.54q-44.42-207.09-84.69-415.07-39.24-203.46-74.08-407.77C486.75,1057,455.31,917.12,427.9,776.12c-1.78-9.15-17.46-7.17-16.72,2.2Z"/><path class="cls-4" d="M662.51,746.8c19.32,130.23,62.35,256.93,88,386.21,26.41,132.91,45.51,267.06,64.15,401.25C853.6,1814.14,890.58,2096.38,944,2373.9c4.53,23.55,45.27,18.47,43.09-5.66-25.69-284.25-68.52-568.5-109-851-19.21-134-38.46-268.17-65.87-400.79-26.49-128.25-55.66-267.65-128.85-378.33-7.25-11-22.69-3.6-20.87,8.65Z"/><path class="cls-4" d="M756.64,2465c-64,32.73-113.56,69.64-146.77,136.08-31.73,63.47-44.53,136-31.66,206.1,21.61,117.74,153.3,237.35,277.64,183.12,24-10.45,11.14-46.88-12.51-46.69-47.73.38-89.06-2.28-129.83-30.85-46.2-32.39-72-84.6-78-139.89-11-100.8,42.21-235.89,130.14-292.84,9.69-6.27,1.21-20.23-9-15Z"/><path class="cls-4" d="M890.18,2995.6c-9.59-52-36.06-98.87-45.59-150.83-5.41-29.47-6.86-64.18,9-91.11,14.37-24.39,49.28-46.32,77.6-30.06,30.51,17.52,34.23,65.1,44.87,95,11.22,31.49,25.12,55.68,54.14,73.06,15.54,9.31,39.69-10.7,27.26-26.88-33.74-43.92-32.11-102.75-59.86-149.64-26-43.92-75.23-61.24-123.34-44.36-54.43,19.11-83.94,71.36-84.23,127.26-.39,76.16,45,143,86.14,203.39a7.71,7.71,0,0,0,14-5.8Z"/><path class="cls-4" d="M1090,2946.81c128.91-81.95,258-241.66,196.76-404-24-63.76-75.53-109.58-137.52-135.59-59.83-25.1-140.62-43.25-204.72-26.48-21.48,5.63-23,38.28-.39,43.57,52.64,12.34,106.4,9.53,158.55,26.72,56.79,18.72,109.46,55.32,130.12,113.77,51,144.35-77.55,262-158.11,362.71-8.35,10.44,2.34,27.59,15.31,19.35Z"/></g></g></svg>