<svg xmlns="http://www.w3.org/2000/svg" viewBox="0 0 3608.61 3240.55"><defs><style>.cls-1{fill:#eceded;}.cls-2{fill:#C2F2ED;}.cls-3{fill:#594F56;}.cls-4{fill:#188C8C;}</style></defs><g id="Calque_2" data-name="Calque 2"><g id="Ebene_2" data-name="Ebene 2"><path class="cls-1" d="M297.57,3016.28c-50.38,9.61-104.17,21.55-128.37,44.53-34.62,32.87,10.56,74.44,77.49,93.1s148.34,20.38,226,21.61c957.8,15.18,1130.16,106,2079.19,43.08,58.47-3.88,911-84.42,957.18-101.8,523.43-197-1178.16-267.7-1382.38-261.14C1529.26,2874.85,852,2910.46,297.57,3016.28Z"/><path class="cls-4" d="M641.81,2054.9c60.88-35.81,117.71-77.29,174.92-118.65l-36.37-35.35c-55.68,79.18-109.66,159.74-166.63,238-15.32,21.05,17.91,43.28,35.19,26.2C750.24,2065,864.78,1980.38,989.6,1911.81l-29.24-36.94Q817,2041,675.42,2208.63c-21.64,25.45,12.08,58.08,36.81,35.64a3850.58,3850.58,0,0,1,440.08-345.16L1119.79,1858c-142.27,167.18-332.24,287.75-460.49,467.64-21.8,30.58,23.79,55.6,48.13,35.83,148.3-120.41,304.16-230.61,466-332.1l-45.26-44c-65.58,89.11-151.72,159.73-232.83,234-39.71,36.35-78.9,73.42-114.53,113.84-21.57,24.48-58.95,58-53,94.4C745,2533.81,897.94,2381.26,924,2360.41q160.56-128.4,321.4-256.47l-47.12-45.62q-94.2,114.39-188.54,228.64c-29.39,35.64-106.56,103.77-98,155.66,11.38,69,88.74,20.53,118-.85q116.23-84.75,232.64-169.27l-49.78-37.2a371.08,371.08,0,0,1-32.25,66.58c-13.43,21.65-34.9,39.42-47.28,60.87-5.53,9.57-11.28,16.87-10.74,28.87.64,14,2.83,33.38,7.85,8.38l33.2-24.7,17.09,7,0,47.08,1.86-1.72c32.23-29.84-16.43-75.81-48.06-46.53l-1.86,1.72c-13.62,12.61-12.29,34.26,0,47.07,8.24,8.62,18.27,12.78,30.13,12,14-.94,30.14-9.54,33.19-24.7,2.4-11.93,2.06-19.78-2.19-31.18-6.29-16.83-.67,10.47-.56,10.41,8-4.26,16.26-19.64,21.75-26.8,27.47-35.85,47.69-74.9,63.41-117.13,10-26.85-26.66-54-49.78-37.2q-70.68,51.28-141.44,102.44l-66.63,48.1c-9,6.46-53.36,47.2-63.15,43.62l24.14,23.77c-3.12-10.56,42.16-56.66,50.11-66.54,24.35-30.25,49-60.22,73.57-90.32q70.21-86.2,140.45-172.41c27.39-33.59-14.1-72.11-47.12-45.62q-123.33,98.92-246.7,197.79-57.57,46.16-115.23,92.21c-6.68,5.31-82.73,54.23-35.27,62.4,4,.7,33.57-39.15,38.18-44.14,111.54-120.89,248.64-214.88,346.12-349,19.85-27.32-19-60.71-45.26-44a4740.43,4740.43,0,0,0-476.06,346l48.13,35.83c123.42-176.31,310.12-294.56,445.62-460.49,17.82-21.83-5.62-59.52-32.51-41.07-157.9,108.28-308.55,225.59-449.91,354.82l36.81,35.64Q853.8,2076.47,994.57,1908c16.9-20.33-4.4-51.18-29.24-36.93-127.25,73-244.51,159.22-348.09,263.34l35.19,26.2c56.51-79,116.15-155.85,174-233.89,15.7-21.19-15.64-50.33-36.37-35.35-58.93,42.61-117.89,84.76-172.56,132.76-17.44,15.32,5.19,42,24.36,30.77Z"/><path class="cls-3" d="M611.88,1879.84c-25.28,82.65-14.81,188.58-6.87,273.9,8.5,91.41,24,183.34,48,272,8.85,32.65,55.71,18.41,50.79-13.61-14.06-91.49-35.32-181.39-42.92-273.85-7-85,8.2-175.18-5.7-258.53-3.81-22.87-37.46-19.11-43.35.14Z"/><path class="cls-3" d="M659.91,2517.23C783,2509,906,2499.7,1029.45,2498c61.56-.85,124.77,5.26,186.09,1.63,31.24-1.85,54.72-14.39,61.22-46.89,9.44-47.25-5.1-107.51-8.63-155.42-3.78-51.14-7.91-102.26-12.06-153.38-8.75-107.52-16.54-215.11-25.4-322.62-2.84-34.42-51.36-34.32-54.42,0-.1,1.09-.19,2.19-.29,3.28l46.32-19c12.92,14.9,6-11.95,3.76-23.15-1.94-9.83-1.32-16.57-8.55-24.59-15.65-17.36-41.86-2-43.73,17.91-.1,1.09-.21,2.18-.31,3.28-3.07,32.74,47,31.13,51.09,0,.15-1.09.29-2.19.44-3.28l-43.73,17.91c-14.4-17.27-4.17-16.12-6.33-1.41-.9,6.13-.1,16.56.48,22.8,1.06,11.34.55,19.31,8.49,28.47,16.8,19.37,43.54,1.31,46.33-19l.45-3.28-54.42,0c8.41,184,27.54,367.47,40.18,551.24,1.49,21.67,12.89,56.85-6.29,71.53-11,8.42-69.71-1.63-84.67-1.77q-74.1-.71-148.19,1.61c-108.23,3.53-216,11.34-323,28.22-25.88,4.08-20.72,46.87,5.62,45.12Z"/><path class="cls-3" d="M730.2,2501.24c-12.55,75.39-6.39,156.06-6.71,232.51Q723,2854,723.1,2974.27l29.21-28.2c-63.78,7.57-124.53,22.94-182.18,51.76-32.92,16.46-3.88,60.2,27.94,46.91,50.08-20.93,99.38-36,153.47-42.22,15.12-1.74,29.17-11.26,29.21-28.19q.3-120.26.09-240.52c-.13-76.53,6.36-157.24-6.15-232.73-3.62-21.8-40.88-21.48-44.49.16Z"/><path class="cls-3" d="M1043.58,2439.76c-7.45,122.17,10.61,248.24,22.35,369.8q4.5,46.67,9,93.35c2.52,26.64-1.85,65,9.55,89.42,9.29,19.89,40.06,27.49,57.85,38.22,33.1,20,62.84,44.27,92.58,68.82,25.07,20.7,60.23-11.84,37-36.65-41.71-44.62-92.68-78.18-147.15-105.29q7,12.08,14,24.15c-8.21-92.74-18-185.33-26.54-278-8.22-89.62-9.49-180.82-22.44-269.84-3.91-26.91-44.74-18.42-46.24,6.07Z"/><path class="cls-3" d="M975.83,25.29C812.65-49,633.7,53.3,515.41,165.8c-127.26,121-189.48,287.92-240.58,451.91C183.12,912,33.92,1282.26,203.55,1577.32c89.84,156.28,263,242.63,431.58,287,157.72,41.47,330.07,46.37,487-1.37,356.42-108.46,549-533.1,501.55-885.92-14-104.21-50.11-204.39-91.66-300.58-34.18-79.12-78.4-156.93-148.69-209.35-157.1-117.2-407.44-90.42-562.49,14.61-28,18.94-3.4,60.87,26.46,44.43,141.17-77.78,348.53-116.22,491.25-18.72,118.21,80.76,174.17,260.12,207,392.17,45.06,181.4,18.48,367.41-60,535.7-71.16,152.58-162.24,285.34-321.79,352.86-136.22,57.64-293.58,64.3-437.89,38.77-155.83-27.57-323.06-90.69-428.74-213.44-195.54-227.11-99.33-574.62-15.65-827.08C335.55,623.06,373.5,448.18,468,301.94,566.46,149.54,773-7,963.27,54.4c16.89,5.45,29.5-21.39,12.56-29.11Z"/><path class="cls-3" d="M650.68,424.35C808.8,299.76,985.89,192.26,1194.37,213.87c34.71,3.59,44.43-55.69,8.92-60.65-227.13-31.73-402.76,125.6-566.18,258-9.67,7.84,4.15,20.56,13.57,13.14Z"/><path class="cls-3" d="M189.86,1091.93c-30.65-61.7-120.33-67.43-164.7-17.38-65.26,73.62,9.93,174.4,72.38,219,24.56,17.54,53.09-20.49,32.34-41.36-30.76-31-90.78-83-69.66-133.71,15.37-36.86,74.09-36.87,96.75-7.51,14.33,18.58,43.88,3.08,32.89-19Z"/><path class="cls-3" d="M771.13,848.76c-21.61,10.57-29.48,36.38-34.2,58.33C732,930,727.45,959,741.38,979.44c9.25,13.58,34.34,17.3,42.35-.41,8.87-19.61,6.33-40.2,8.76-61.22,2.26-19.53,10.88-39.13,4.83-58.67-3.6-11.59-15.78-15.47-26.19-10.38Z"/><path class="cls-3" d="M1004.35,898.28c-24.59,21.71-31.59,75.66-23.69,105.77,6.55,24.92,39.13,20.73,47.3-.16,6-15.27,7.33-31.46,10.19-47.49s7.87-32.29,4.15-48.49c-4-17.6-26-20.22-37.95-9.63Z"/><path class="cls-2" d="M2264.59,1734.41c59.56-38.57,119.48-76.63,181-112l-32-31.1c-55.89,78.73-111,158-166.34,237.15-18.69,26.7,20.56,48.14,41.71,31.06,70.76-57.11,141.09-114.74,211.6-172.15l-37.69-36.49-203.52,256.39c-17.81,22.45,4.49,56.75,32.21,40.69a1761.86,1761.86,0,0,0,329.93-246.77l-37.69-36.5-306.93,320.68c-20,21,7.32,59.14,32.21,40.69l493.21-365.67q-16.09-20.34-32.2-40.69-268.6,283.62-537,567.4c-23.67,25,12.22,58,37.35,36.18l518.52-450.66-43.47-24.39c-77,218.67-335.27,302-437.86,506.24-14.18,28.23,18.85,49.17,41.74,31.08,146.17-115.6,293.37-230.18,437.66-348.13l-40-29.78c-77.71,117.83-157.2,234.48-236.25,351.42-15.28,22.6,17.49,41.88,35.56,26.47q117.43-100.12,235.51-199.48l-37.42-21c-19.61,70.95-48.89,136-85.64,199.67-12.37,21.42,18.82,46.05,35.26,26.25a224,224,0,0,1,16.35-19q22-28.64,65.55.24c-.58,23.37,33.4,22,36,0,3.81-32-17.95-58.9-50-65.27-41.22-8.2-75,25.63-99.66,53.24l35.25,26.24c40.82-65.13,69.8-136.07,90.05-210.1,6.26-22.89-21.37-34.61-37.43-21q-117.72,99.83-235.85,199.16l35.56,26.47c80.08-116.43,159.74-233.16,241.14-348.68,18.3-26-19.74-45.35-40-29.78-147.88,113.55-293.18,230.69-439.22,346.61l41.74,31.08c104.59-209.23,362-292,442.11-518.84,9.36-26.51-25.87-39.66-43.47-24.4L2233.07,2187.1l37.35,36.18q268.77-283.47,537.38-567.08c19.88-21-7.25-59.19-32.21-40.69l-493.21,365.67,32.2,40.69,306.93-320.68c23.82-24.89-13.12-59.8-37.69-36.5a1701,1701,0,0,1-319,238.39l32.21,40.69q101.74-128.2,203.51-256.4c21.4-26.95-11.21-58-37.69-36.49-70.51,57.39-141.2,114.57-211.47,172.26l41.72,31.06c53.73-80,107.76-159.81,161-240.17,13.08-19.76-12.89-42.92-32-31.1-62.06,38.38-121.9,78.93-179.25,124-16.08,12.64,5,38.33,21.74,27.46Z"/><path class="cls-3" d="M2350.91,26.7c-152.8-16.73-272.58,115.38-338,239-80.36,152-75.26,324.78-69.89,491.66,8.38,260.26-1.72,593.69,224.49,774.09,125,99.68,297.34,118.22,451.63,102,140.66-14.83,280.66-61.64,393.83-148.06,246.83-188.5,282.41-577.55,153.42-845.25-39.35-81.66-96.07-152.92-156-220.35-53.37-60-115.5-117.35-193.45-142.58C2652.69,224,2458.21,319.4,2353.87,444.68c-21.85,26.23,16,62.55,37.69,36.5,90-108,251.93-195.49,396.27-157.9,126.61,33,234.42,178.32,298.56,285.19,76.3,127.14,102.88,273.18,89.84,419.94-12.71,143-46.09,278.76-153.47,380.4-95.17,90.07-222.12,142-349.8,164.8-140.11,25-304.24,21.18-429.36-53.34-209.42-124.73-239.6-412.14-244.27-631.51-3.4-160-23.83-331,17.54-487.68C2056.3,251.82,2180.5,68.32,2350.44,62c23.41-.88,23.21-32.76.47-35.25Z"/><path class="cls-3" d="M2261.76,1599.92c-19.73,215.11-21.62,430-49.52,644.81-4.35,33.53,49.08,32.92,53.34.06,27.34-210.49,55.41-432.43,39.85-644.83-2-27.74-41.16-27.43-43.67,0Z"/><path class="cls-3" d="M2288.57,2230c186.82,41.23,382.77,45,573.56,44.4,34.12-.11,35.1-51.39.71-52.23-190.1-4.65-381.2-20.29-571.2-13-11.64.45-15.6,18.09-3.07,20.86Z"/><path class="cls-3" d="M2847.35,2198.71c28.27-100.29,12.59-211.93,14.75-315.28,2.33-111.23,8.21-222.31,17-333.21,2.68-33.8-50.7-33.3-53.34,0-8.82,110.89-14.7,222-17,333.2C2806.61,1986,2793,2100.74,2828,2198.78c3.18,8.88,16.53,9.79,19.31-.07Z"/><path class="cls-3" d="M2220.71,451.25c104.82-147.91,238.33-287,421.09-326.72,35.58-7.74,20.76-58.9-14.17-52.87-208.06,35.91-315.7,209-425.33,369.26-7.79,11.4,10.72,21.19,18.41,10.33Z"/><path class="cls-3" d="M2013.55,1125.88c-47.65-43.57-139.7-26.6-159.25,39.14-24.68,83,72.09,133.64,135,155.83,32,11.28,46.68-39.06,14.39-50.45-33.22-11.72-99.16-37.23-99.39-80.77-.21-40,58.52-50.38,86.19-34.28,17.91,10.43,39.18-14.71,23-29.47Z"/><path class="cls-3" d="M2189.89,1585.07c-26.7,37.47-25.44,93.9-29.58,138.52-5.39,58.18-9,116.68-10.64,175.09-3.35,116.81-1.65,233.84,6.24,350.43,1.37,20.19,17.3,30.89,36.62,27.62,33.6-5.69,67.31-10.79,100.56-18.27,29.12-6.55,24.42-55.33-6.51-52.25-36.48,3.63-72.61,9.77-108.83,15.35l36.61,27.61c-6.09-116.77-9.26-233.52-6.54-350.44,1.27-55,3-109.89,5.64-164.8,2.34-48.07,14.5-104.11-5.71-149-3.45-7.67-14-5.31-17.86.17Z"/><path class="cls-3" d="M2146.53,1646.31c-52.37,5.36-162.16-7.15-189.81,50.7-17.68,37,.54,98.06,4.07,137.06q6.49,71.92,13.4,143.82,14.77,154,31.4,307.91c3.45,32,.14,79,20.92,106s54.77,24.59,86.07,26.5c106,6.46,212,12.1,318,17.87,98.67,5.37,200.41,18.64,299.18,14.25,59.75-2.66,125-22.63,147.56-83.8,18.32-49.62,4.93-108.81-49.79-124.88-28.58-8.4-41.67,29.44-19.5,45.22,25.34,18,24.55,55.47,4.65,77.9-21.32,24-60.57,27.34-90.06,28.25-64.85,2-131.14-6.05-195.86-9.67-140.33-7.86-284.45-6.77-424-23.12-10.94-1.28-23.5,1.69-31.58-8-6-7.21-6.56-55.79-7.72-66.42q-5.61-51.29-11-102.6-10.26-97.49-19.83-195.05-10.06-102.69-19.32-205.47c-3.94-43.72-12-62.89,35.63-73.92,35.44-8.21,67-21.06,101.44-31.74,16.23-5,15-32.7-3.83-30.77Z"/><path class="cls-3" d="M2824.65,2362.21c-18.06,31.66-13.94,64.83-13.15,100.95,1,46.2,3.58,92.47,6,138.63,3.84,73.68,2.18,151.67,19.32,223.87,17.26,72.7,52.84,103.27,125.05,119.22,67.68,14.95,140.6,16.77,208.09-.25,46.52-11.74,95.81-37.62,113.46-85.26,14.22-38.39,3.08-87.66-30.16-112.79-24.26-18.34-46.59-15.13-75.94-13.93a663.77,663.77,0,0,1-103.09-4.06c-58.71-6.64-132.95-18.5-177.45,29.31-9.64,10.35-3.33,29,11.9,28.56,44.48-1.43,85.53-7,130.23-1.9,46.94,5.35,90.68,7.16,137.61,6.89,34.84-.19,62.63-2.13,59.24,37.79-1.91,22.6-19.54,39.14-38.11,49.7-44.06,25-102.54,27.37-151.77,25-68.46-3.27-139.54-15.1-156.64-92.35-10.54-47.58-10.32-97.33-12.58-145.79-2.66-56.89-5.44-113.77-9.09-170.62-2.79-43.37,1.17-96.77-25-133.17-4.34-6-13.82-6.92-17.86.18Z"/><path class="cls-3" d="M2333.43,2548.46c-53.75-20.56-106.29,28.17-106.13,83.68.16,56.17,48.9,107.81,105.66,107.68,57.63-.12,110.52-51.23,109.49-109.35-1-57.65-58.45-117.28-118.21-100-20,5.78-20.1,33.27-.35,39.37,27.91,8.62,59.54,21.12,65.38,54,5.71,32.09-23.14,65.11-55.63,65.39-71,.6-73.52-109.73-3.47-118.66,12.75-1.63,16-17.28,3.26-22.14Z"/><path class="cls-3" d="M2382.36,2050.12c-263.56-87.9-478.95,146.63-585,360.25-54.13,109-83.79,224.1-60.67,345.52,20.87,109.6,80.32,211.3,160.25,288.44,171.31,165.35,421.82,192.83,637.78,104.48,221.52-90.63,419-309,420.07-558.65.6-135.26-65.85-262.54-163.11-353.93-105.93-99.53-249.38-197.71-394-224.86-34.75-6.53-51,45.53-15.21,53.29,119.91,26,223,94,319.28,167.45,86.24,65.76,157,150.15,185.28,256.74,60.62,228.22-101.78,456.81-291.64,567.25-176.88,102.89-404.65,123.1-581.22,8.69-175.41-113.66-271.76-330.56-205.88-533.25,76.22-234.55,289.38-501.15,565.09-449.89,20.71,3.85,29.56-24.67,9-31.53Z"/><path class="cls-3" d="M2031,2137.77c-35.45,53.12,52.82,152.61,80.25,194.48,52.37,80,105.38,163.47,170.06,234.09,14.57,15.92,41.32-4.72,30.42-23.22-44.38-75.33-98.92-145.4-147.48-218.14q-33.8-50.64-67.09-101.63c-18.36-28.07-31-62.9-53.33-87.35-3.69-4-10.13-2.28-12.83,1.77Z"/><path class="cls-3" d="M2357.11,2553.13c20.06-71.44,20.37-149.63,25.27-223.25,5.35-80.29,13.11-160.69,16.7-241.05,1.47-32.84-46.88-30.84-50.67,0-9.82,79.7-13.87,160.85-17.92,241-3.71,73.41-10.23,151,4.74,223.38,2.3,11.16,19,10.08,21.88-.07Z"/><path class="cls-3" d="M2415.52,2617.67c72.2-45.67,130-119.32,186.08-182.83q44.47-50.33,87.81-101.72c24.56-29.18,52.09-56.21,66-92,5.86-15.11-14-27.05-26.35-19.69-33.78,20.11-57.62,54.25-83.39,83.61-29.54,33.65-59.18,67.24-88.5,101.08-53.68,62-118.21,124.48-155.47,198-4.36,8.61,4.93,19.13,13.87,13.48Z"/><path class="cls-3" d="M2409.72,2662.34c81.58,2.19,163,3.43,244.59,3.84,78.17.39,160.39,18.1,237.8,11.34,21.6-1.88,26.74-29.68,5.47-37.22-151.48-53.7-332.63-21.51-487.5-4.07-16.51,1.86-18,25.64-.36,26.11Z"/><path class="cls-3" d="M2370.11,2726.2c54.44,57,124.45,100.09,186.62,148.11,28.7,22.17,56.7,45.1,83.63,69.39,26,23.45,48.76,52.12,79,69.85,20.87,12.25,40.45-11.53,31.53-31.09-28.38-62.19-107.63-110.77-161.28-150.19-62-45.54-131.55-106.85-206-128.84-13.4-4-22.81,13.06-13.53,22.77Z"/><path class="cls-3" d="M2270.74,2730.76c-9.48,69.94-5.08,141.88-6.42,212.37-1.33,69.71-10,142.87-3.84,212.17,1.89,21.47,34.74,28.86,40.24,5.2,16.14-69.45,15.07-146.21,16.52-217.31,1.47-72,4.18-146.31-10.1-217.21-4.4-21.88-33.89-13.72-36.4,4.78Z"/><path class="cls-3" d="M2221.09,2661.24c-36.79,6.17-70.75,34.33-101.58,54.32-33.55,21.76-66.53,44.64-98.82,68.22-57.32,41.83-131,91.21-160.3,157.83-7.11,16.19,9.16,38.58,27.06,26.29,61.71-42.38,114.08-101,173.44-147.23,31.44-24.51,63.93-47.59,95.56-71.84,27.14-20.82,61.22-40.42,77.29-71.4,4.78-9.22-3.11-17.79-12.65-16.19Z"/><path class="cls-3" d="M2230.39,2588.71c-55.91-40.16-146.07-45.63-211.93-62.81-76.47-20-151.88-48.27-229.39-63.55-25.56-5-46.71,32.08-19.38,44.92,73.33,34.48,155.07,53,233.45,72.34,66.38,16.39,155.75,49.19,224,32.13,11.56-2.89,11.79-16.89,3.24-23Z"/><path class="cls-3" d="M2972.49,2917.6c-79-11.22-122.12,60.57-130.28,133.45-8.3,74.13,72,128.76,139.08,130.2,67.38,1.45,133.15-47,151.26-112.26,15.51-55.87-9.5-144.12-77.81-146.67-16.76-.63-26.95,21.67-14.3,33.31,26.24,24.16,50.23,43.54,48.81,82.93-1.6,44.38-36.74,82.67-78.95,93.08-48.84,12.05-113.21-13.36-118.29-67.19-4-42.1,23.61-123.64,76.75-121.5,14.4.58,18.76-23.22,3.73-25.35Z"/><path class="cls-3" d="M2968.34,3012.83c-18.63,9.28-36.49,23.36-34.12,46.42,2.84,27.69,31.42,33.67,54.31,27.42,19.36-5.29,43.25-16.15,46.69-38.38,2.87-18.53-9.54-39.42-29.94-38.19-16,1-19.43,22-4,27.28-3.23-1.12-.06-.93-.75,1.38s-.86,2.58-3.11,4.51c-4.74,4.07-13,5.18-18.72,6.66-1.51.39-8.44,3.13-9.88,1.74-.41-.4.58.83.09-1.46-1.65-7.65,8.3-16,12.72-20.59,8.93-9.25-2.41-22.2-13.28-16.79Z"/><path class="cls-3" d="M2291.77,688c-4.95,15.3-3.15,32.41-1.57,48.2,1.67,16.62,2.63,34.44,11.55,48.92,10.73,17.41,43.59,16.13,47.7-6.48,3.08-16.91-.8-32.94-3.23-49.79-2.34-16.15-3.47-31.85-10-46.88-8.81-20.2-38.76-11.47-44.43,6Z"/><path class="cls-3" d="M2576.16,641.85c-4.37,19.64.1,39.35,1.05,59.27,1,20.38-.53,40.54,2.62,60.74,4.33,27.82,45.79,23.27,52.76-.18,6.2-20.85,5.09-43.15,3.09-64.62-1.91-20.6-3.32-43.87-15.48-61.19-10.89-15.51-39.31-15.29-44,6Z"/><path class="cls-3" d="M2834,1142.86c-93.48,71.48-203.57,132.91-324.53,131.24-124.4-1.71-213.54-73.12-256.87-187.42-11-29.07-58.81-17.2-48.45,13,44.29,129,132,214.2,271.78,227.19,148.67,13.81,280.2-60.58,391.11-152,23.6-19.46-10.09-49.53-33-32Z"/><path class="cls-3" d="M2207.84,1159.75c12.23-51.42,43.34-81.2,91-101.7,27.52-11.84,7.61-52.57-19.45-46-62.42,15-117.8,76.16-117.17,141.85.24,25.52,39.55,31.52,45.64,5.9Z"/><path class="cls-3" d="M3219.66,788.78c2.84-18.62,5-39.66,19-53.83,16.33-16.57,36.52-10.63,47.93,8.66,25.4,43-18,83.62-45,112.12-18.19,19.19,6.58,54,29.44,37.19,61.39-45.25,113.06-140.11,40.54-201.29-65.06-54.89-146.66,18-138.53,91.13,2.65,23.82,42.29,34.41,46.63,6Z"/><path class="cls-3" d="M2837.92,2245.89c31,34.05,64.77,64.32,99.25,94.77,35.72,31.53,75.34,54.24,69.57,107.4-10.21,93.89-17.87,187.64-19.51,282.1-.26,15.3,13.37,29.22,28.87,28.68,39.81-1.4,79.84-.15,118.94-8.44,22.25-4.73,24.1-41.4.4-45.37-39.32-6.58-78.8-3.82-118.56-3.48l28.87,28.67c3.53-59.29,7.33-118.64,12.43-177.82,4.08-47.24,22.74-109.46,10.18-155.9-10.14-37.45-47.69-60.51-76.66-82.23-43.77-32.81-87.15-65.49-134.38-93.2-15.75-9.25-31.37,11.68-19.4,24.82Z"/><path class="cls-3" d="M2864.36,2236.33c43.4,26.89,88.16,49.85,133.47,73.28,37.89,19.6,84.89,37.74,117.43,65.06,33.74,28.32,26.49,106,30.49,149.06,5,54.16,9.78,108.35,15.44,162.44,1.22,11.66,8.08,26.15,21.57,28,23.74,3.2,45.17,6.7,69,5.23,28.5-1.76,34.41-38.84,7.13-48.45-20.48-7.22-38.73-9.59-60.2-12.67l21.57,28c-6.5-67.75-14.26-135.38-21.55-203.05-4.39-40.73.46-99.67-27.47-133-29.83-35.56-89.38-56.54-130.29-75.78-54.7-25.72-108.89-46.08-168.6-56.68-11.07-2-18.43,12.11-8,18.57Z"/><path class="cls-3" d="M2840.48,1638.73C2901,1735,2966.2,1828.32,3025.4,1925.52c28,45.9,74.31,98.62,60.89,154.61-14.14,59-35.72,116.63-59.64,172.26-5.8,13.47,6.29,30.25,19.25,33.29q45.09,21.8,29.66,61.17c-4.8,17.26,17.7,29.53,30.05,16.87,48-49.25,18.22-115-44.72-130.59q8.24,19.86,16.48,39.72c26.57-59.82,52.39-122.1,65.26-186.55,11.16-55.88-10-89.68-39.51-136-72.61-114.23-150.78-227.12-241.92-327.36-9.78-10.76-28.57,3.33-20.72,15.82Z"/><path class="cls-3" d="M2288.71,1599.25c-73.88-36.2-158.3-50-239.63-57.72-28-2.66-60.83-8.92-85.54,8-26.68,18.31-43.26,55-56.1,83.34-28.93,63.84-53.52,151.95-49.26,222.91,4.11,68.53,59.84,107.23,111.08,143.44l26.82-45.17c-42.63-21-92.45,5.46-94.76,54.71-3.18,67.69,69.73,91.88,124.19,92.79,26.66.45,35-42.33,6.94-47.16a330.56,330.56,0,0,1-34.15-6.82q-50.47-5-22.79-45.83c28.24,10,46.43-33,20.57-47.69-24.55-13.9-49.57-29.16-67.74-51.14-25.57-30.94-23.65-62.07-17.74-100.29,8.69-56.26,20.68-114.28,46.92-165.29,12.76-24.79,22.91-47.22,51.34-52,28.14-4.7,67.55,5,95.79,8.63,59.45,7.62,117.78,21.84,177.23,29.3,12.91,1.62,18.22-18.52,6.83-24.1Z"/><path class="cls-3" d="M1965.75,1749.21c-83.48-17.88-176.68-7.6-261.57-6.84-22.27.2-36.4,23.72-25.69,43.27,28.33,51.69,39.89,93.51,107.83,95.44s157.48-6.92,221.44-30.19c25.49-9.27,24.6-49.86-6.13-49.2-51.42,1.11-102.73,14.26-154,19.27-21.12,2.06-53.8,9.73-74.59,2.75-22.85-7.69-33-47.41-43.92-67.36l-25.7,43.27c85.11-1,178.76,7.39,262-12.14,19-4.45,20.1-34,.34-38.27Z"/><path class="cls-3" d="M712.26,1898.17c88.34,55.56,181,104,275.31,148.65q70.73,33.51,142.94,63.73c44.22,18.48,90.83,42.35,139.09,46.52,92.3,8,170.09-74.14,237.91-125.33,85.53-64.55,175.7-125.84,256.67-196,23.86-20.69-7.64-59.8-33.72-42.59-78.94,52.07-152.56,113.9-227.8,171.18-72.46,55.19-160.44,155.41-259.15,130.76-89.83-22.44-180.18-72-263.6-111.66-82.59-39.27-163.26-82.18-244.16-124.78-26-13.68-48.85,23.62-23.49,39.57Z"/><path class="cls-3" d="M1178.93,1830.1c60.63,46.12,121.62,95.09,186.46,135.16,50.3,31.08,85,14.45,126.74-21.8,58.55-50.9,116.27-102.81,174.31-154.3,30.25-26.84,60-54.47,90.8-80.63,60.64-51.44,78.87,14,85.8,63.43,4.2,30,54.91,22.7,53.7-7-2.33-57-19.31-129.64-87.63-137.64-61.83-7.25-113,58.07-154.15,94.6-65.57,58.19-130.17,117.62-196.53,174.91-28.28,24.41-35.69,33.49-72.44,13.89-20.56-11-39.6-26.93-59-39.91q-59.12-39.62-119.44-77.3c-21.7-13.56-50.23,20.23-28.65,36.64Z"/><path class="cls-3" d="M1604.75,930.21c12-16.78,33-31.4,54.36-26.29,19.7,4.72,38.61,30,48.49,46.82,26.77,45.62-23.37,66.12-59.63,75.7-17.44,4.61-16.29,27.76-.29,33.17,36.48,12.35,76.53-2.82,100.22-32.3,27.28-33.95,21.26-75.85-2.69-109.76-23-32.63-55.81-64.88-99-59.14-34.88,4.64-63.39,30.12-64.05,65.9-.24,12.93,16.12,15,22.64,5.9Z"/><path class="cls-3" d="M1178.28,1335.37c-110.43,136.08-301.86,215-475.38,183.5-171.1-31.09-299.4-183.12-270.74-359.81,4.58-28.19-36.67-39.94-44-11.54-49.25,191.41,99.37,381.48,280.2,429,189.71,49.85,460.51-32.91,530.21-229.75,4-11.16-12.84-20.61-20.32-11.4Z"/><path class="cls-3" d="M340,1182.05c26.68-4.45,49.82-19.76,77.34-22.87,25.52-2.87,50.54,3.87,76.06-.56,10.64-1.85,18.16-17.43,11.23-26.49-40.92-53.55-162.34-33.84-184.29,30.57-4.31,12.65,8.69,21.18,19.66,19.35Z"/></g></g></svg>