<svg xmlns="http://www.w3.org/2000/svg" width="1920" height="144.316" viewBox="0 0 1920 144.316">
  <g id="wavesFooterTop" transform="translate(0.292 -740.299)">
    <path id="Tracé_43" data-name="Tracé 43" d="M0-12.454s-.07-13.43,0-21.712c.014-1.644,1.608-.148,0-.306-.725-.071.146-.5,0-1.514a2.411,2.411,0,0,1,0-1.043v24.575c26.231-8.756,118.992-63.215,426.024-56.8s407.133,59.031,802.1,56.8,691.579-63.119,691.579-63.119V68.742H0Z" transform="translate(0 815.872)" fill="#c2f2ed"/>
    <path id="Tracé_42" data-name="Tracé 42" d="M0-54.254S123.4,13.18,427.6,7.547s516.641-58.109,789.221-61.8c383.206-5.19,702.884,74.342,702.884,74.342V88.615H0Z" transform="translate(0 796)" fill="#188c8c"/>
  </g>
</svg>
